<?xml version="1.0" encoding="utf-8"?>
<!-- Generator: Adobe Illustrator 16.0.0, SVG Export Plug-In . SVG Version: 6.00 Build 0)  -->
<!DOCTYPE svg PUBLIC "-//W3C//DTD SVG 1.1//EN" "http://www.w3.org/Graphics/SVG/1.1/DTD/svg11.dtd">
<svg version="1.1" id="Calque_1" xmlns="http://www.w3.org/2000/svg" xmlns:xlink="http://www.w3.org/1999/xlink" x="0px" y="0px"
	 width="1920px" height="1637.991px" viewBox="0 0 1920 1637.991" enable-background="new 0 0 1920 1637.991" xml:space="preserve">
<g>
	<defs>
		<rect id="SVGID_1_" x="-4.121" y="-15.604" width="1926.198" height="1657.99"/>
	</defs>
	<clipPath id="SVGID_2_">
		<use xlink:href="#SVGID_1_"  overflow="visible"/>
	</clipPath>
	<g clip-path="url(#SVGID_2_)">
		
			<radialGradient id="SVGID_3_" cx="970.4863" cy="1562.4116" r="1690.4968" gradientTransform="matrix(1 0 0 1.0858 0 -146.1443)" gradientUnits="userSpaceOnUse">
			<stop  offset="0.0914" style="stop-color:#FFFFFF"/>
			<stop  offset="0.1909" style="stop-color:#F8FBFE"/>
			<stop  offset="0.301" style="stop-color:#E9F2FB"/>
			<stop  offset="0.4162" style="stop-color:#D2E6F6"/>
			<stop  offset="0.5349" style="stop-color:#B2D6F1"/>
			<stop  offset="0.6564" style="stop-color:#88C4EB"/>
			<stop  offset="0.7783" style="stop-color:#4EB1E4"/>
			<stop  offset="0.8226" style="stop-color:#29AAE1"/>
			<stop  offset="1" style="stop-color:#01A79D"/>
		</radialGradient>
		<rect x="-1.309" y="-1" fill="url(#SVGID_3_)" width="1961.241" height="1703.59"/>
		<g>
			<defs>
				<rect id="SVGID_4_" x="-1.309" y="-191.49" width="1961.241" height="1897.476"/>
			</defs>
			<clipPath id="SVGID_5_">
				<use xlink:href="#SVGID_4_"  overflow="visible"/>
			</clipPath>
			<g clip-path="url(#SVGID_5_)">
				<path opacity="0.3" fill="#FFFFFF" d="M1504.848,847.667c-32.907,0-62.561,13.878-83.482,36.078
					c-25.462-75.694-96.997-130.209-181.27-130.209c-35.847,0-69.38,9.871-98.051,27.028
					c-29.381-67.824-96.908-115.28-175.53-115.28c-1.637,0-3.272,0.019-4.899,0.062c-46.231-104.022-150.449-176.565-271.62-176.565
					c-125.147,0-232.209,77.377-275.987,186.896c-19.532-6.73-40.492-10.393-62.311-10.393c-80.71,0-149.735,50.004-177.796,120.724
					c-1.525-0.057-3.051-0.115-4.591-0.115c-68.237,0-123.553,55.317-123.553,123.553c0,68.237,55.316,123.55,123.553,123.55
					c26.009,0,50.127-8.056,70.035-21.78c31.543,22.945,70.363,36.49,112.352,36.49c22.147,0,43.41-3.781,63.193-10.703
					c-2.818,9.952-4.358,20.44-4.358,31.296c0,63.361,51.366,114.725,114.726,114.725c34.119,0,64.741-14.909,85.757-38.547
					c27.245,72.367,97.103,123.856,178.998,123.856c70.218,0,131.583-37.857,164.833-94.266
					c19.899,16.605,45.503,26.607,73.446,26.607c55.742,0,102.18-39.761,112.545-92.466c28.937,17.605,62.91,27.749,99.258,27.749
					c75.259,0,140.355-43.488,171.555-106.7c20.823,28.975,54.797,47.862,93.197,47.862c63.361,0,114.729-51.364,114.729-114.724
					C1619.576,899.033,1568.209,847.667,1504.848,847.667z"/>
				<path opacity="0.3" fill="#FFFFFF" d="M528.2,285.8c-32.91,0-62.56,13.878-83.483,36.078
					c-25.461-75.691-96.997-130.211-181.271-130.211c-35.844,0-69.379,9.871-98.048,27.032
					c-29.381-67.828-96.91-115.284-175.531-115.284c-1.637,0-3.271,0.021-4.899,0.062C-61.266-0.542-165.482-73.089-286.654-73.089
					c-125.146,0-232.209,77.379-275.985,186.896c-19.533-6.729-40.493-10.393-62.312-10.393
					c-80.709,0-149.735,50.006-177.796,120.724c-1.526-0.053-3.051-0.115-4.591-0.115c-68.236,0-123.552,55.317-123.552,123.553
					c0,68.237,55.316,123.55,123.552,123.55c26.009,0,50.127-8.054,70.035-21.779c31.542,22.943,70.363,36.487,112.352,36.487
					c22.147,0,43.409-3.778,63.192-10.702c-2.817,9.952-4.357,20.442-4.357,31.298c0,63.361,51.364,114.725,114.726,114.725
					c34.118,0,64.741-14.909,85.756-38.551c27.244,72.371,97.103,123.857,178.998,123.857c70.218,0,131.584-37.854,164.832-94.262
					c19.901,16.605,45.503,26.603,73.447,26.603c55.742,0,102.182-39.757,112.547-92.462c28.936,17.605,62.909,27.745,99.255,27.745
					c75.26,0,140.357-43.485,171.555-106.699c20.823,28.975,54.795,47.865,93.199,47.865c63.361,0,114.726-51.364,114.726-114.725
					C642.926,337.165,591.561,285.8,528.2,285.8z"/>
				<path opacity="0.3" fill="#FFFFFF" d="M2590.342,376.995c-32.909,0-62.562,13.877-83.484,36.078
					c-25.461-75.691-96.997-130.212-181.269-130.212c-35.847,0-69.378,9.872-98.05,27.032
					c-29.381-67.827-96.909-115.284-175.532-115.284c-1.636,0-3.271,0.021-4.898,0.061
					C2000.877,90.651,1896.66,18.104,1775.487,18.104c-125.147,0-232.208,77.379-275.986,186.896
					c-19.532-6.729-40.494-10.393-62.313-10.393c-80.709,0-149.732,50.006-177.794,120.724c-1.525-0.054-3.05-0.115-4.589-0.115
					c-68.238,0-123.555,55.317-123.555,123.552c0,68.237,55.316,123.548,123.555,123.548c26.009,0,50.126-8.051,70.033-21.776
					c31.54,22.941,70.363,36.486,112.35,36.486c22.148,0,43.413-3.777,63.193-10.703c-2.815,9.952-4.355,20.444-4.355,31.3
					c0,63.361,51.363,114.725,114.725,114.725c34.118,0,64.741-14.908,85.759-38.55c27.243,72.371,97.1,123.857,178.996,123.857
					c70.219,0,131.585-37.854,164.833-94.263c19.9,16.605,45.504,26.603,73.447,26.603c55.742,0,102.181-39.756,112.546-92.461
					c28.936,17.604,62.909,27.744,99.257,27.744c75.259,0,140.355-43.484,171.555-106.7c20.823,28.974,54.797,47.866,93.198,47.866
					c63.36,0,114.729-51.364,114.729-114.725C2705.07,428.358,2653.702,376.995,2590.342,376.995z"/>
				<path opacity="0.3" fill="#FFFFFF" d="M1143.854,402.335c-9.041,0-17.188,3.815-22.938,9.913
					c-6.995-20.796-26.65-35.777-49.81-35.777c-9.848,0-19.061,2.712-26.938,7.427c-8.072-18.635-26.627-31.677-48.23-31.677
					c-0.449,0-0.896,0.006-1.346,0.017c-12.702-28.579-41.339-48.514-74.631-48.514c-34.387,0-63.805,21.259-75.833,51.352
					c-5.367-1.848-11.128-2.855-17.123-2.855c-22.175,0-41.141,13.74-48.851,33.171c-0.422-0.016-0.84-0.031-1.261-0.031
					c-18.751,0-33.95,15.199-33.95,33.946c0,18.75,15.199,33.95,33.95,33.95c7.144,0,13.771-2.213,19.24-5.985
					c8.669,6.303,19.333,10.027,30.871,10.027c6.086,0,11.928-1.039,17.363-2.942c-0.773,2.735-1.195,5.616-1.195,8.6
					c0,17.41,14.112,31.524,31.522,31.524c9.373,0,17.789-4.097,23.561-10.594c7.489,19.884,26.68,34.034,49.185,34.034
					c19.294,0,36.151-10.404,45.292-25.901c5.467,4.562,12.499,7.308,20.18,7.308c15.314,0,28.073-10.925,30.924-25.404
					c7.947,4.838,17.283,7.623,27.269,7.623c20.682,0,38.567-11.947,47.14-29.316c5.723,7.961,15.059,13.152,25.607,13.152
					c17.41,0,31.525-14.114,31.525-31.523C1175.379,416.451,1161.264,402.335,1143.854,402.335z"/>
				<path opacity="0.3" fill="#FFFFFF" d="M1470.385,825.944c-9.044,0-17.192,3.812-22.938,9.913
					c-6.998-20.8-26.653-35.781-49.809-35.781c-9.848,0-19.064,2.712-26.94,7.428c-8.071-18.636-26.631-31.675-48.23-31.675
					c-0.448,0-0.9,0.004-1.345,0.016c-12.706-28.58-41.34-48.514-74.634-48.514c-34.388,0-63.802,21.263-75.834,51.353
					c-5.366-1.847-11.123-2.854-17.119-2.854c-22.179,0-41.144,13.74-48.854,33.172c-0.417-0.015-0.838-0.034-1.26-0.034
					c-18.747,0-33.946,15.199-33.946,33.95c0,18.747,15.199,33.946,33.946,33.946c7.148,0,13.774-2.214,19.245-5.983
					c8.664,6.305,19.333,10.026,30.869,10.026c6.084,0,11.929-1.04,17.364-2.94c-0.773,2.731-1.199,5.614-1.199,8.598
					c0,17.41,14.116,31.525,31.521,31.525c9.378,0,17.789-4.098,23.565-10.595c7.485,19.885,26.681,34.035,49.181,34.035
					c19.295,0,36.157-10.404,45.293-25.903c5.465,4.563,12.503,7.309,20.18,7.309c15.317,0,28.078-10.925,30.924-25.404
					c7.952,4.838,17.286,7.623,27.273,7.623c20.677,0,38.565-11.947,47.138-29.316c5.72,7.961,15.055,13.152,25.608,13.152
					c17.409,0,31.521-14.114,31.521-31.523S1487.794,825.944,1470.385,825.944z"/>
				<path opacity="0.3" fill="#FFFFFF" d="M337.823,855.359c-9.042,0-17.19,3.815-22.938,9.914
					c-6.996-20.796-26.651-35.777-49.808-35.777c-9.849,0-19.063,2.711-26.941,7.427c-8.071-18.635-26.628-31.678-48.23-31.678
					c-0.448,0-0.898,0.007-1.344,0.019c-12.704-28.58-41.34-48.514-74.632-48.514c-34.387,0-63.803,21.26-75.834,51.353
					c-5.367-1.851-11.123-2.858-17.12-2.858c-22.177,0-41.142,13.74-48.853,33.172c-0.418-0.015-0.839-0.031-1.261-0.031
					c-18.748,0-33.948,15.2-33.948,33.946c0,18.753,15.2,33.948,33.948,33.948c7.148,0,13.775-2.21,19.245-5.983
					c8.665,6.305,19.333,10.028,30.869,10.028c6.084,0,11.928-1.042,17.364-2.942c-0.774,2.735-1.197,5.615-1.197,8.6
					c0,17.41,14.113,31.521,31.521,31.521c9.375,0,17.789-4.096,23.563-10.592c7.487,19.884,26.682,34.03,49.183,34.03
					c19.294,0,36.155-10.399,45.292-25.898c5.467,4.559,12.501,7.309,20.18,7.309c15.316,0,28.076-10.925,30.924-25.408
					c7.95,4.838,17.286,7.626,27.272,7.626c20.679,0,38.565-11.947,47.138-29.319c5.721,7.964,15.056,13.154,25.607,13.154
					c17.41,0,31.523-14.115,31.523-31.525C369.346,869.474,355.232,855.359,337.823,855.359z"/>
				<path opacity="0.3" fill="#FFFFFF" d="M1658.651,99.339c-9.04,0-17.188,3.815-22.937,9.914
					c-6.994-20.796-26.648-35.777-49.809-35.777c-9.849,0-19.061,2.712-26.941,7.428c-8.07-18.636-26.625-31.677-48.229-31.677
					c-0.449,0-0.897,0.006-1.346,0.017c-12.702-28.58-41.339-48.514-74.631-48.514c-34.387,0-63.805,21.26-75.832,51.352
					c-5.367-1.848-11.125-2.855-17.123-2.855c-22.176,0-41.141,13.74-48.852,33.17c-0.418-0.015-0.839-0.031-1.26-0.031
					c-18.75,0-33.951,15.199-33.951,33.946c0,18.75,15.201,33.95,33.951,33.95c7.147,0,13.774-2.214,19.244-5.985
					c8.666,6.303,19.332,10.026,30.867,10.026c6.087,0,11.929-1.038,17.363-2.941c-0.773,2.735-1.195,5.615-1.195,8.6
					c0,17.41,14.111,31.521,31.522,31.521c9.372,0,17.789-4.095,23.562-10.591c7.488,19.884,26.684,34.034,49.184,34.034
					c19.295,0,36.152-10.404,45.292-25.902c5.467,4.562,12.5,7.308,20.18,7.308c15.315,0,28.074-10.925,30.925-25.404
					c7.948,4.837,17.283,7.623,27.27,7.623c20.682,0,38.566-11.947,47.139-29.317c5.723,7.962,15.059,13.152,25.606,13.152
					c17.411,0,31.526-14.114,31.526-31.523C1690.178,113.455,1676.063,99.339,1658.651,99.339z"/>
				<path opacity="0.3" fill="#FFFFFF" d="M2158.745,917.136c-9.043,0-17.191,3.811-22.937,9.914
					c-6.999-20.8-26.653-35.778-49.809-35.778c-9.85,0-19.066,2.712-26.94,7.427c-8.071-18.637-26.631-31.676-48.23-31.676
					c-0.448,0-0.9,0.004-1.345,0.016c-12.706-28.58-41.34-48.515-74.635-48.515c-34.387,0-63.802,21.264-75.833,51.353
					c-5.366-1.847-11.124-2.854-17.119-2.854c-22.179,0-41.145,13.74-48.854,33.17c-0.417-0.015-0.838-0.03-1.261-0.03
					c-18.747,0-33.945,15.196-33.945,33.946s15.198,33.947,33.945,33.947c7.147,0,13.775-2.211,19.245-5.984
					c8.665,6.305,19.333,10.028,30.87,10.028c6.083,0,11.929-1.042,17.364-2.941c-0.774,2.735-1.198,5.615-1.198,8.599
					c0,17.41,14.115,31.521,31.521,31.521c9.378,0,17.789-4.095,23.565-10.591c7.485,19.884,26.681,34.031,49.181,34.031
					c19.295,0,36.157-10.4,45.291-25.898c5.467,4.559,12.505,7.309,20.181,7.309c15.318,0,28.079-10.925,30.924-25.408
					c7.953,4.838,17.287,7.627,27.274,7.627c20.677,0,38.565-11.948,47.138-29.319c5.72,7.964,15.056,13.154,25.607,13.154
					c17.41,0,31.521-14.116,31.521-31.526C2190.267,931.248,2176.155,917.136,2158.745,917.136z"/>
			</g>
		</g>
		<g opacity="0.3">
			<defs>
				<rect id="SVGID_6_" x="0" y="-15.604" opacity="0.3" width="1961.241" height="1750.089"/>
			</defs>
			<clipPath id="SVGID_7_">
				<use xlink:href="#SVGID_6_"  overflow="visible"/>
			</clipPath>
		</g>
		<g>
			
				<radialGradient id="SVGID_8_" cx="1372.0391" cy="961.9893" r="1200.6219" gradientTransform="matrix(1 0 0 0.859 0 110.778)" gradientUnits="userSpaceOnUse">
				<stop  offset="0" style="stop-color:#ABD037"/>
				<stop  offset="0.4037" style="stop-color:#89C540"/>
				<stop  offset="1" style="stop-color:#3DB54A"/>
			</radialGradient>
			<path fill="url(#SVGID_8_)" d="M1958.722,1092.813c0,0-10.913-1.498-32.823-2.589c-10.96-0.544-24.662-0.989-41.129-1.096
				c-8.232,2.654-17.153,0.617-26.768,0.126c-9.615,6.681-19.919,0.391-30.917,0.809c-7.332-8.527-14.974,7.661-22.921,1.049
				c-3.973,1.843-8.027-7.53-12.151-0.275c-4.13-3.318-8.335-0.755-12.618,1.758c-4.282-4.149-8.641,0.743-13.077-1.452
				c-4.436,1.874-8.952,8.351-13.541,3.31c-3.826-3.838-7.707,1.59-11.642,3.267c-3.934-0.689-7.922,7.753-11.959-1.949
				c-4.041,9.852-8.135,5.704-12.285,1.241c-4.147,4.841-8.35,1.356-12.605,0.482c-4.256-3.735-8.564-8.393-12.929-1.398
				c-4.362,5.846-8.778,5.669-13.249,5.681c-3.91,2.512-7.864-3.459-11.859-4.992c-3.995,0.682-8.029,5.631-12.105,7.884
				c-4.078,10.637-8.195,16.367-12.353,9.722c-4.161-0.758-8.361-1.98-12.603-6.451c-4.244,7.493-8.526,6.447-12.853,6.7
				c-4.324,0.061-8.687-1.498-13.097-3.03c-8.813,4.5-17.792,1.735-26.936,1.444c-9.144,3.437-18.455-0.33-27.933,3.72
				c-9.473-4.566-19.114,11.886-28.92,8.45c-4.458,1.218-8.952,2.459-13.477,3.482c-4.526,1.023-9.087,1.827-13.683,2.172
				c-4.593,3.083-9.223,5.834-13.887,7.197c-4.665,1.364-9.361,1.341-11.805-1.467c-7.021,4.106-11.786,4.133-8.216,2.674
				c-13.171,0.705-18.004-0.081-7.704-0.142c-19.666,16.004-24.189,8.673-7.948,5.474c-25.347,0.831-29.928,3.175-11.782,0.566
				c-27.369,5.601-32.008,4.954-19.265,4.631c-22.087-0.632-26.787-0.946-30.146,8.496c-6.094-4.849-10.851-3.742-31.089,4.968
				c10.661-6.086,5.846-4.57-20.447,4.398c16.602-1.958,11.727,2.639-9.993,13.579c11.909-7.098,6.976-7.849-11.044-8.201
				c8.094-1.191,3.103,0.046-7.871,2.766c0.93-1.295-4.122-1.107-9.998,0.218c-4.286,0.835-9.396,1.873-12.335,2.429
				c-7.339,1.47-12.507,2.459-11.35,2.08c-11.231,2.111-16.127,3.452-11.028,2.778c-14.95,3.462-19.899,4.914-13.361,3.765
				c-16.489,1.659-21.492,3.773-17.42,4.704c-14.127,3.344-19.185,5.508-21.796,5.853c-7.547,1.528-12.652,1.861-23.317,5.053
				c0.402-1.625-4.758-0.395-20.245,7.852c5.797-1.574,1.331-8.151-14.119,0.494c6.589-10.43,2.199,3.804-10.744,5.849
				c4.24-10.867-0.073,1.605-9.354,4.237c0.732-0.977-3.505-0.705-9.604,0.889c-2.302-2.249-6.465-1.042-10.683,0.915
				c-4.03,1.904-8.121,4.563-12.174,5.838c-6.079,2.593-12.077,0.514-17.995,6.692c-5.919,4.305-11.757,7.225-17.518,4.175
				c-5.766-10.009-11.45-0.004-17.058,1.992c-5.611,3.034-11.146,7.175-16.609,8.634c-7.281-3.701-14.438,8.637-21.467,6.118
				c-7.028-2.988-13.931,11.882-15.708,6.186c-11.791,5.78-18.456-1.586-10.212,5.941c-21.345,5.546-27.78,10.998-12.462,3.547
				c-27.971,9.328-34.188,10.454-21.34,9.672c-25.071-6.316-31.077-1.896-37.853,13.94c-5.042-1.238-10.849-0.365-34.131,14.854
				c11.855-8.814,6.236-6.339-19.214,1.268c13.472-4.67,7.144-4.8-12.208,4.133c6.926-2.425,0.827-0.169-10.117,2.306
				c-1.042-1.842-6.929-4.271-12.775,2.64c-5.73,1.563-11.422,3.746-17.023,8.251c-11.196,9.408-22.033,12.709-32.575,12.161
				c-10.538-0.505-20.777-1.696-30.781,11.351c-5.559,2.968-11.044,3.501-16.466,5.945c-5.424,10.147-10.785,2.808-16.096,5.677
				c-5.312-4.604-10.57-7.776-15.792,4.417c-5.219,2.896-10.398,6.071-15.548,6.114c-10.301-2.31-20.483,6.267-30.637,9.404
				c-10.153-4.876-20.275-3.164-30.456,8.224c-10.179,11.48-20.415,5.149-30.794,7.01c-5.588-4.355-11.219,4.359-16.904,3.256
				c-5.685-2.012-11.426,1.211-17.235,2.881c-5.809,8.821-11.687,6.986-17.646,1.106c-5.96,4.865-12.003-4.436-18.14,3.513
				c-6.138-1.391-12.372,0.464-18.715,2.114c-6.342,1.655-12.795,3.114-18.853,1.851c-7.092,1.912-13.79,1.307-19.71,3.486
				c-7.749-3.847-14.72-4.903-21.648,1.539c-7.312,0.739-14.583,0.767-22.513,1.693c-6.938-3.593-14.536-6.285-22.85-5.428
				c-11.123-1.326-23.184-1.766-35.688-2.375c-37.514-1.823-79.023-5.148-125.765-10.074c0,0,0,6.386,0,17.027
				c0,10.641,0,25.542,0,42.568c0,25.572,0,13.215,0,28.154c0,1.349,0,2.336,0,27.186c0,28.338,0,32.996,0,30.932
				c0,11.778,0,8.558,0,24.407c0,5.479,0,17.078,0,21.62c0,7.872,0,15.629,0,20.95c0,10.641,0,17.026,0,17.026s4.614,0,13.365,0
				c8.752,0,21.641,0,38.192,0c16.55,4.164,36.762,3.628,60.16,0c4.388,0,8.887,0,13.496,0c4.608,0,9.325,0,12.932,1.248
				c6.038-1.248,10.965-1.248,12.83,3.042c8.198-4.29,13.332-4.29,14.578,3.788c14.452-8.258,25.316-10.312,36.899,2.708
				c10.889-14.984,22.498-14.893,38.375-3.983c4.051-5.516,12.176-6.538,21.948-6.462c6.771-2.979,15.191-4.865,23.75-5.294
				c8.56-0.429,17.258,0.594,26.09,4.953c10.303,0,20.785,1.949,31.436,2.923c10.65,0.977,21.469,0.977,32.444-2.923
				c21.95,0.506,44.525-15.84,67.631,0c23.106-8.381,46.742,0,70.815,0c22.221,0,44.813-10.424,67.701,0
				c22.892,0.692,46.078-4.133,69.486,0c23.412,0,47.043,0,70.823,0c475.627,0,1010.706,0,1010.706,0V1092.813z"/>
			<radialGradient id="SVGID_9_" cx="566.0801" cy="964.709" r="796.5944" gradientUnits="userSpaceOnUse">
				<stop  offset="0" style="stop-color:#ABD037"/>
				<stop  offset="0.1466" style="stop-color:#AED136"/>
				<stop  offset="0.2592" style="stop-color:#B8D434"/>
				<stop  offset="0.3602" style="stop-color:#C7DA2E"/>
				<stop  offset="0.4355" style="stop-color:#D8E028"/>
				<stop  offset="1" style="stop-color:#3DB54A"/>
			</radialGradient>
			<path fill="url(#SVGID_9_)" d="M-2.519,1237.688c0.27,0.268,1.682,0.456,4.243,0.652c2.562-10.737,6.271,3.922,11.139,0.674
				c4.869,1.33,10.893,2.141,18.085,1.226c7.191,4.837,15.547-4.283,25.078,2.294c4.765-1.33,9.825-0.46,12.035,0.045
				c8.495,2,14.143,3.635,9.518,1.176c16.51-3.555,22.748-0.433,11.228-2.685c24.591,9.978,31.423,14.59,17.593,2.819
				c28.088,8.607,35.514,14.123,39.396,16.858c11.568,4.903,19.591,7.025,48.931-1.241c-16.854,5.205-12.618,7.492,14.042,12.755
				c-18.037-2.386-13.651-1.792,9.689,1.74c-14.417-1.054-9.88,1.976,7.097,6.17c-7.753-1.743-3.066-2.321,8.18-6.439
				c-1.04-7.16,4.501-5.271,10.83-1.644c4.952,3.486,10.691,8.711,16.529,9.113c11.676,5.167,23.746,2.44,36.214,9.652
				c6.234,0.824,12.567,1.418,19,2.892c6.432,1.475,12.964,3.827,19.595,8.163c6.632,1.632,13.363-0.482,15.777-2.401
				c7.832,2.072,11.273,2.677,6.115,0.341c12.089,6.148,15.579,9.354,4.086,8.745c22.04,4.397,29.17,8.289,15.509,3.528
				c28.122,15.943,35.454,9.81,32.649,8.891c15.189,8.132,20.189,9.473,34.475,8.354c-4.198,4.769,0.89,7.079,27.181,13.778
				c-16.025,1-10.847,4.467,14.375,14.188c-14.777-6.071-9.511-5.884,11.022-2.834c-9.908,0.226-4.552-0.268,8.531,2.003
				c-2.279-2.099,3.167-1.437,9.684,5.845c4.555,4.187,10.226,2.022,15.982,3.636c5.755,0.08,11.599,1.256,17.526,8.515
				c5.927-3.367,11.94,8.293,18.034,7.27c6.092-3.888,12.267,1.889,18.52,5.033c12.508,9.335,25.332-0.022,38.449,12.104
				c13.118-3.432,26.533,4.808,40.219,11.879c13.687,2.033,27.647,1.957,41.86,11.629c14.215,3.835,28.679,7.619,43.38,11.357
				c14.697,3.734,29.625,7.424,44.767,11.055c7.573,1.816,15.196,2.97,22.869,4.437c7.673,1.464,15.399,3.236,23.167,6.294
				c7.772-5.102,15.59,1.482,23.455,4.493c7.864-5.394,15.77,10.013,23.722,5.888c11.925,6.221,23.945,5.754,36.054,7.539
				c12.108,5.419,24.301,10.178,36.57,7.315c12.272,7.404,24.619,12.916,37.038,7.087c12.414-0.089,24.898,4.6,37.443,6.842
				c16.728,2.983,33.56,5.895,50.475,8.722c16.92-6.325,33.919,4.8,50.989,8.251c17.064,1.604,34.194,5.248,51.371,7.745
				c274.775,39.926,560.593,57.348,771.525,35.03v121.091H-2.519V1237.688z"/>
		</g>
		<path opacity="0.3" fill="#286A37" d="M1688.726,1353.489c0,0-26.147,5.233-2.612,19.613
			c23.535,14.384,20.264,19.612,46.414,21.573c26.152,1.961,54.265-1.306,63.416,1.961c9.15,3.268,43.143,7.846,50.336,7.846
			c7.19,0,33.996-5.229,33.996-5.229s6.535-1.31,7.191-5.884c0.654-4.577,1.961-10.461,1.961-10.461l-9.807-16.345l-15.035-16.341
			c0,0-9.151-12.422-15.69-14.384C1842.357,1333.876,1755.407,1344.993,1688.726,1353.489z"/>
		<path opacity="0.3" fill="#286A37" d="M1572.288,1118.631c0,0-8.986,1.8-0.899,6.742c8.085,4.941,6.964,6.738,15.946,7.412
			c8.986,0.674,18.647-0.448,21.792,0.674s14.823,2.693,17.295,2.693c2.471,0,11.68-1.797,11.68-1.797s2.248-0.449,2.471-2.022
			c0.226-1.571,0.674-3.594,0.674-3.594l-3.367-5.615l-5.168-5.616c0,0-3.145-4.268-5.39-4.941
			C1625.074,1111.893,1595.199,1115.712,1572.288,1118.631z"/>
		<path opacity="0.3" fill="#286A37" d="M723.887,1459.386c0,0-13.455,2.692-1.345,10.093c12.108,7.401,10.427,10.094,23.882,11.103
			c13.456,1.006,27.92-0.675,32.629,1.006c4.709,1.682,22.2,4.038,25.9,4.038c3.701,0,17.492-2.693,17.492-2.693
			s3.362-0.67,3.7-3.025c0.336-2.356,1.009-5.382,1.009-5.382l-5.046-8.408l-7.736-8.412c0,0-4.709-6.39-8.073-7.396
			C802.935,1449.296,758.197,1455.015,723.887,1459.386z"/>
		<path opacity="0.3" fill="#286A37" d="M1037.631,1356.836c0,0-7.98,1.597-0.798,5.987c7.183,4.386,6.185,5.983,14.165,6.581
			c7.982,0.601,16.561-0.398,19.354,0.601c2.792,0.997,13.167,2.395,15.362,2.395s10.375-1.598,10.375-1.598
			s1.994-0.398,2.194-1.796c0.2-1.398,0.599-3.191,0.599-3.191l-2.992-4.987l-4.589-4.991c0,0-2.793-3.789-4.789-4.386
			C1084.518,1350.849,1057.981,1354.243,1037.631,1356.836z"/>
		<g>
			
				<radialGradient id="SVGID_10_" cx="1763.5479" cy="1258.3403" r="130.0708" gradientTransform="matrix(0.9949 -0.1011 0.1378 1.3557 -189.0398 -349.7476)" gradientUnits="userSpaceOnUse">
				<stop  offset="0" style="stop-color:#ABD037"/>
				<stop  offset="0.1111" style="stop-color:#9ECC3B"/>
				<stop  offset="0.5073" style="stop-color:#72BF44"/>
				<stop  offset="0.817" style="stop-color:#4FB849"/>
				<stop  offset="1" style="stop-color:#3DB54A"/>
			</radialGradient>
			<path fill="url(#SVGID_10_)" d="M1712.273,1238.255c-2.894-0.265-5.693-6.417-4.327-9.638c1.181-2.785,3.915-2.195,3.667-6.367
				c0.813-0.475,3.248,0.119,3.328-1.417c0.111-2.229-5.048-5.187-6.273-6.746c-2.755-3.501-1.552-6.32,1.386-7.125
				c2.425-0.667,2.016-2.233,3.114-4.823c0.771-1.827,4.666-4.543,5.632-1.215c1.163-1.769,2.006-2.915,3.526-3.853
				c1.055-0.655,2.185-0.813,2.609-1.935c0.694-1.835-0.417-4.474,1.035-6.42c2.091-2.797,7.028-2.271,9.828-2.731
				c-2.202-1.823-5.742-2.118-3.496-5.424c0.849-1.249,2.032-1.115,2.451-2.608c0.329-1.192-0.207-2.77-0.211-4
				c-0.016-3.792,0.701-1.693,2.202-4.038c1.065-1.666,0.096-2.926,1.993-4.37c1.424-1.092,3.076-1.031,4.677-1.268
				c-0.245-1.016-0.736-1.942-0.858-2.993c2.037-0.329,3.807-0.57,5.757-1.287c0.146-1.88-0.873-4.742-0.506-6.469
				c0.417-1.961,6.746-4.058,6.692-1.437c-5.297-5.309,3.002-5.167,5.011-5.849c-0.096-2.153-1.598-3.861-0.464-5.746
				c2.042-3.405,4.057-0.249,5.979,0.923c0.839-3.566,5.114-3.352,7.075-1.421c1.639,1.616,2.716,4.589,2.869,7.316
				c1.869,1.165,4.719,1.632,6.377,3.187c1.621,1.521,0.802,2.658,1.687,4.271c1.264,2.313,3.608,1.214,4.983,3.658
				c1.011,1.796,0.866,3.972,0.405,5.948c2.241,1.644,4.922,0.322,5.173,5.149c0.121,2.44-0.308,1.712,0.864,3.658
				c0.44,0.727,1.146,1.386,1.54,2.24c0.31,0.667,0.475,1.938,0.742,2.402c0.3,0.513,0.151,1.245,0.609,1.731
				c0.912,0.961,4.123-0.345,5.122-0.329c2.241,0.03,2.271-0.104,2.942,2.735c1.087,4.612,1.485,8.362,4.842,11.691
				c1.061,1.053,5.063,3.581,3.976-0.644c0.36,4.573,2.397,11.216,4.409,15.168c1.122,2.203,3.053,2.594,4.268,4.367
				c0.682,0.988,0.735,2.08,1.034,3.245c0.505,1.965,0.866,2.41,1.585,4.325c0.928,2.463,0.284,3.24-0.29,5.458
				c-0.384,1.486-0.364,2.248-0.518,3.826c-0.391,3.896-2.743,5.57,0.471,8.792c1.464,1.467,1.827,0.271,2.544,2.918
				c0.82,3.011-1.045,4.551-0.655,7.297c0.586,4.175,5.155,2.215,4.938,8.209c-0.118,3.194-1.563,1.077,0.839,3.945
				c1.969,2.352,2.521,3.938,2.731,7.4c0.054,0.874-0.759,1.501-0.418,2.344c0.617,1.501,3.333,1.333,4.374,1.907
				c1.464,0.801,2.927,2.701,4.475,2.82c0.774,3.183-2.781,4.761-0.498,7.558c1.809,2.21,2.896,0.218,3.222,4.435
				c0.272,3.536-1.506,6.539-0.881,10.047c0.383,2.134,0.731,1.514,1.688,2.977c1.134,1.732,2.1,4.409,2.311,6.769
				c0.314,3.482-1.502,8.282-2.992,10.952c-0.682,1.214-1.915,1.972-1.429,3.711c2.479,0.387,6.513,2.513,6.953,6.401
				c0.414,3.635-1.941,6.665-2.624,9.97c-0.536,2.586-0.146,4.543-0.054,7.362c0.107,3.397-1.206,8.615-3.153,10.553
				c0.959,3.299-2.948,5.271-4.653,5.708c-2.069,0.533-4.685-0.303-6.646,0.647c-1.264,0.617-0.832,1.007-1.989,2.072
				c-2.382,2.18-6.17,1.628-8.971,1.908c-1.317,0.13-2.987,0.82-4.218-0.05c-1.814-1.283-2.19-4.443-2.383-6.887
				c0.066,0.222,0.104,0.452,0.116,0.685c-1.25,1.395-2.823,2.226-4.367,2.907c-1.858,0.824-5.919,2.98-7.906,2.417
				c-1.552-0.444-2.527-4.979-2.667-7.277c1.609,2.068,1.514,6.071,0.208,8.312c-2.433,4.167-6.597,1.413-9.669-0.004
				c-1.053-0.486-6.183-1.747-5.895-4.198c0.203-1.754,1.773,0.015,1.999,0.85c0.915,3.413-6.041,7.673-8.312,7.408
				c-2.022-0.23-6.068-5.386-5.92-8.672c-2.555-0.893-5.549,1.593-8.059-0.429c-1.363-1.1-2.306-3.505-2.965-5.286
				c0.835,5.063-4.988,7.883-7.891,7.259c-3.279-0.709-6.906-4.417-8.523-8.335c-0.329,2.394,0.556,4.213-0.291,6.71
				c-2.011,5.899-7.53,5.578-11.794,5.578c-2.284,0-3.324-0.529-5.256-2.049c-0.873-0.693-2.145-2.731-2.991-3.153
				c-0.425-0.214-0.95,0.303-1.379,0.158c-2.242-0.751-5.229-0.904-7.523-1.583c-3.501-1.03-10.35-1.49-12.729-6.155
				c-0.426-0.824-1.689-4.386-0.476-4.846c1.486-0.552,1.766,4.577,1.41,5.569c-0.862,2.425-6.972,3.923-9.079,3.413
				c-3.285-0.797-6.676-7.052-8.381-10.661c-0.455-0.973-1.766-3.221-1.543-4.508c0.374-2.156,4.593-1.686,3.551-4.85
				c-0.582-1.766-4.206-2.336-5.321-3.172c-2.838-2.122-4.424-6.37-5.704-10.201c-2.428-7.251-1.547-14.839,4.241-17.843
				c-2.157-1.448-4.938-0.881-7.225-1.785c-3.416-1.353-7.577-3.417-9.504-7.753c-2.938-6.604,3.888-11.415,8.045-12.158
				c-3.467-4.037-9.688-3.808-8.707-11.794c0.629-5.121,5.826-7.148,9.165-6.474c-0.727-2.294-1.903-3.026-2.137-5.704
				c1.467-1.13,4.042,0.931,5.578,1.823c1.881-2.57,0.563-5.846,1.838-8.76c0.966-2.199,2.122-2.858,3.941-2.195
				c3.528,1.28,6.804,4.884,10.408,6.378c-1.348-3.195-4.904-3.317-4.148-8.359c0.291-1.976,2.536-4.309,3.869-5.343
				c1.735-1.349,3.78-2.701,5.691-1.586c0.92,0.533,1.219,1.796,2.311,1.996c1.141,0.215,2.129-0.777,3.053-1.302
				c-0.185-0.276-0.342-0.667-0.544-0.973c0.19-0.403,0.455-2.264,0.716-2.448c1.084-0.747,1.287,1.115,2.345,0.824
				c1.517-0.41,1.341-4.616,3.644-3.133"/>
			<path opacity="0.6" fill="#286A37" d="M1762.548,1319.86c0.413,2.866,0.578,4.417-0.644,6.803
				c-0.813,1.582-2.057,3.953-3.072,1.165c-1.735,3.022-2.467,5.849-5.201,7.822c-2.073,1.49-4.363,1.892-6.654,2.662
				c-0.919-1.674-2.053-3.252-0.689-4.352c-0.062,2.609-2.686,3.165-2.812-0.284c0.096,0.49,0.08,1.027,0.181,1.506
				c-1.012,0.912-2.326,1.095-3.54,1.142c-1.091-2.617-1.57-5.666-1.704-8.569c0.516-0.241,0.823-0.218,1.367-0.096
				c0.073,0.667,0.279,1.482,0.23,2.149c-0.165-1.594-0.288-3.191-0.521-4.785c-2.433,0.299-5.596,5.187-7.922,4.773
				c1.988,7.791-5.328,4.366-3.26,1.456c4.011,4.555-5.217,8.235-4.892,3.08c2.797,4.352-2.662,9.278-2.858,2.815
				c0.196,2.003,0.377,4.122,0.043,6.048c-1.935,0.337-3.232-2.804-5.186-3.198c-2.667-0.532-6.245,1.594-8.949,2.087
				c-1.977-4.37,3.808-3.145,0.146-6.941c-0.919-0.946-4.244,0.069-1.636-3.781c-1.893-0.563-6.178,2.241-5.615,4.83
				c1.908-1.983-0.683-2.517-1.207-4.068c-0.578-1.712-0.598-3.93-0.307-5.63c-1.728-0.192-3.626,0.042-4.359,2.371
				c2.08,3.378,6.084,4.953,7.823,8.297c-1.372,1.076-3.307,1.061-4.317,2.716c0.084-0.142-1.149,4.627-1.134,4.221
				c-0.126,2.823,3.083,8.549,4.657,4.984c-0.482,6.24,5.426-0.295,6.363-1.958c0.514,2.026,0.004,6.983,1.75,8.358
				c2.506,1.965,3.728-3.938,6.34-3.539c0.836,7.293,5.58,1.995,7.335-0.502c0.326,2.448-0.138,4.643,1.536,5.899
				c2.368,1.762,4.382-2.123,4.494-4.846c0.509,6.194,1.616,8.565,5.76,4.67c2.215,8.335,9.527,2.064,12.155-1.62
				c0.233,1.854,0.329,3.807,0.666,5.596c2.513,0.712,2.924-3.198,3.299-5.673c1.253,1.222,1.574,2.984,3.08,3.145
				c2.321,0.249,3.822-4.176,3.841-6.899c2.353,3.904,5.742,2.67,5.302-2.551c0.199,0.556,0.583,1.073,0.739,1.417
				c-0.154-1.203-0.961-4.523-0.62-5.569c0.421-1.295,2.026-0.896,2.838-1.789c2.586-2.865,0.162-4.156-0.77-7.891
				c2.751-0.9,0.712-6.413-0.885-8.397c0.697-1.758,2.421-2.747,3.654-3.892c-0.646-2.804-3.624-3.198-5.439-3.505"/>
			<path opacity="0.4" fill="#286A37" d="M1762.729,1274.764c4.386,2.283,5.412,12.595,6.929,1.471
				c3.749,3.719,6.436,6.976,7.635-1.271c-0.058,1.119,0.368,2.521,0.501,3.563c1.87,0.433,1.905-2.678,2.146-4.425
				c0.75,1.904,1.915,3.313,2.999,4.843c3.72-1.602,5.435-7.183,7.112-11.557c0.996,1.015,1.954,2.658,3.229,2.252
				c0.146-1.701-0.417-3.301-1.597-4.094c3.604,5.864,5.366-0.085,4.941-4.942c1.896,0.939,3.795,0.862,5.723,0.655
				c0.318-2.042,1.211-5.631-1.118-6.206c2.547,3.437,6.634,2.697,9.813,2.157c0.076-1.25-0.084-2.64-0.448-3.831
				c-0.437-0.008-1.206-0.413-1.602-0.364c4.306-2.666,5.478-6.626-0.142-7.684c2.229-2.317,5.286-2.796,7.34-5.569
				c-1.088-1.877-3.586-1.081-5.175-1.233c4.91-0.149,4.661-1.965,4.465-6.002c-0.014-0.303-0.577-0.675-0.569-1.157
				c0.012-1.421,1.148-2.061,1.34-3.459c0.234-1.72,1.166-4.014-1.59-3.221c0.904-0.058,1.444-0.916,2.03-1.337
				c-4.313-2.092-0.088-3.382-0.942-6.772c-0.394-1.574-2.696-1.612-3.635-2.387c-0.452-0.375,0.181-1.662-0.464-2.21
				c-0.708-0.602-1.938-0.598-2.734-0.938c2.869-2.846,6.106,0.057,7.853,2.467c3.148,4.336,4.703,9.477,2.057,15.173
				c0.919,0.023,2.138-0.004,3.104,0.337c0.371,2.252,0.941,5.344,0.551,7.489c2.463,0.67,2.299,6.729,0.742,7.619
				c0.832-1.773,2.283-3.379,3.851-3.302c0.721,2.8-0.241,6.435-1.918,7.891c0.337,1.387,1.079,5.007,1.704,6.11
				c1.02,1.793,1.291,1.429,3.351,2.547c5.456,2.966,2.043,7.673-1.114,11.419c-0.437-1.574-0.106-1.551,1.188-1.64
				c0.835,4.577,0.658,6.723-3.551,7.275c-2.471,0.329-5.484-2.391-5.88-6.631c2.524,6.902,1.644,12.971-3.37,16.337
				c-1.69,1.134-8.24,4.535-9.462,1.038c2.198,5.401,4.053,7.649-1.425,9.228c-1.498,0.429-4.727,1.877-5.715,0.031
				c1.386,9.473-7.348,12.97-13.208,12.442c-0.283-0.747-0.405-1.969-0.283-2.762c1.278-0.767,1.976-0.058,2.601,1.639
				c1.493,4.061-5.952,8.164-7.983,9.308c-1.662,0.935-2.222,1.881-3.811,0.241c-0.809-0.835-2.138-4.872-1.687-6.186
				c1.667-4.861,5.578,2.773,2.843,6.14c-2.915,3.593-5.727-0.203-7.551-3.582c0.962-2.344,3.318-4.014,5.062-5.558
				c-2.41,0.196-8.892,6.677-10.918,4.501c-1.838-1.973,2.161-5.481,2.372-7.285c-3.571-4.096-4.593-1.245-5.122-7.688
				c0.41-0.13,0.805-0.471,1.286-0.479c0.052-0.23,0.069-0.468,0.062-0.705c-2.869-1.938-5.521,0.249-3.994-5.198
				c-5.506,0.732-0.273-4.795-0.418-6.378c-0.142-1.559-1.391-1.77-1.961-3.256c-0.303-0.777-0.322-2.712-0.357-3.582
				c-0.413-10.787,5.813,2.815,6.896-1.095"/>
			<path opacity="0.2" fill="#D8E028" d="M1759.936,1287.271c-1.33-3.731,0.936-9.99-0.392-12.591
				c-1.316-2.579-2.783-0.292-4.281-1.215c-1.659-1.026-1.521-2.202-2.574-3.321c-1.392-1.471-2.471-3.854-4.172-4.669
				c-1.269-0.613-3.141,1.528-4.247-0.161c-1.44-2.213,3.73-11.625-2.104-8.718c-2.525-6.037-1.085-14.387-8.784-10.308
				c-1.214-4.014-5.462-3.175-6.588,0.058c-3.349-7.317-7.982-8.845-10.63,0.076c-2.851-5.252-8.653-6.75-12.07-1.639
				c-0.495-0.594-1.563-0.992-2.08-1.716c-1.408,1.647-1.996,4.114-1.865,6.688c-5.396-1.567-3.873,0.318-7.7,2.62
				c-0.302,0.18-2.371-1.827-3.45-0.866c-1.843,1.647,0.111,6.244-2.98,6.546c-0.208,2.437-0.823,4.812-1.195,7.14
				c2.375,0.613,7.898,1.257,8.09-0.973c-2.944,4.168,1.44,6.106,0.9,10.581c0.961-3.447,2.375-6.585,3.738-9.733
				c0.839,4.799-0.602,9.15-0.418,13.866c2.598-2.697,3.421-8.565,6.738-10.235c0.878,2.739,1.18,6.137,0.617,8.738
				c0.276-1.663,0.851-2.781,1.302-4.298c0.511,2.368,0.624,5.389,1.023,8.002c0.237,0.107,0.479,0.195,0.724,0.257
				c1.219-2.927,1.945-6.386,3.514-9.048c1.329,3.152,0.887,6.294-1.97,6.021c0.433,0.034,1.688,0.736,2.375,0.858
				c-0.012,1.283,0.743,3.179,0.662,4.489c1.95-0.537,3.272-2.815,4.696-4.31c1.629,3.019,1.556,7.654,1.732,11.323
				c1.77-4.777,4.628-10.5,5.267-15.951c0.253,3.566,0.769,7.121,0.942,10.684c1.371-1.77,2.142-4.24,2.359-6.849
				c0.318,3.432,0.629,6.896,1.092,10.297c1.479-1.464,2.24-5.631,1.896-8.159c-0.659,2.363-2.513,15.625,2.17,13.292
				c2.595-1.287,2.58-10.687,2.204-13.587c1.654,2.608,3.343,5.508,5.424,7.4c0.556-2.93,0.865-5.945,0.747-9.021
				c1.682,2.172,1.417,4.812,2.438,7.474c1.087,2.85,3.086,4.753,3.707,7.917c-0.253-2.172-0.486-4.351-0.689-6.527
				c0.44,4.156,0.076,11.89,3.597,13.518c1.08-2.823,2.049-5.83,2.78-8.802c1.264,3.551,0.154,9.201,2.759,11.583
				c1.13-3.563,1.015-7.393,1.076-11.385c1.816,0.816,3.061,3.222,4.321,5.352c-0.87-4.663,0.98-13.197,3.359-16.265"/>
			<path opacity="0.2" fill="#D8E028" d="M1777.613,1153.684c4.107,1.957,7.604,7.783,7.547,13.732
				c-0.367-0.364-0.835-0.536-1.223-1.046c1.353,1.437,2.709,4.455,1.134,6.033c0.774,0.996,2.272,1.414,3.199,2.727
				c-1.315,0.153-2.64,0.272-3.957,0.41c1.37-0.134,4.029-1.237,5.232-0.034c2.362,2.355,0.839,7.151-0.992,8.596
				c-1.843,1.451-6.78,2.087-6.888-2.226c1.35,0.624,2.632,2.333,3.15,3.961c-3.982,2.256-8.324,0.95-8.016-5.757
				c3.026-0.227,3.426,5.685,0.889,7.189c-3.105,1.85-7.023-0.291-9.671-2.574c5.898,5.264-8.899,18.617-13.028,11.887
				c0.359-0.854,0.637-1.279,1.303-1.67c-0.276,2.451-3.674,2.98-5.586,3.24c-0.693-1.214-0.889-2.708-1.007-4.221
				c1.345-1.846,1.391-5.363,2.375-8.021c0.138,1.896-0.877,3.325-2.194,3.382c-0.092-0.391-0.076-0.735-0.173-1.134
				c-1.425,0.686-3.11,1.563-4.544,2.077c-1.366,0.486-4.128,2.524-5.496,2.129c-2.482-0.72-3.463-4.723-1.792-6.504
				c1.302-1.386,4.278-1.268,5.804-0.406c-1.219-0.162-2.426-1.265-3.212-2.414c0.927-0.988,3.541-1.107,4.153-2.421
				c1.191-2.551-1.214-1.428-2.313-2.256c-1.924-1.444-1.605,0.016-1.184-3.692c0.211-1.865,2.279-6.841,3.623-7.174
				c-0.084,0.436-0.295,0.697-0.639,0.774c-2.502-4.11,3.386-8.041,5.783-6.191c-0.149-1.455-0.359-2.979-0.352-4.355
				c1.067-0.13,1.439-0.36,2.194,0.433c-0.566-3.225,2.827-7.588,3.443-3.854c-0.82,0.479-1.896,0.551-2.59-0.356
				c-2.57-3.359,1.728-5.555,3.33-6.565c5.193-3.279,6.764-3.991,9.894,3.03c-0.376-3.241-2.489-15.9,3.395-10.231
				c1.834,1.769,0.723,3.076,2.138,4.976c2.183,2.942,4.328,0.272,5.225,5.822c0.019-0.053,0.24-0.667,0.341-0.965
				c0.088,1.341,0.295,2.812,0.742,4.045"/>
			<path fill="#44B64D" d="M1842.123,1291.905c-0.677-1.371-1.037-3.237-1.114-4.792c-1.819,0.034-3.646,0.368-5.454,0.456
				c0.295-1.08,1.209-5.616,1.053-6.742c-0.349-2.433-2.604-4.516-3.677-1.129c-0.575-2.977-0.333-4.785-2.693-5.715
				c-1.704-0.674-5.037,1.103-5.305,3.394c-0.288-1.904-0.391-3.792,0.079-5.539c-2.462-1.307-6.538,3.85-6.936,7.083
				c-0.434-5.167-0.307-5.788-4.142-4.988c-0.322,0.07-1.831,0.866-2.145,1.008c-1.211,0.532-1.82-0.246-3.123,1.125
				c-0.769,0.813-1.075,2.467-1.926,3.348c-0.586-2.183-0.49-4.803,0.261-6.868c-1.946,1.353-3.566,4.8-2.759,7.999
				c-0.026-0.644-0.11-1.302-0.169-1.941c-2.478-0.713-6.051,3.865-8.021,5.35c-2.068,1.567-4.064,3.306-6.492,3.532
				c0.084,0.414,0.291,0.594,0.62,0.54c0.015,0.524-0.326,1.031-0.143,1.828c-1.746-1.288-5.128-1.479-3.849,2.382
				c-1.999,0.854-6.884,4.091-7.753,7.332c-0.456,1.712-0.544,3.869,1.39,3.129c0.062-0.578-0.022-1.268-0.129-1.843
				c-3.023-1.294-3.633,4.395-3.796,7.209c-0.208-1.873,0.378-3.562,1.531-4.5c0.705,2.433-1.383,5.688-1.927,8.248
				c-0.356,1.697-0.398,3.485-0.958,5.152c1.701-3.352,2.535-0.276,4.083,1.467c1.675-3.011,2.016-7.343,3.44-10.614
				c1.391,1.387,1.387,3.738,1.976,5.788c0.38-1.935,1.36-3.958,1.423-6.125c0.773,1.716-0.196,4.141,0.375,6.148
				c2.025-0.2,1.727-5.88,4.298-6.615c0.574,2.24,1.352,4.784,2.788,6.4c1.261-1.214,5.88-7.454,4.724-9.442
				c-0.395,1.233-0.149,2.493,0.578,3.497c2.945,4.056,7.956-2.436,9.783-4.21c1.49-1.44,1.861-2.911,2.152-5.826
				c1.801,0.85,3.977,1.686,5.146,3.911c-3.034-3.811,0.836-5.485,3.159-5.516c0.537,1.708,0.613,3.647,0.778,5.481
				c-0.521-2.114,1.008-3.313,2.428-3.026c0.257,1.437,0.346,2.923,0.514,4.382c1.658-3.776,5.686-1.574,3.896,2.161
				c0.015-2.042,1.795-3,3.374-2.819c0.513,1.655,0.646,3.528,0.667,5.278c1.402-8.657,8.867-5.091,5.691,0.62
				c1,0.2,2.215,0.774,2.896,1.916c-1.107,0.571-1.755,1.716-1.778,3.271c2.161,0.701,6.302,0.628,7.358-1.926
				c1.219-2.942,0.326-5.612,3.219-7.666c-1.586-0.525-1.264-1.953-1.97-2.769c-0.271-0.314-1.98-1.563-2.171-2.054
				c-1.131-2.861,0.479-1.011,0.514-2.812c0.029-1.663-0.327-3.562-0.495-5.232"/>
		</g>
		<g>
			
				<radialGradient id="SVGID_11_" cx="764.8232" cy="1283.2314" r="71.7575" gradientTransform="matrix(0.9949 -0.1011 0.1002 0.9854 -132.2294 206.7406)" gradientUnits="userSpaceOnUse">
				<stop  offset="0" style="stop-color:#ABD037"/>
				<stop  offset="0.1111" style="stop-color:#9ECC3B"/>
				<stop  offset="0.5073" style="stop-color:#72BF44"/>
				<stop  offset="0.817" style="stop-color:#4FB849"/>
				<stop  offset="1" style="stop-color:#3DB54A"/>
			</radialGradient>
			<path fill="url(#SVGID_11_)" d="M741.704,1418.618c-1.588-0.062-3.035-2.497-2.234-3.815c0.692-1.138,2.189-0.942,2.113-2.616
				c0.454-0.203,1.786-0.004,1.854-0.62c0.096-0.9-2.699-2.016-3.349-2.62c-1.464-1.371-0.758-2.524,0.87-2.893
				c1.344-0.303,1.141-0.927,1.786-1.988c0.451-0.747,2.636-1.9,3.117-0.575c0.668-0.728,1.149-1.203,2-1.604
				c0.587-0.28,1.213-0.361,1.463-0.816c0.409-0.751-0.163-1.796,0.668-2.601c1.192-1.156,3.9-1.019,5.445-1.249
				c-1.183-0.701-3.126-0.762-1.839-2.13c0.486-0.513,1.133-0.479,1.387-1.088c0.2-0.482-0.072-1.111-0.055-1.605
				c0.049-1.528,0.411-0.693,1.272-1.663c0.612-0.682,0.098-1.176,1.162-1.789c0.8-0.46,1.708-0.46,2.592-0.579
				c-0.12-0.406-0.376-0.77-0.426-1.191c1.126-0.165,2.101-0.288,3.185-0.605c0.11-0.758-0.409-1.896-0.18-2.597
				c0.261-0.796,3.773-1.735,3.704-0.678c-2.835-2.057,1.73-2.13,2.844-2.433c-0.019-0.866-0.817-1.528-0.167-2.306
				c1.176-1.402,2.235-0.161,3.277,0.28c0.514-1.448,2.864-1.425,3.914-0.678c0.877,0.624,1.424,1.804,1.466,2.904
				c1.011,0.44,2.573,0.582,3.461,1.184c0.867,0.59,0.401,1.061,0.864,1.693c0.658,0.915,1.964,0.437,2.684,1.398
				c0.53,0.708,0.417,1.586,0.135,2.39c1.207,0.628,2.704,0.054,2.766,1.992c0.03,0.981-0.195,0.694,0.421,1.46
				c0.231,0.287,0.609,0.543,0.813,0.881c0.161,0.26,0.231,0.77,0.373,0.954c0.155,0.203,0.062,0.498,0.309,0.685
				c0.487,0.376,2.271-0.199,2.823-0.207c1.231-0.023,1.25-0.077,1.576,1.057c0.528,1.839,0.691,3.344,2.487,4.631
				c0.566,0.407,2.731,1.364,2.196-0.317c0.129,1.834,1.149,4.478,2.196,6.037c0.584,0.869,1.64,0.999,2.28,1.692
				c0.361,0.387,0.375,0.827,0.521,1.291c0.248,0.781,0.438,0.958,0.806,1.717c0.473,0.977,0.108,1.299-0.24,2.201
				c-0.235,0.605-0.235,0.912-0.344,1.549c-0.274,1.574-1.594,2.283,0.126,3.531c0.783,0.566,1,0.08,1.354,1.138
				c0.405,1.194-0.643,1.847-0.472,2.946c0.26,1.674,2.804,0.812,2.592,3.229c-0.112,1.291-0.875,0.456,0.4,1.578
				c1.05,0.912,1.329,1.544,1.393,2.934c0.016,0.354-0.44,0.617-0.264,0.951c0.315,0.598,1.812,0.486,2.377,0.7
				c0.791,0.303,1.566,1.046,2.417,1.069c0.378,1.268-1.602,1.961-0.389,3.049c0.963,0.861,1.59,0.047,1.706,1.735
				c0.097,1.421-0.928,2.658-0.635,4.06c0.176,0.855,0.378,0.598,0.882,1.173c0.598,0.678,1.088,1.743,1.169,2.689
				c0.119,1.397-0.953,3.354-1.813,4.454c-0.392,0.498-1.083,0.824-0.843,1.518c1.359,0.119,3.544,0.911,3.73,2.471
				c0.172,1.455-1.17,2.712-1.595,4.053c-0.333,1.05-0.15,1.83-0.141,2.965c0.007,1.363-0.795,3.486-1.895,4.294
				c0.476,1.313-1.702,2.164-2.646,2.371c-1.147,0.241-2.573-0.054-3.667,0.36c-0.706,0.268-0.471,0.417-1.125,0.861
				c-1.344,0.916-3.418,0.75-4.965,0.908c-0.726,0.068-1.653,0.371-2.317,0.042c-0.98-0.49-1.14-1.755-1.205-2.735
				c0.031,0.088,0.048,0.177,0.051,0.272c-0.708,0.578-1.586,0.938-2.446,1.237c-1.035,0.359-3.302,1.287-4.386,1.092
				c-0.846-0.153-1.316-1.965-1.356-2.889c0.855,0.805,0.742,2.417-0.012,3.34c-1.4,1.717-3.65,0.671-5.316,0.146
				c-0.574-0.181-3.376-0.609-3.183-1.598c0.138-0.713,0.976-0.023,1.088,0.311c0.451,1.359-3.439,3.179-4.684,3.109
				c-1.11-0.064-3.259-2.076-3.125-3.401c-1.394-0.321-3.079,0.724-4.427-0.054c-0.734-0.421-1.216-1.375-1.551-2.083
				c0.383,2.026-2.863,3.252-4.451,3.041c-1.794-0.233-3.732-1.67-4.563-3.226c-0.217,0.97,0.243,1.689-0.263,2.709
				c-1.193,2.401-4.227,2.359-6.571,2.42c-1.257,0.035-1.822-0.16-2.861-0.742c-0.47-0.265-1.138-1.065-1.597-1.223
				c-0.23-0.08-0.527,0.135-0.761,0.085c-1.22-0.269-2.863-0.288-4.115-0.524c-1.91-0.364-5.67-0.445-6.91-2.287
				c-0.22-0.326-0.86-1.739-0.186-1.942c0.825-0.245,0.901,1.815,0.691,2.222c-0.512,0.988-3.896,1.686-5.046,1.51
				c-1.795-0.27-3.565-2.735-4.45-4.164c-0.237-0.383-0.923-1.269-0.779-1.789c0.239-0.877,2.55-0.751,2.024-2.008
				c-0.291-0.701-2.277-0.877-2.876-1.194c-1.53-0.813-2.337-2.498-2.985-4.022c-1.226-2.881-0.626-5.949,2.603-7.248
				c-1.165-0.547-2.704-0.275-3.946-0.608c-1.859-0.49-4.115-1.257-5.11-2.973c-1.516-2.616,2.311-4.657,4.609-5.019
				c-1.844-1.57-5.272-1.386-4.611-4.615c0.425-2.072,3.312-2.965,5.142-2.746c-0.366-0.912-1-1.188-1.092-2.261
				c0.826-0.479,2.209,0.311,3.042,0.647c1.071-1.061,0.398-2.359,1.144-3.551c0.564-0.903,1.212-1.188,2.201-0.946
				c1.922,0.464,3.668,1.862,5.63,2.409c-0.693-1.264-2.648-1.26-2.156-3.302c0.19-0.8,1.459-1.773,2.208-2.21
				c0.974-0.566,2.121-1.142,3.156-0.724c0.499,0.203,0.646,0.704,1.242,0.77c0.622,0.069,1.181-0.349,1.699-0.57
				c-0.098-0.111-0.177-0.265-0.286-0.384c0.113-0.164,0.285-0.919,0.43-0.996c0.61-0.317,0.692,0.43,1.279,0.296
				c0.841-0.188,0.808-1.878,2.05-1.314"/>
			<path opacity="0.6" fill="#286A37" d="M768.124,1450.707c0.185,1.145,0.253,1.766-0.456,2.746
				c-0.472,0.647-1.192,1.625-1.708,0.517c-0.999,1.241-1.445,2.392-2.979,3.226c-1.163,0.632-2.429,0.828-3.703,1.172
				c-0.479-0.658-1.079-1.279-0.312-1.742c-0.073,1.054-1.526,1.318-1.544-0.069c0.046,0.195,0.03,0.41,0.077,0.602
				c-0.57,0.384-1.297,0.479-1.965,0.514c-0.561-1.034-0.777-2.257-0.808-3.425c0.29-0.104,0.457-0.096,0.754-0.058
				c0.029,0.269,0.131,0.595,0.095,0.861c-0.067-0.64-0.112-1.278-0.215-1.919c-1.341,0.157-3.16,2.173-4.43,2.042
				c0.977,3.106-2.998,1.839-1.817,0.636c2.139,1.773-2.993,3.395-2.736,1.314c1.472,1.708-1.604,3.776-1.613,1.176
				c0.077,0.805,0.142,1.655-0.068,2.437c-1.07,0.164-1.736-1.081-2.805-1.211c-1.46-0.173-3.46,0.735-4.956,0.978
				c-1.021-1.732,2.143-1.326,0.185-2.797c-0.489-0.367-2.333,0.092-0.842-1.498c-1.03-0.199-3.432,0.996-3.161,2.03
				c1.079-0.827-0.338-1.003-0.603-1.62c-0.294-0.682-0.268-1.57-0.083-2.26c-0.949-0.05-1.995,0.072-2.435,1.02
				c1.094,1.328,3.272,1.898,4.176,3.221c-0.769,0.451-1.832,0.475-2.415,1.156c0.05-0.053-0.703,1.881-0.688,1.717
				c-0.11,1.141,1.567,3.397,2.488,1.938c-0.361,2.518,2.989-0.199,3.53-0.885c0.252,0.809-0.105,2.812,0.837,3.341
				c1.346,0.751,2.108-1.644,3.538-1.524c0.351,2.922,3.04,0.72,4.046-0.311c0.141,0.98-0.146,1.869,0.755,2.348
				c1.275,0.675,2.442-0.919,2.544-2.014c0.187,2.481,0.759,3.42,3.099,1.788c1.091,3.321,5.208,0.686,6.71-0.835
				c0.102,0.743,0.123,1.528,0.281,2.24c1.372,0.25,1.656-1.328,1.901-2.328c0.669,0.471,0.82,1.176,1.646,1.215
				c1.273,0.068,2.166-1.736,2.22-2.836c1.233,1.536,3.118,0.988,2.955-1.106c0.1,0.222,0.304,0.425,0.384,0.56
				c-0.067-0.479-0.461-1.805-0.256-2.233c0.25-0.524,1.127-0.391,1.586-0.763c1.468-1.191,0.152-1.674-0.303-3.164
				c1.527-0.402,0.488-2.593-0.357-3.367c0.408-0.716,1.373-1.141,2.067-1.62c-0.313-1.118-1.945-1.233-2.939-1.329"/>
			<path opacity="0.4" fill="#286A37" d="M768.909,1432.545c2.375,0.854,2.785,4.991,3.789,0.49c2.005,1.44,3.435,2.708,4.217-0.628
				c-0.046,0.452,0.165,1.008,0.222,1.425c1.023,0.146,1.09-1.106,1.25-1.812c0.382,0.755,1.002,1.303,1.576,1.904
				c2.069-0.702,3.1-2.974,4.088-4.762c0.532,0.395,1.034,1.041,1.742,0.857c0.107-0.686-0.181-1.322-0.816-1.625
				c1.895,2.307,2.954-0.114,2.793-2.06c1.028,0.349,2.076,0.287,3.137,0.173c0.206-0.824,0.751-2.283-0.52-2.479
				c1.348,1.344,3.609,0.984,5.366,0.719c0.061-0.505-0.005-1.064-0.188-1.535c-0.24,0-0.658-0.15-0.877-0.123
				c2.41-1.137,3.116-2.75,0.042-3.091c1.261-0.966,2.948-1.207,4.121-2.353c-0.571-0.738-1.956-0.379-2.831-0.417
				c2.706-0.138,2.595-0.862,2.549-2.485c-0.003-0.119-0.308-0.261-0.297-0.457c0.029-0.57,0.664-0.846,0.79-1.413
				c0.155-0.693,0.703-1.632-0.825-1.271c0.5-0.038,0.809-0.392,1.139-0.571c-2.343-0.773,0.002-1.359-0.416-2.712
				c-0.194-0.624-1.459-0.605-1.965-0.904c-0.244-0.145,0.125-0.67-0.22-0.88c-0.381-0.234-1.058-0.211-1.492-0.338
				c1.624-1.191,3.358-0.068,4.285,0.873c1.664,1.697,2.443,3.742,0.9,6.076c0.505-0.004,1.177-0.031,1.702,0.088
				c0.17,0.904,0.438,2.137,0.189,3.007c1.344,0.234,1.164,2.678,0.294,3.057c0.485-0.728,1.307-1.394,2.168-1.386
				c0.356,1.113-0.229,2.592-1.174,3.205c0.166,0.552,0.519,2,0.845,2.433c0.533,0.705,0.689,0.556,1.805,0.974
				c2.955,1.109,1.006,3.057-0.786,4.615c-0.216-0.628-0.038-0.624,0.678-0.678c0.39,1.827,0.259,2.693-2.064,2.98
				c-1.363,0.168-2.981-0.881-3.133-2.582c1.283,2.742,0.707,5.198-2.103,6.631c-0.946,0.482-4.604,1.949-5.222,0.563
				c1.129,2.138,2.114,3.015-0.923,3.73c-0.832,0.2-2.629,0.828-3.144,0.1c0.62,3.797-4.24,5.332-7.457,5.21
				c-0.145-0.295-0.193-0.785-0.113-1.106c0.715-0.326,1.088-0.055,1.406,0.62c0.761,1.612-3.398,3.379-4.532,3.865
				c-0.929,0.401-1.251,0.793-2.101,0.157c-0.432-0.322-1.101-1.928-0.833-2.463c0.991-1.984,3.025,1.03,1.47,2.428
				c-1.659,1.486-3.149,0.004-4.102-1.328c0.566-0.959,1.887-1.668,2.87-2.314c-1.328,0.115-4.994,2.819-6.074,1.977
				c-0.982-0.766,1.271-2.237,1.413-2.965c-1.899-1.598-2.507-0.433-2.7-3.019c0.227-0.062,0.451-0.203,0.715-0.215
				c0.032-0.091,0.045-0.188,0.044-0.283c-1.55-0.735-3.042,0.185-2.118-2.03c-3.04,0.375-0.078-1.927-0.134-2.563
				c-0.055-0.624-0.737-0.693-1.03-1.279c-0.152-0.311-0.136-1.088-0.14-1.437c-0.064-4.336,3.152,1.046,3.809-0.548"/>
			<path opacity="0.2" fill="#D8E028" d="M767.181,1437.625c-0.674-1.479,0.667-4.033-0.024-5.063
				c-0.685-1.016-1.526-0.073-2.335-0.421c-0.898-0.388-0.804-0.866-1.369-1.299c-0.743-0.571-1.298-1.514-2.222-1.816
				c-0.69-0.226-1.751,0.663-2.334-0.004c-0.76-0.865,2.229-4.734-1.025-3.474c-1.298-2.391-0.378-5.776-4.676-4.015
				c-0.607-1.602-2.958-1.199-3.625,0.119c-1.73-2.893-4.256-3.436-5.848,0.195c-1.488-2.072-4.66-2.586-6.615-0.479
				c-0.263-0.229-0.846-0.375-1.121-0.659c-0.799,0.687-1.16,1.686-1.127,2.721c-2.945-0.549-2.135,0.188-4.275,1.172
				c-0.167,0.076-1.276-0.697-1.886-0.295c-1.038,0.689-0.032,2.51-1.738,2.678c-0.152,0.988-0.526,1.949-0.766,2.896
				c1.296,0.21,4.326,0.383,4.466-0.518c-1.683,1.724,0.7,2.436,0.334,4.248c0.583-1.406,1.406-2.689,2.204-3.977
				c0.388,1.919-0.47,3.693-0.438,5.589c1.47-1.126,2.01-3.501,3.861-4.226c0.441,1.088,0.556,2.455,0.206,3.51
				c0.177-0.671,0.51-1.131,0.783-1.751c0.243,0.946,0.261,2.16,0.441,3.206c0.129,0.042,0.259,0.072,0.393,0.092
				c0.714-1.195,1.168-2.597,2.071-3.692c0.682,1.245,0.391,2.517-1.177,2.452c0.241,0.008,0.92,0.271,1.295,0.31
				c-0.025,0.517,0.361,1.268,0.298,1.796c1.079-0.244,1.84-1.184,2.648-1.803c0.849,1.19,0.74,3.057,0.78,4.531
				c1.046-1.95,2.704-4.299,3.14-6.501c0.083,1.429,0.313,2.854,0.354,4.286c0.783-0.736,1.243-1.742,1.402-2.796
				c0.122,1.378,0.244,2.77,0.443,4.133c0.837-0.613,1.32-2.302,1.167-3.313c-0.396,0.957-1.617,6.324,0.994,5.313
				c1.447-0.556,1.58-4.341,1.419-5.501c0.87,1.026,1.755,2.168,2.872,2.896c0.35-1.188,0.565-2.406,0.548-3.643
				c0.891,0.85,0.706,1.915,1.226,2.972c0.555,1.13,1.625,1.869,1.921,3.134c-0.108-0.874-0.203-1.748-0.281-2.621
				c0.179,1.667-0.139,4.789,1.774,5.391c0.637-1.154,1.215-2.379,1.663-3.586c0.641,1.409-0.055,3.7,1.341,4.619
				c0.676-1.451,0.671-2.991,0.765-4.6c0.987,0.303,1.637,1.252,2.298,2.088c-0.409-1.861,0.738-5.325,2.095-6.597"/>
			<path opacity="0.2" fill="#D8E028" d="M778.932,1383.583c2.23,0.728,4.065,3.019,3.944,5.413
				c-0.198-0.142-0.451-0.203-0.658-0.402c0.724,0.56,1.425,1.754,0.534,2.413c0.408,0.387,1.229,0.533,1.717,1.05
				c-0.725,0.08-1.457,0.149-2.183,0.222c0.756-0.073,2.235-0.56,2.879-0.092c1.266,0.915,0.354,2.865-0.677,3.474
				c-1.035,0.613-3.761,0.946-3.754-0.793c0.732,0.233,1.411,0.904,1.671,1.548c-2.221,0.973-4.593,0.509-4.322-2.195
				c1.668-0.134,1.8,2.237,0.382,2.88c-1.737,0.793-3.86-0.011-5.283-0.888c3.166,2.03-5.177,7.63-7.348,4.983
				c0.212-0.352,0.37-0.524,0.742-0.693c-0.186,0.991-2.066,1.256-3.121,1.39c-0.363-0.479-0.449-1.08-0.489-1.686
				c0.768-0.766,0.844-2.179,1.427-3.263c0.047,0.758-0.534,1.352-1.259,1.394c-0.044-0.157-0.03-0.295-0.076-0.455
				c-0.795,0.298-1.736,0.674-2.531,0.907c-0.761,0.215-2.31,1.076-3.056,0.938c-1.356-0.252-1.835-1.846-0.888-2.589
				c0.737-0.578,2.373-0.578,3.198-0.253c-0.667-0.046-1.313-0.471-1.729-0.923c0.525-0.41,1.966-0.498,2.321-1.039
				c0.694-1.041-0.646-0.555-1.239-0.873c-1.036-0.551-0.882,0.031-0.594-1.467c0.146-0.75,1.357-2.789,2.102-2.941
				c-0.052,0.176-0.174,0.283-0.364,0.318c-1.313-1.617,1.985-3.286,3.277-2.578c-0.061-0.583-0.153-1.195-0.129-1.747
				c0.59-0.069,0.799-0.168,1.2,0.142c-0.264-1.292,1.673-3.1,1.954-1.606c-0.458,0.208-1.052,0.253-1.418-0.103
				c-1.363-1.314,1.033-2.264,1.929-2.693c2.908-1.398,3.782-1.708,5.398,1.069c-0.158-1.298-1.128-6.362,2.021-4.167
				c0.982,0.682,0.353,1.226,1.1,1.969c1.158,1.149,2.378,0.042,2.788,2.263c0.013-0.022,0.143-0.271,0.201-0.394
				c0.029,0.54,0.121,1.129,0.348,1.616"/>
			<path fill="#44B64D" d="M812.325,1438.246c-0.352-0.544-0.521-1.287-0.539-1.912c-1.002,0.043-2.013,0.203-3.009,0.265
				c0.179-0.44,0.752-2.275,0.682-2.728c-0.153-0.977-1.364-1.777-2.006-0.398c-0.271-1.191-0.109-1.923-1.395-2.264
				c-0.926-0.245-2.79,0.521-2.969,1.447c-0.13-0.762-0.159-1.52,0.125-2.229c-1.333-0.49-3.653,1.646-3.922,2.953
				c-0.16-2.072-0.081-2.325-2.204-1.941c-0.176,0.029-1.018,0.375-1.193,0.437c-0.674,0.233-0.998-0.073-1.734,0.501
				c-0.437,0.338-0.629,1.008-1.111,1.38c-0.29-0.874-0.197-1.931,0.247-2.773c-1.091,0.574-2.036,1.987-1.637,3.263
				c-0.006-0.26-0.042-0.521-0.064-0.781c-1.353-0.249-3.389,1.652-4.494,2.279c-1.16,0.659-2.285,1.391-3.624,1.518
				c0.04,0.164,0.149,0.237,0.333,0.211c-0.002,0.206-0.197,0.417-0.107,0.734c-0.942-0.49-2.8-0.517-2.155,1.02
				c-1.113,0.375-3.847,1.75-4.374,3.068c-0.278,0.697-0.359,1.566,0.716,1.237c0.044-0.233,0.007-0.51-0.045-0.739
				c-1.641-0.475-2.063,1.823-2.194,2.961c-0.086-0.751,0.259-1.44,0.911-1.835c0.349,0.969-0.847,2.31-1.185,3.349
				c-0.225,0.688-0.273,1.408-0.606,2.087c0.987-1.376,1.399-0.149,2.225,0.528c0.966-1.237,1.218-2.983,2.053-4.324
				c0.743,0.54,0.706,1.486,1.001,2.302c0.235-0.784,0.807-1.616,0.873-2.486c0.399,0.679-0.172,1.667,0.114,2.468
				c1.115-0.111,1.038-2.395,2.465-2.728c0.281,0.892,0.67,1.903,1.437,2.532c0.711-0.506,3.348-3.092,2.74-3.873
				c-0.235,0.502-0.119,1.008,0.265,1.402c1.561,1.589,4.416-1.104,5.445-1.848c0.841-0.601,1.07-1.198,1.274-2.374
				c0.976,0.314,2.162,0.616,2.77,1.498c-1.609-1.491,0.544-2.222,1.822-2.271c0.27,0.682,0.283,1.459,0.346,2.194
				c-0.254-0.843,0.605-1.348,1.381-1.256c0.119,0.574,0.144,1.172,0.216,1.758c0.969-1.544,3.151-0.721,2.109,0.813
				c0.04-0.824,1.035-1.237,1.9-1.188c0.258,0.658,0.305,1.409,0.285,2.114c0.904-3.505,4.958-2.184,3.123,0.165
				c0.547,0.061,1.207,0.275,1.563,0.728c-0.616,0.245-0.991,0.716-1.024,1.341c1.178,0.252,3.456,0.156,4.074-0.885
				c0.717-1.203,0.265-2.264,1.889-3.134c-0.866-0.188-0.667-0.771-1.041-1.088c-0.146-0.122-1.067-0.598-1.165-0.793
				c-0.579-1.134,0.28-0.414,0.324-1.138c0.043-0.67-0.125-1.429-0.192-2.1"/>
		</g>
		<g>
			
				<radialGradient id="SVGID_12_" cx="1070.6992" cy="1241.5381" r="39.5153" gradientTransform="matrix(0.9949 -0.1011 0.1002 0.9854 -132.2294 206.7406)" gradientUnits="userSpaceOnUse">
				<stop  offset="0" style="stop-color:#ABD037"/>
				<stop  offset="0.1111" style="stop-color:#9ECC3B"/>
				<stop  offset="0.5073" style="stop-color:#72BF44"/>
				<stop  offset="0.817" style="stop-color:#4FB849"/>
				<stop  offset="1" style="stop-color:#3DB54A"/>
			</radialGradient>
			<path fill="url(#SVGID_12_)" d="M1048.837,1335.508c-0.874-0.035-1.671-1.375-1.23-2.1c0.381-0.627,1.206-0.521,1.163-1.443
				c0.25-0.111,0.984,0,1.021-0.341c0.053-0.495-1.486-1.107-1.845-1.441c-0.806-0.754-0.417-1.39,0.479-1.593
				c0.739-0.168,0.629-0.509,0.984-1.096c0.248-0.41,1.451-1.045,1.715-0.313c0.368-0.403,0.634-0.667,1.102-0.885
				c0.324-0.153,0.668-0.199,0.807-0.452c0.225-0.41-0.09-0.988,0.367-1.428c0.657-0.64,2.148-0.563,2.999-0.69
				c-0.651-0.387-1.721-0.421-1.013-1.172c0.268-0.284,0.625-0.265,0.764-0.598c0.111-0.268-0.039-0.613-0.029-0.889
				c0.026-0.839,0.226-0.379,0.701-0.912c0.337-0.379,0.053-0.647,0.639-0.985c0.44-0.252,0.941-0.252,1.428-0.321
				c-0.065-0.223-0.207-0.421-0.234-0.655c0.62-0.092,1.156-0.157,1.754-0.333c0.061-0.417-0.225-1.042-0.099-1.429
				c0.142-0.44,2.077-0.958,2.039-0.375c-1.562-1.134,0.953-1.172,1.566-1.336c-0.011-0.479-0.45-0.843-0.093-1.272
				c0.648-0.77,1.23-0.088,1.805,0.153c0.283-0.796,1.578-0.785,2.156-0.371c0.483,0.345,0.783,0.992,0.807,1.597
				c0.557,0.242,1.417,0.322,1.906,0.655c0.478,0.322,0.221,0.582,0.476,0.931c0.362,0.501,1.082,0.237,1.478,0.77
				c0.293,0.387,0.229,0.873,0.075,1.314c0.664,0.344,1.489,0.03,1.522,1.099c0.016,0.54-0.107,0.383,0.231,0.804
				c0.128,0.158,0.336,0.299,0.447,0.483c0.089,0.146,0.128,0.425,0.206,0.525c0.085,0.111,0.034,0.276,0.17,0.379
				c0.269,0.207,1.251-0.111,1.555-0.115c0.678-0.011,0.689-0.042,0.867,0.583c0.291,1.011,0.382,1.842,1.371,2.551
				c0.311,0.226,1.504,0.751,1.209-0.176c0.071,1.012,0.633,2.467,1.209,3.326c0.322,0.478,0.902,0.551,1.256,0.934
				c0.198,0.211,0.206,0.452,0.287,0.708c0.137,0.433,0.241,0.529,0.443,0.946c0.26,0.536,0.06,0.716-0.133,1.21
				c-0.129,0.334-0.129,0.503-0.189,0.855c-0.15,0.866-0.878,1.256,0.07,1.946c0.43,0.31,0.55,0.042,0.746,0.624
				c0.223,0.659-0.354,1.019-0.26,1.624c0.143,0.92,1.544,0.449,1.427,1.778c-0.062,0.708-0.481,0.252,0.222,0.87
				c0.578,0.502,0.73,0.85,0.766,1.616c0.01,0.191-0.242,0.337-0.145,0.521c0.174,0.33,0.996,0.268,1.309,0.387
				c0.436,0.165,0.862,0.575,1.332,0.59c0.206,0.697-0.884,1.076-0.215,1.678c0.529,0.475,0.875,0.027,0.939,0.958
				c0.053,0.781-0.512,1.463-0.351,2.233c0.098,0.471,0.208,0.33,0.486,0.648c0.329,0.371,0.6,0.957,0.644,1.478
				c0.065,0.77-0.525,1.85-0.999,2.455c-0.216,0.272-0.596,0.453-0.463,0.835c0.747,0.065,1.951,0.502,2.054,1.36
				c0.094,0.8-0.645,1.494-0.879,2.229c-0.184,0.578-0.083,1.011-0.078,1.635c0.004,0.751-0.438,1.919-1.043,2.364
				c0.262,0.724-0.938,1.195-1.457,1.306c-0.632,0.134-1.418-0.027-2.019,0.199c-0.39,0.146-0.261,0.23-0.62,0.475
				c-0.741,0.501-1.883,0.414-2.734,0.498c-0.4,0.038-0.911,0.207-1.277,0.023c-0.539-0.268-0.627-0.965-0.663-1.505
				c0.019,0.05,0.026,0.1,0.028,0.149c-0.391,0.322-0.873,0.517-1.348,0.682c-0.57,0.199-1.818,0.709-2.415,0.602
				c-0.466-0.084-0.725-1.084-0.746-1.589c0.47,0.444,0.407,1.333-0.008,1.838c-0.771,0.946-2.01,0.368-2.928,0.081
				c-0.316-0.1-1.859-0.337-1.753-0.881c0.077-0.391,0.537-0.012,0.6,0.173c0.248,0.747-1.894,1.75-2.579,1.712
				c-0.611-0.035-1.794-1.146-1.722-1.873c-0.767-0.176-1.694,0.398-2.438-0.031c-0.404-0.229-0.67-0.755-0.854-1.146
				c0.211,1.115-1.577,1.789-2.451,1.674c-0.988-0.13-2.057-0.919-2.514-1.773c-0.119,0.532,0.133,0.927-0.145,1.49
				c-0.657,1.321-2.327,1.298-3.619,1.333c-0.691,0.019-1.003-0.088-1.575-0.41c-0.259-0.146-0.627-0.586-0.88-0.674
				c-0.127-0.042-0.289,0.073-0.419,0.046c-0.672-0.146-1.576-0.157-2.266-0.287c-1.052-0.2-3.122-0.246-3.805-1.26
				c-0.122-0.177-0.475-0.958-0.103-1.068c0.453-0.134,0.496,0.999,0.38,1.222c-0.281,0.544-2.146,0.927-2.778,0.831
				c-0.989-0.146-1.965-1.505-2.451-2.291c-0.13-0.21-0.508-0.7-0.429-0.988c0.132-0.479,1.404-0.41,1.114-1.104
				c-0.16-0.386-1.254-0.482-1.584-0.658c-0.842-0.448-1.287-1.375-1.644-2.214c-0.675-1.586-0.345-3.275,1.433-3.991
				c-0.641-0.303-1.487-0.154-2.172-0.333c-1.024-0.272-2.267-0.693-2.815-1.64c-0.834-1.44,1.272-2.563,2.539-2.762
				c-1.017-0.866-2.904-0.767-2.54-2.543c0.234-1.142,1.824-1.632,2.832-1.509c-0.202-0.506-0.551-0.655-0.602-1.249
				c0.455-0.261,1.217,0.172,1.676,0.36c0.59-0.586,0.22-1.303,0.63-1.958c0.311-0.498,0.668-0.651,1.213-0.521
				c1.058,0.253,2.02,1.026,3.1,1.325c-0.381-0.693-1.458-0.693-1.188-1.816c0.105-0.44,0.804-0.977,1.216-1.217
				c0.537-0.314,1.169-0.628,1.738-0.399c0.275,0.111,0.355,0.387,0.685,0.421c0.343,0.039,0.65-0.188,0.936-0.314
				c-0.054-0.058-0.098-0.146-0.158-0.211c0.063-0.088,0.157-0.505,0.237-0.547c0.336-0.176,0.382,0.237,0.705,0.161
				c0.462-0.104,0.444-1.03,1.129-0.724"/>
			<path opacity="0.6" fill="#286A37" d="M1063.387,1353.178c0.102,0.632,0.139,0.973-0.253,1.513
				c-0.259,0.356-0.655,0.892-0.939,0.284c-0.55,0.686-0.796,1.317-1.641,1.777c-0.641,0.349-1.339,0.456-2.039,0.647
				c-0.265-0.364-0.595-0.705-0.171-0.961c-0.041,0.578-0.842,0.724-0.851-0.039c0.025,0.107,0.016,0.226,0.042,0.333
				c-0.314,0.211-0.713,0.261-1.082,0.28c-0.309-0.567-0.429-1.241-0.445-1.884c0.16-0.058,0.252-0.055,0.416-0.031
				c0.017,0.146,0.072,0.326,0.053,0.476c-0.037-0.353-0.063-0.706-0.119-1.057c-0.738,0.088-1.739,1.194-2.439,1.125
				c0.537,1.708-1.65,1.012-1.001,0.349c1.178,0.977-1.647,1.869-1.506,0.724c0.811,0.938-0.885,2.076-0.89,0.647
				c0.043,0.444,0.078,0.912-0.037,1.341c-0.59,0.087-0.956-0.594-1.545-0.667c-0.805-0.096-1.904,0.406-2.729,0.536
				c-0.562-0.949,1.18-0.728,0.103-1.54c-0.27-0.203-1.285,0.053-0.465-0.823c-0.567-0.107-1.889,0.547-1.741,1.118
				c0.596-0.456-0.186-0.551-0.331-0.893c-0.161-0.375-0.147-0.866-0.046-1.245c-0.522-0.027-1.099,0.038-1.341,0.563
				c0.603,0.731,1.802,1.045,2.3,1.773c-0.423,0.249-1.009,0.261-1.329,0.636c0.026-0.031-0.387,1.035-0.379,0.946
				c-0.061,0.628,0.862,1.87,1.37,1.065c-0.2,1.386,1.646-0.111,1.944-0.486c0.139,0.444-0.06,1.547,0.46,1.838
				c0.742,0.414,1.162-0.904,1.948-0.839c0.194,1.613,1.675,0.398,2.229-0.168c0.078,0.536-0.08,1.026,0.416,1.291
				c0.702,0.372,1.345-0.505,1.4-1.111c0.104,1.368,0.418,1.884,1.707,0.988c0.602,1.827,2.869,0.375,3.695-0.46
				c0.056,0.406,0.068,0.839,0.154,1.233c0.756,0.138,0.913-0.731,1.048-1.283c0.369,0.257,0.451,0.647,0.906,0.67
				c0.702,0.035,1.193-0.958,1.223-1.563c0.679,0.846,1.718,0.544,1.627-0.609c0.056,0.123,0.168,0.234,0.212,0.306
				c-0.036-0.265-0.254-0.992-0.141-1.229c0.138-0.287,0.621-0.214,0.874-0.417c0.808-0.659,0.083-0.923-0.168-1.743
				c0.841-0.222,0.27-1.429-0.196-1.854c0.225-0.394,0.756-0.628,1.138-0.892c-0.172-0.617-1.07-0.678-1.618-0.732"/>
			<path opacity="0.4" fill="#286A37" d="M1063.818,1343.181c1.308,0.467,1.533,2.747,2.086,0.268
				c1.104,0.793,1.893,1.49,2.322-0.345c-0.024,0.25,0.092,0.556,0.123,0.786c0.563,0.081,0.601-0.609,0.688-1
				c0.211,0.414,0.553,0.716,0.868,1.05c1.14-0.387,1.707-1.64,2.251-2.624c0.293,0.218,0.57,0.574,0.96,0.475
				c0.059-0.379-0.101-0.728-0.449-0.896c1.043,1.271,1.626-0.062,1.537-1.134c0.567,0.191,1.144,0.156,1.728,0.095
				c0.114-0.456,0.414-1.26-0.285-1.368c0.742,0.744,1.988,0.544,2.955,0.398c0.033-0.279-0.004-0.586-0.104-0.847
				c-0.133,0-0.362-0.08-0.482-0.068c1.327-0.625,1.716-1.513,0.022-1.701c0.694-0.532,1.624-0.663,2.27-1.294
				c-0.314-0.406-1.077-0.211-1.559-0.23c1.49-0.077,1.43-0.475,1.404-1.368c-0.003-0.069-0.17-0.145-0.163-0.253
				c0.016-0.314,0.364-0.467,0.435-0.778c0.085-0.382,0.387-0.9-0.455-0.7c0.275-0.023,0.445-0.215,0.627-0.314
				c-1.289-0.429,0.001-0.747-0.229-1.494c-0.107-0.345-0.804-0.333-1.082-0.498c-0.135-0.081,0.068-0.372-0.122-0.487
				c-0.209-0.126-0.583-0.115-0.821-0.184c0.895-0.655,1.85-0.038,2.359,0.479c0.916,0.935,1.346,2.065,0.496,3.348
				c0.277-0.004,0.647-0.019,0.937,0.05c0.095,0.494,0.241,1.176,0.104,1.655c0.74,0.126,0.641,1.471,0.162,1.682
				c0.267-0.398,0.719-0.766,1.194-0.762c0.194,0.613-0.126,1.429-0.647,1.766c0.092,0.303,0.285,1.1,0.465,1.337
				c0.294,0.39,0.381,0.307,0.994,0.54c1.628,0.609,0.555,1.682-0.432,2.54c-0.119-0.349-0.021-0.345,0.372-0.376
				c0.215,1.008,0.143,1.487-1.137,1.644c-0.751,0.092-1.643-0.486-1.726-1.421c0.707,1.509,0.39,2.861-1.158,3.65
				c-0.52,0.264-2.533,1.073-2.874,0.31c0.62,1.176,1.164,1.659-0.509,2.057c-0.458,0.108-1.447,0.452-1.731,0.054
				c0.341,2.088-2.335,2.934-4.106,2.866c-0.079-0.161-0.105-0.429-0.063-0.609c0.394-0.18,0.6-0.027,0.774,0.341
				c0.419,0.889-1.872,1.861-2.495,2.13c-0.512,0.222-0.689,0.437-1.157,0.088c-0.237-0.18-0.606-1.061-0.459-1.356
				c0.546-1.091,1.666,0.567,0.811,1.336c-0.914,0.82-1.734,0-2.259-0.731c0.313-0.528,1.039-0.919,1.58-1.275
				c-0.731,0.065-2.749,1.555-3.345,1.088c-0.541-0.421,0.7-1.229,0.778-1.632c-1.046-0.877-1.381-0.238-1.486-1.662
				c0.125-0.035,0.247-0.111,0.394-0.119c0.017-0.05,0.024-0.104,0.024-0.157c-0.854-0.402-1.675,0.103-1.166-1.119
				c-1.674,0.21-0.044-1.061-0.074-1.41c-0.03-0.345-0.406-0.379-0.566-0.705c-0.085-0.169-0.076-0.598-0.078-0.789
				c-0.035-2.391,1.736,0.574,2.098-0.303"/>
			<path opacity="0.2" fill="#D8E028" d="M1062.867,1345.977c-0.372-0.815,0.367-2.221-0.014-2.789
				c-0.378-0.563-0.84-0.042-1.286-0.234c-0.495-0.214-0.442-0.475-0.753-0.712c-0.41-0.314-0.715-0.835-1.225-1.004
				c-0.38-0.123-0.964,0.368-1.285,0c-0.418-0.479,1.227-2.608-0.565-1.915c-0.714-1.314-0.208-3.179-2.575-2.21
				c-0.335-0.881-1.628-0.659-1.996,0.065c-0.952-1.594-2.343-1.893-3.221,0.107c-0.818-1.138-2.566-1.425-3.643-0.26
				c-0.145-0.13-0.465-0.207-0.617-0.364c-0.439,0.375-0.639,0.927-0.619,1.498c-1.623-0.303-1.177,0.104-2.355,0.643
				c-0.092,0.046-0.703-0.382-1.038-0.161c-0.571,0.379-0.019,1.383-0.958,1.475c-0.083,0.543-0.289,1.072-0.421,1.593
				c0.713,0.115,2.383,0.211,2.459-0.283c-0.926,0.95,0.386,1.34,0.184,2.337c0.321-0.77,0.774-1.479,1.214-2.188
				c0.214,1.058-0.259,2.035-0.24,3.076c0.809-0.621,1.105-1.927,2.126-2.325c0.241,0.601,0.307,1.352,0.113,1.935
				c0.097-0.372,0.281-0.625,0.431-0.965c0.134,0.521,0.145,1.188,0.244,1.766c0.07,0.023,0.143,0.039,0.216,0.05
				c0.393-0.659,0.643-1.433,1.14-2.034c0.376,0.687,0.216,1.387-0.646,1.353c0.132,0.004,0.505,0.149,0.712,0.168
				c-0.014,0.284,0.199,0.701,0.165,0.989c0.593-0.134,1.013-0.651,1.457-0.992c0.468,0.655,0.408,1.681,0.43,2.493
				c0.576-1.073,1.489-2.363,1.729-3.578c0.046,0.786,0.174,1.571,0.195,2.359c0.431-0.402,0.686-0.958,0.772-1.54
				c0.068,0.758,0.134,1.524,0.244,2.275c0.461-0.337,0.727-1.268,0.643-1.823c-0.219,0.529-0.892,3.482,0.548,2.926
				c0.796-0.307,0.869-2.39,0.781-3.03c0.479,0.563,0.967,1.195,1.581,1.593c0.193-0.651,0.312-1.321,0.303-2.003
				c0.49,0.467,0.389,1.053,0.675,1.635c0.306,0.621,0.895,1.031,1.058,1.724c-0.06-0.479-0.111-0.961-0.154-1.44
				c0.098,0.919-0.076,2.635,0.977,2.965c0.351-0.632,0.668-1.306,0.916-1.973c0.352,0.778-0.031,2.038,0.737,2.543
				c0.373-0.801,0.37-1.647,0.422-2.532c0.544,0.165,0.901,0.689,1.266,1.149c-0.225-1.026,0.406-2.934,1.153-3.631"/>
			<path opacity="0.2" fill="#D8E028" d="M1069.338,1316.217c1.228,0.398,2.239,1.663,2.172,2.98
				c-0.109-0.081-0.249-0.111-0.363-0.223c0.399,0.307,0.785,0.966,0.295,1.33c0.225,0.214,0.676,0.291,0.945,0.578
				c-0.398,0.042-0.802,0.08-1.203,0.123c0.418-0.042,1.232-0.311,1.587-0.054c0.696,0.505,0.195,1.582-0.372,1.916
				c-0.57,0.337-2.072,0.521-2.068-0.437c0.403,0.127,0.777,0.498,0.92,0.854c-1.223,0.533-2.529,0.279-2.379-1.21
				c0.918-0.077,0.991,1.23,0.211,1.586c-0.957,0.437-2.127-0.008-2.91-0.49c1.743,1.118-2.851,4.202-4.046,2.742
				c0.116-0.191,0.203-0.287,0.408-0.379c-0.103,0.544-1.138,0.69-1.719,0.767c-0.2-0.265-0.247-0.594-0.27-0.932
				c0.422-0.417,0.466-1.199,0.786-1.796c0.025,0.421-0.294,0.747-0.693,0.77c-0.023-0.087-0.018-0.165-0.042-0.252
				c-0.438,0.165-0.956,0.372-1.395,0.501c-0.418,0.119-1.271,0.594-1.683,0.517c-0.746-0.142-1.01-1.019-0.488-1.429
				c0.405-0.318,1.307-0.318,1.761-0.138c-0.367-0.027-0.725-0.261-0.952-0.506c0.289-0.23,1.082-0.276,1.278-0.575
				c0.382-0.575-0.356-0.306-0.683-0.479c-0.571-0.306-0.486,0.016-0.328-0.808c0.081-0.418,0.748-1.536,1.158-1.621
				c-0.029,0.096-0.096,0.153-0.2,0.176c-0.723-0.893,1.093-1.812,1.804-1.421c-0.033-0.322-0.084-0.659-0.07-0.961
				c0.325-0.039,0.44-0.092,0.66,0.077c-0.145-0.708,0.922-1.705,1.076-0.885c-0.252,0.115-0.578,0.142-0.78-0.053
				c-0.751-0.724,0.568-1.249,1.062-1.486c1.602-0.77,2.083-0.938,2.974,0.59c-0.087-0.716-0.622-3.505,1.112-2.294
				c0.541,0.375,0.194,0.674,0.606,1.084c0.637,0.633,1.311,0.023,1.534,1.249c0.008-0.016,0.08-0.153,0.111-0.218
				c0.016,0.295,0.066,0.621,0.191,0.889"/>
			<path fill="#44B64D" d="M1087.727,1346.317c-0.193-0.299-0.287-0.708-0.297-1.053c-0.552,0.023-1.107,0.111-1.656,0.146
				c0.098-0.241,0.414-1.252,0.375-1.502c-0.084-0.536-0.751-0.98-1.104-0.222c-0.149-0.655-0.06-1.057-0.768-1.241
				c-0.511-0.138-1.536,0.283-1.635,0.796c-0.071-0.421-0.089-0.838,0.068-1.229c-0.733-0.269-2.012,0.908-2.16,1.628
				c-0.088-1.142-0.044-1.284-1.213-1.072c-0.097,0.019-0.562,0.207-0.657,0.241c-0.371,0.13-0.55-0.038-0.954,0.276
				c-0.242,0.188-0.347,0.555-0.613,0.758c-0.159-0.479-0.108-1.061,0.136-1.525c-0.601,0.314-1.121,1.096-0.901,1.797
				c-0.003-0.142-0.022-0.288-0.035-0.429c-0.744-0.138-1.865,0.908-2.475,1.252c-0.64,0.364-1.259,0.766-1.995,0.839
				c0.021,0.087,0.082,0.13,0.184,0.114c-0.002,0.115-0.108,0.23-0.06,0.403c-0.52-0.269-1.542-0.284-1.187,0.563
				c-0.613,0.206-2.118,0.961-2.41,1.688c-0.152,0.383-0.196,0.862,0.395,0.682c0.024-0.13,0.004-0.279-0.023-0.406
				c-0.904-0.264-1.137,1.003-1.209,1.628c-0.047-0.414,0.144-0.792,0.501-1.011c0.192,0.536-0.467,1.275-0.651,1.846
				c-0.124,0.379-0.152,0.774-0.335,1.149c0.544-0.758,0.771-0.083,1.226,0.292c0.532-0.682,0.671-1.643,1.131-2.382
				c0.41,0.298,0.389,0.82,0.551,1.268c0.13-0.433,0.445-0.889,0.481-1.372c0.221,0.375-0.095,0.92,0.063,1.36
				c0.614-0.058,0.572-1.318,1.357-1.501c0.155,0.494,0.369,1.049,0.791,1.394c0.391-0.276,1.844-1.701,1.51-2.13
				c-0.131,0.276-0.066,0.552,0.146,0.77c0.859,0.874,2.432-0.605,2.999-1.015c0.463-0.333,0.589-0.659,0.701-1.31
				c0.537,0.176,1.19,0.341,1.525,0.824c-0.887-0.82,0.3-1.222,1.004-1.249c0.147,0.375,0.155,0.804,0.19,1.21
				c-0.141-0.467,0.332-0.744,0.76-0.693c0.065,0.318,0.08,0.644,0.119,0.969c0.533-0.851,1.735-0.398,1.161,0.445
				c0.022-0.452,0.57-0.678,1.047-0.652c0.142,0.36,0.168,0.778,0.157,1.165c0.498-1.93,2.73-1.203,1.72,0.089
				c0.301,0.034,0.665,0.153,0.861,0.401c-0.34,0.134-0.546,0.395-0.563,0.74c0.647,0.138,1.902,0.084,2.243-0.49
				c0.395-0.659,0.146-1.245,1.04-1.724c-0.479-0.104-0.368-0.425-0.574-0.598c-0.08-0.068-0.588-0.329-0.642-0.437
				c-0.318-0.625,0.154-0.229,0.18-0.628c0.023-0.368-0.069-0.785-0.106-1.157"/>
		</g>
		<g>
			
				<radialGradient id="SVGID_13_" cx="1631.0508" cy="999.5483" r="41.1948" gradientTransform="matrix(0.9949 -0.1011 0.0846 0.8323 -111.1183 417.0502)" gradientUnits="userSpaceOnUse">
				<stop  offset="0" style="stop-color:#ABD037"/>
				<stop  offset="0.1111" style="stop-color:#9ECC3B"/>
				<stop  offset="0.5073" style="stop-color:#72BF44"/>
				<stop  offset="0.817" style="stop-color:#4FB849"/>
				<stop  offset="1" style="stop-color:#3DB54A"/>
			</radialGradient>
			<path fill="url(#SVGID_13_)" d="M1587.027,1096.214c-0.907-0.015-1.715-1.184-1.244-1.835c0.406-0.559,1.265-0.475,1.234-1.287
				c0.26-0.103,1.022-0.02,1.067-0.318c0.062-0.439-1.528-0.954-1.896-1.245c-0.826-0.651-0.413-1.218,0.524-1.414
				c0.773-0.157,0.663-0.459,1.042-0.98c0.265-0.368,1.528-0.947,1.789-0.307c0.391-0.36,0.67-0.594,1.161-0.797
				c0.341-0.142,0.7-0.187,0.847-0.409c0.241-0.368-0.077-0.87,0.405-1.271c0.692-0.571,2.245-0.529,3.134-0.656
				c-0.671-0.329-1.785-0.341-1.034-1.019c0.283-0.253,0.655-0.241,0.805-0.541c0.119-0.237-0.031-0.536-0.016-0.777
				c0.042-0.743,0.241-0.341,0.743-0.82c0.356-0.337,0.064-0.57,0.682-0.877c0.463-0.23,0.98-0.242,1.49-0.307
				c-0.066-0.195-0.207-0.371-0.234-0.575c0.648-0.092,1.207-0.157,1.831-0.322c0.069-0.371-0.215-0.919-0.079-1.26
				c0.156-0.391,2.179-0.877,2.129-0.363c-1.605-0.974,1.011-1.05,1.65-1.207c0-0.421-0.451-0.736-0.072-1.119
				c0.686-0.689,1.283-0.099,1.873,0.108c0.311-0.708,1.654-0.72,2.253-0.368c0.498,0.299,0.8,0.865,0.812,1.398
				c0.579,0.207,1.472,0.26,1.977,0.548c0.49,0.275,0.218,0.509,0.479,0.812c0.367,0.437,1.122,0.195,1.524,0.655
				c0.299,0.341,0.227,0.766,0.057,1.161c0.687,0.294,1.548,0,1.567,0.941c0.007,0.475-0.118,0.341,0.229,0.705
				c0.126,0.138,0.341,0.261,0.455,0.421c0.088,0.126,0.128,0.371,0.203,0.459c0.089,0.096,0.035,0.241,0.174,0.333
				c0.275,0.176,1.302-0.119,1.62-0.13c0.704-0.019,0.715-0.046,0.893,0.498c0.287,0.893,0.367,1.62,1.386,2.229
				c0.321,0.195,1.552,0.64,1.26-0.172c0.059,0.889,0.621,2.164,1.203,2.911c0.329,0.417,0.935,0.471,1.295,0.804
				c0.203,0.184,0.207,0.399,0.287,0.621c0.135,0.38,0.242,0.46,0.444,0.828c0.265,0.471,0.051,0.632-0.157,1.072
				c-0.141,0.295-0.141,0.444-0.21,0.754c-0.172,0.766-0.935,1.123,0.042,1.716c0.443,0.268,0.571,0.027,0.766,0.541
				c0.223,0.578-0.386,0.9-0.299,1.432c0.135,0.813,1.602,0.372,1.457,1.548c-0.073,0.625-0.502,0.23,0.218,0.763
				c0.594,0.432,0.746,0.739,0.77,1.413c0.008,0.168-0.257,0.302-0.16,0.463c0.176,0.288,1.034,0.222,1.355,0.318
				c0.452,0.142,0.89,0.494,1.379,0.498c0.202,0.613-0.938,0.969-0.252,1.486c0.544,0.41,0.911,0.008,0.961,0.828
				c0.046,0.689-0.557,1.298-0.398,1.976c0.092,0.414,0.211,0.288,0.494,0.563c0.337,0.326,0.608,0.834,0.647,1.294
				c0.053,0.678-0.578,1.64-1.08,2.179c-0.23,0.246-0.628,0.411-0.498,0.744c0.777,0.046,2.026,0.414,2.117,1.168
				c0.086,0.705-0.696,1.329-0.953,1.984c-0.199,0.513-0.099,0.888-0.106,1.44c-0.008,0.667-0.487,1.701-1.123,2.107
				c0.261,0.632-0.996,1.064-1.54,1.172c-0.658,0.13-1.476,0-2.104,0.211c-0.405,0.134-0.275,0.207-0.653,0.429
				c-0.778,0.456-1.966,0.395-2.854,0.482c-0.414,0.042-0.95,0.196-1.326,0.042c-0.559-0.23-0.64-0.843-0.67-1.318
				c0.019,0.042,0.026,0.088,0.03,0.13c-0.413,0.287-0.919,0.471-1.413,0.624c-0.597,0.184-1.904,0.655-2.523,0.571
				c-0.487-0.069-0.74-0.946-0.752-1.39c0.483,0.383,0.402,1.168-0.037,1.62c-0.821,0.846-2.101,0.36-3.051,0.119
				c-0.325-0.08-1.93-0.265-1.808-0.747c0.085-0.345,0.56-0.02,0.62,0.142c0.246,0.655-1.998,1.575-2.712,1.551
				c-0.635-0.019-1.85-0.98-1.761-1.624c-0.798-0.142-1.773,0.379-2.537,0.015c-0.417-0.199-0.685-0.659-0.873-1
				c0.203,0.981-1.669,1.605-2.578,1.517c-1.026-0.095-2.122-0.777-2.585-1.524c-0.135,0.471,0.122,0.82-0.176,1.318
				c-0.705,1.18-2.445,1.184-3.789,1.237c-0.72,0.027-1.042-0.065-1.632-0.337c-0.269-0.126-0.643-0.51-0.904-0.583
				c-0.134-0.034-0.305,0.073-0.437,0.05c-0.697-0.119-1.639-0.115-2.354-0.218c-1.093-0.157-3.245-0.165-3.938-1.046
				c-0.123-0.157-0.479-0.838-0.093-0.942c0.476-0.127,0.503,0.874,0.377,1.068c-0.301,0.487-2.25,0.858-2.905,0.782
				c-1.025-0.115-2.019-1.299-2.513-1.984c-0.133-0.184-0.517-0.609-0.432-0.862c0.145-0.428,1.47-0.386,1.18-0.992
				c-0.162-0.341-1.299-0.406-1.64-0.556c-0.87-0.379-1.318-1.191-1.675-1.926c-0.674-1.387-0.307-2.885,1.556-3.543
				c-0.659-0.257-1.543-0.111-2.253-0.261c-1.064-0.222-2.348-0.575-2.903-1.402c-0.847-1.252,1.364-2.279,2.686-2.475
				c-1.043-0.747-3.006-0.628-2.601-2.203c0.26-1.011,1.926-1.471,2.973-1.379c-0.204-0.44-0.563-0.571-0.605-1.092
				c0.475-0.237,1.264,0.134,1.738,0.291c0.625-0.528,0.248-1.153,0.686-1.739c0.334-0.44,0.705-0.586,1.272-0.479
				c1.095,0.207,2.084,0.873,3.206,1.122c-0.388-0.609-1.508-0.59-1.211-1.585c0.12-0.391,0.854-0.874,1.287-1.092
				c0.563-0.287,1.227-0.575,1.816-0.379c0.283,0.092,0.364,0.333,0.705,0.361c0.355,0.026,0.682-0.18,0.98-0.292
				c-0.058-0.054-0.1-0.126-0.16-0.184c0.064-0.084,0.171-0.449,0.252-0.491c0.352-0.157,0.395,0.204,0.732,0.134
				c0.485-0.099,0.479-0.919,1.186-0.659"/>
			<path opacity="0.6" fill="#286A37" d="M1601.883,1111.567c0.096,0.555,0.131,0.854-0.287,1.337
				c-0.276,0.318-0.693,0.801-0.98,0.268c-0.586,0.609-0.851,1.172-1.74,1.593c-0.67,0.314-1.396,0.421-2.129,0.602
				c-0.271-0.318-0.609-0.609-0.164-0.842c-0.05,0.509-0.889,0.651-0.885-0.02c0.025,0.092,0.015,0.2,0.037,0.292
				c-0.329,0.191-0.746,0.241-1.129,0.264c-0.311-0.498-0.425-1.087-0.434-1.654c0.169-0.054,0.265-0.054,0.434-0.035
				c0.016,0.13,0.069,0.287,0.046,0.417c-0.03-0.31-0.05-0.62-0.104-0.931c-0.772,0.088-1.83,1.084-2.559,1.035
				c0.533,1.498-1.734,0.919-1.045,0.325c1.211,0.839-1.747,1.674-1.582,0.663c0.826,0.816-0.954,1.846-0.936,0.583
				c0.039,0.39,0.066,0.804-0.061,1.188c-0.617,0.087-0.985-0.514-1.598-0.563c-0.835-0.073-1.988,0.387-2.85,0.517
				c-0.566-0.831,1.241-0.663,0.13-1.359c-0.275-0.177-1.337,0.065-0.466-0.72c-0.591-0.088-1.979,0.513-1.832,1.015
				c0.628-0.414-0.184-0.483-0.33-0.782c-0.165-0.33-0.142-0.762-0.025-1.1c-0.545-0.015-1.146,0.054-1.407,0.518
				c0.613,0.636,1.857,0.896,2.364,1.528c-0.444,0.23-1.054,0.25-1.395,0.586c0.031-0.03-0.417,0.919-0.41,0.839
				c-0.072,0.555,0.869,1.636,1.409,0.915c-0.229,1.23,1.717-0.123,2.03-0.459c0.139,0.39-0.083,1.368,0.453,1.613
				c0.762,0.356,1.223-0.816,2.041-0.771c0.173,1.418,1.735,0.322,2.322-0.188c0.072,0.475-0.101,0.912,0.409,1.134
				c0.724,0.318,1.409-0.467,1.479-1c0.084,1.203,0.402,1.655,1.759,0.842c0.598,1.602,2.979,0.284,3.854-0.467
				c0.053,0.36,0.057,0.739,0.141,1.084c0.786,0.111,0.963-0.659,1.111-1.149c0.38,0.226,0.459,0.567,0.935,0.579
				c0.728,0.019,1.256-0.866,1.295-1.398c0.692,0.735,1.781,0.451,1.705-0.563c0.057,0.104,0.171,0.203,0.214,0.268
				c-0.033-0.234-0.245-0.873-0.127-1.083c0.15-0.257,0.651-0.2,0.92-0.383c0.851-0.594,0.1-0.816-0.145-1.536
				c0.875-0.21,0.302-1.264-0.178-1.631c0.242-0.353,0.798-0.567,1.2-0.805c-0.171-0.543-1.104-0.582-1.675-0.62"/>
			<path opacity="0.4" fill="#286A37" d="M1602.496,1102.737c1.355,0.395,1.552,2.398,2.167,0.204
				c1.139,0.682,1.946,1.287,2.422-0.345c-0.031,0.222,0.089,0.49,0.116,0.694c0.586,0.061,0.635-0.548,0.73-0.893
				c0.215,0.364,0.567,0.625,0.89,0.912c1.191-0.359,1.804-1.471,2.386-2.348c0.299,0.184,0.582,0.494,0.988,0.398
				c0.068-0.333-0.088-0.64-0.453-0.781c1.066,1.103,1.693-0.084,1.621-1.027c0.586,0.161,1.188,0.123,1.797,0.058
				c0.126-0.406,0.452-1.118-0.275-1.203c0.762,0.644,2.06,0.448,3.068,0.303c0.037-0.246,0.006-0.517-0.093-0.743
				c-0.138,0.003-0.379-0.065-0.503-0.054c1.392-0.575,1.809-1.364,0.052-1.501c0.73-0.479,1.7-0.613,2.382-1.18
				c-0.322-0.352-1.114-0.165-1.616-0.176c1.552-0.092,1.493-0.445,1.482-1.23c0-0.061-0.177-0.126-0.165-0.218
				c0.02-0.279,0.388-0.417,0.464-0.693c0.096-0.341,0.417-0.8-0.46-0.613c0.283-0.023,0.468-0.195,0.655-0.288
				c-1.334-0.356,0.015-0.658-0.211-1.313c-0.108-0.303-0.835-0.28-1.119-0.421c-0.142-0.065,0.077-0.326-0.118-0.425
				c-0.219-0.111-0.605-0.096-0.854-0.149c0.941-0.593,1.927-0.065,2.448,0.383c0.942,0.812,1.367,1.801,0.464,2.946
				c0.286-0.008,0.673-0.027,0.973,0.027c0.092,0.437,0.233,1.034,0.08,1.459c0.771,0.1,0.644,1.287,0.142,1.482
				c0.287-0.36,0.763-0.689,1.258-0.693c0.19,0.537-0.155,1.261-0.702,1.567c0.089,0.268,0.276,0.965,0.46,1.176
				c0.299,0.337,0.39,0.26,1.026,0.456c1.686,0.513,0.552,1.475-0.491,2.249c-0.118-0.303-0.016-0.303,0.396-0.333
				c0.206,0.881,0.122,1.307-1.21,1.464c-0.782,0.095-1.701-0.399-1.774-1.226c0.712,1.321,0.359,2.521-1.265,3.241
				c-0.547,0.241-2.654,0.988-2.995,0.318c0.624,1.03,1.185,1.448-0.563,1.823c-0.478,0.104-1.516,0.425-1.805,0.077
				c0.322,1.838-2.477,2.628-4.32,2.597c-0.08-0.142-0.104-0.379-0.053-0.536c0.41-0.165,0.62-0.035,0.796,0.287
				c0.426,0.778-1.976,1.674-2.632,1.923c-0.531,0.203-0.723,0.395-1.201,0.092c-0.246-0.153-0.617-0.927-0.456-1.187
				c0.586-0.973,1.724,0.471,0.819,1.164c-0.965,0.739-1.805,0.031-2.341-0.609c0.333-0.471,1.099-0.824,1.671-1.149
				c-0.767,0.068-2.893,1.417-3.502,1.015c-0.556-0.364,0.746-1.1,0.836-1.452c-1.073-0.758-1.434-0.188-1.521-1.444
				c0.129-0.031,0.26-0.1,0.413-0.111c0.019-0.046,0.026-0.089,0.026-0.138c-0.882-0.345-1.743,0.119-1.194-0.966
				c-1.747,0.211-0.027-0.938-0.055-1.245c-0.026-0.302-0.417-0.329-0.578-0.613c-0.084-0.149-0.069-0.525-0.069-0.697
				c0.005-2.103,1.798,0.482,2.191-0.299"/>
			<path opacity="0.2" fill="#D8E028" d="M1601.462,1105.22c-0.376-0.712,0.417-1.965,0.03-2.459
				c-0.383-0.49-0.873-0.023-1.336-0.184c-0.511-0.18-0.452-0.414-0.771-0.617c-0.422-0.272-0.731-0.728-1.26-0.866
				c-0.391-0.104-1.008,0.337-1.337,0.019c-0.426-0.414,1.32-2.317-0.556-1.677c-0.724-1.15-0.165-2.804-2.647-1.908
				c-0.333-0.773-1.682-0.555-2.076,0.092c-0.965-1.391-2.41-1.636-3.355,0.146c-0.835-0.993-2.646-1.214-3.784-0.172
				c-0.148-0.111-0.482-0.177-0.641-0.31c-0.462,0.337-0.677,0.827-0.67,1.333c-1.681-0.241-1.222,0.107-2.459,0.605
				c-0.096,0.038-0.724-0.33-1.075-0.126c-0.602,0.344-0.044,1.217-1.023,1.317c-0.096,0.479-0.317,0.95-0.465,1.413
				c0.74,0.088,2.476,0.146,2.563-0.291c-0.98,0.851,0.379,1.176,0.153,2.061c0.348-0.689,0.831-1.318,1.299-1.954
				c0.207,0.931-0.303,1.8-0.299,2.72c0.85-0.559,1.184-1.72,2.248-2.088c0.245,0.525,0.299,1.188,0.088,1.705
				c0.108-0.329,0.303-0.555,0.465-0.857c0.129,0.456,0.129,1.045,0.225,1.551c0.073,0.019,0.146,0.034,0.223,0.042
				c0.422-0.586,0.693-1.272,1.222-1.812c0.38,0.598,0.204,1.222-0.697,1.203c0.138,0,0.525,0.123,0.741,0.137
				c-0.021,0.25,0.193,0.613,0.152,0.87c0.624-0.13,1.067-0.59,1.536-0.9c0.474,0.571,0.397,1.479,0.405,2.195
				c0.617-0.958,1.589-2.111,1.857-3.188c0.035,0.693,0.158,1.383,0.165,2.08c0.456-0.364,0.729-0.858,0.831-1.371
				c0.058,0.67,0.115,1.345,0.215,2.003c0.486-0.303,0.778-1.13,0.701-1.621c-0.237,0.472-0.985,3.087,0.52,2.574
				c0.837-0.283,0.944-2.126,0.863-2.685c0.49,0.49,0.988,1.034,1.62,1.379c0.211-0.579,0.344-1.172,0.349-1.774
				c0.501,0.406,0.388,0.923,0.674,1.433c0.307,0.544,0.916,0.893,1.073,1.506c-0.054-0.426-0.1-0.847-0.14-1.268
				c0.09,0.804-0.121,2.325,0.971,2.601c0.376-0.566,0.72-1.168,0.984-1.758c0.355,0.678-0.064,1.797,0.728,2.233
				c0.402-0.712,0.414-1.459,0.479-2.241c0.564,0.138,0.929,0.59,1.299,0.992c-0.214-0.899,0.472-2.593,1.26-3.225"/>
			<path opacity="0.2" fill="#D8E028" d="M1608.682,1078.862c1.273,0.333,2.303,1.429,2.211,2.593
				c-0.111-0.065-0.257-0.096-0.375-0.188c0.41,0.265,0.804,0.839,0.286,1.165c0.231,0.187,0.702,0.249,0.974,0.494
				c-0.417,0.046-0.834,0.088-1.252,0.13c0.433-0.042,1.287-0.291,1.65-0.072c0.717,0.432,0.176,1.39-0.418,1.697
				c-0.602,0.307-2.164,0.49-2.145-0.353c0.418,0.108,0.801,0.425,0.941,0.736c-1.282,0.49-2.635,0.291-2.455-1.027
				c0.959-0.08,1.013,1.069,0.192,1.395c-1.004,0.402-2.215,0.031-3.019-0.383c1.796,0.958-3.038,3.754-4.256,2.486
				c0.123-0.172,0.215-0.256,0.429-0.341c-0.114,0.482-1.195,0.624-1.801,0.701c-0.202-0.229-0.248-0.521-0.264-0.813
				c0.444-0.379,0.502-1.068,0.847-1.601c0.019,0.372-0.318,0.663-0.736,0.689c-0.022-0.076-0.016-0.142-0.038-0.218
				c-0.459,0.149-1.004,0.341-1.458,0.459c-0.438,0.112-1.334,0.548-1.763,0.487c-0.774-0.111-1.034-0.881-0.483-1.253
				c0.426-0.287,1.364-0.299,1.835-0.149c-0.383-0.02-0.75-0.219-0.984-0.433c0.307-0.203,1.135-0.261,1.34-0.525
				c0.407-0.514-0.363-0.264-0.699-0.414c-0.591-0.261-0.507,0.023-0.33-0.709c0.092-0.367,0.805-1.367,1.233-1.447
				c-0.035,0.087-0.103,0.138-0.21,0.157c-0.74-0.77,1.164-1.612,1.899-1.279c-0.031-0.283-0.077-0.579-0.058-0.851
				c0.337-0.038,0.456-0.088,0.687,0.062c-0.143-0.624,0.983-1.521,1.133-0.797c-0.264,0.104-0.605,0.131-0.813-0.038
				c-0.77-0.624,0.613-1.11,1.131-1.325c1.678-0.706,2.184-0.866,3.083,0.471c-0.076-0.632-0.589-3.084,1.195-2.046
				c0.56,0.322,0.192,0.594,0.612,0.95c0.655,0.548,1.364-0.004,1.579,1.073c0.007-0.012,0.085-0.134,0.119-0.191
				c0.011,0.26,0.057,0.548,0.187,0.781"/>
			<path fill="#44B64D" d="M1627.33,1105.117c-0.195-0.261-0.288-0.621-0.291-0.923c-0.575,0.027-1.154,0.115-1.729,0.153
				c0.108-0.215,0.453-1.111,0.418-1.33c-0.08-0.475-0.767-0.854-1.149-0.176c-0.142-0.578-0.046-0.935-0.776-1.087
				c-0.529-0.111-1.605,0.28-1.717,0.731c-0.065-0.372-0.076-0.739,0.091-1.088c-0.757-0.222-2.106,0.835-2.271,1.475
				c-0.074-1.008-0.026-1.13-1.249-0.927c-0.101,0.02-0.586,0.191-0.687,0.222c-0.391,0.123-0.569-0.022-0.999,0.261
				c-0.253,0.168-0.372,0.498-0.647,0.678c-0.16-0.417-0.095-0.935,0.165-1.344c-0.632,0.288-1.184,0.98-0.966,1.597
				c-0.004-0.126-0.02-0.253-0.031-0.379c-0.772-0.107-1.957,0.831-2.596,1.145c-0.671,0.333-1.321,0.698-2.093,0.774
				c0.02,0.081,0.085,0.111,0.188,0.096c0,0.103-0.115,0.207-0.064,0.36c-0.537-0.229-1.602-0.226-1.246,0.513
				c-0.639,0.192-2.222,0.885-2.536,1.532c-0.164,0.341-0.218,0.763,0.397,0.594c0.028-0.115,0.014-0.249-0.018-0.36
				c-0.934-0.214-1.194,0.907-1.283,1.459c-0.042-0.364,0.165-0.701,0.536-0.899c0.195,0.467-0.505,1.129-0.704,1.635
				c-0.139,0.337-0.173,0.69-0.368,1.023c0.579-0.678,0.805-0.084,1.272,0.238c0.563-0.613,0.724-1.463,1.214-2.123
				c0.421,0.256,0.391,0.716,0.552,1.111c0.146-0.383,0.479-0.792,0.523-1.218c0.223,0.329-0.113,0.812,0.043,1.199
				c0.639-0.065,0.617-1.173,1.437-1.349c0.153,0.433,0.368,0.919,0.801,1.218c0.413-0.253,1.946-1.532,1.605-1.904
				c-0.138,0.245-0.077,0.49,0.141,0.678c0.882,0.755,2.54-0.575,3.138-0.946c0.486-0.299,0.625-0.59,0.751-1.165
				c0.556,0.142,1.233,0.28,1.574,0.702c-0.908-0.709,0.333-1.084,1.065-1.119c0.149,0.33,0.149,0.705,0.179,1.061
				c-0.137-0.405,0.356-0.659,0.802-0.62c0.064,0.279,0.072,0.566,0.107,0.851c0.57-0.758,1.815-0.375,1.202,0.375
				c0.03-0.398,0.605-0.609,1.101-0.593c0.141,0.317,0.163,0.682,0.145,1.026c0.551-1.712,2.861-1.107,1.788,0.05
				c0.314,0.027,0.69,0.126,0.89,0.341c-0.356,0.127-0.575,0.356-0.598,0.659c0.67,0.115,1.976,0.046,2.344-0.463
				c0.422-0.594,0.169-1.103,1.107-1.54c-0.494-0.084-0.376-0.367-0.587-0.517c-0.079-0.062-0.604-0.283-0.658-0.379
				c-0.322-0.543,0.165-0.203,0.195-0.556c0.031-0.325-0.058-0.693-0.092-1.015"/>
		</g>
		<path opacity="0.3" fill="#FFFFFF" d="M937.935,1131.884c-9.044,0-17.191,3.812-22.938,9.914
			c-6.998-20.8-26.653-35.781-49.809-35.781c-9.849,0-19.064,2.711-26.94,7.427c-8.071-18.636-26.63-31.674-48.23-31.674
			c-0.448,0-0.9,0.003-1.345,0.015c-12.705-28.58-41.338-48.514-74.633-48.514c-34.387,0-63.804,21.263-75.834,51.352
			c-5.366-1.846-11.124-2.853-17.12-2.853c-22.177,0-41.142,13.74-48.853,33.172c-0.418-0.016-0.839-0.035-1.261-0.035
			c-18.749,0-33.948,15.2-33.948,33.95c0,18.747,15.2,33.946,33.948,33.946c7.147,0,13.775-2.214,19.245-5.983
			c8.665,6.305,19.332,10.025,30.868,10.025c6.085,0,11.928-1.038,17.364-2.938c-0.774,2.731-1.197,5.616-1.197,8.596
			c0,17.414,14.113,31.525,31.521,31.525c9.375,0,17.789-4.094,23.563-10.591c7.486,19.884,26.682,34.03,49.181,34.03
			c19.294,0,36.157-10.4,45.292-25.898c5.467,4.558,12.502,7.309,20.179,7.309c15.318,0,28.078-10.925,30.924-25.408
			c7.952,4.838,17.288,7.626,27.273,7.626c20.677,0,38.566-11.947,47.139-29.319c5.719,7.96,15.054,13.15,25.607,13.15
			c17.409,0,31.521-14.111,31.521-31.521C969.456,1145.996,955.344,1131.884,937.935,1131.884z"/>
		<g>
			<ellipse opacity="0.3" fill="#286A37" cx="1103.623" cy="1631.821" rx="30.727" ry="4.738"/>
			<path opacity="0.3" fill="#286A37" d="M1149.71,1639.01c0,1.004-5.271,1.815-11.769,1.815c-6.5,0-11.767-0.812-11.767-1.815
				c0-0.999,5.267-1.812,11.767-1.812C1144.439,1637.199,1149.71,1638.011,1149.71,1639.01z"/>
			<path fill="#509A44" d="M1078.779,1631.004c0,0-5.554-13.077-18.957-15.689c0,0,18.303-1.961,25.821,14.709
				c0,0,0.331-16.999-18.957-29.748c0,0,20.919,1.962,28.764,28.768c0,0,1.306-24.841-12.748-33.996c0,0,20.593,7.19,21.899,33.996
				c0,0-1.307-13.078,14.059-21.903c0,0-8.826,10.461-6.213,21.903c0,0,3.922-11.112,17.65-17.326c0,0-8.496,4.903-9.807,17.652
				c0,0,5.558-9.478,17.65-8.826c0,0-5.557-1.961-11.111,11.112c0,0,1.636,1.146,5.068,0.82c3.432-0.33,2.451,3.432-14.059,1.796
				c-16.506-1.636-5.719,0.819-21.244,1.472c-15.529,0.655-11.771,1.141-18.796-0.165c-7.029-1.307-6.864-0.49-11.113-0.651
				C1062.435,1634.762,1058.838,1633.457,1078.779,1631.004z"/>
		</g>
		<g>
			<path opacity="0.3" fill="#286A37" d="M1891.722,1530.671c0,3.517-18.475,6.362-41.259,6.362s-41.255-2.846-41.255-6.362
				c0-3.513,18.471-6.363,41.255-6.363S1891.722,1527.159,1891.722,1530.671z"/>
			<path opacity="0.3" fill="#286A37" d="M1912.346,1540.328c0,1.349-7.074,2.437-15.802,2.437c-8.725,0-15.796-1.088-15.796-2.437
				c0-1.344,7.071-2.437,15.796-2.437C1905.271,1537.891,1912.346,1538.984,1912.346,1540.328z"/>
			<path fill="#509A44" d="M1817.105,1529.576c0,0-7.458-17.56-25.457-21.068c0,0,24.578-2.632,34.674,19.751
				c0,0,0.441-22.823-25.453-39.941c0,0,28.085,2.635,38.618,38.624c0,0,1.756-33.354-17.114-45.646c0,0,27.648,9.656,29.407,45.646
				c0,0-1.753-17.557,18.873-29.408c0,0-11.852,14.047-8.339,29.408c0,0,5.267-14.921,23.7-23.26c0,0-11.411,6.585-13.166,23.699
				c0,0,7.458-12.725,23.699-11.848c0,0-7.461-2.639-14.923,14.92c0,0,2.195,1.536,6.801,1.095
				c4.609-0.436,3.296,4.612-18.872,2.418c-22.163-2.195-7.681,1.1-28.526,1.973c-20.85,0.878-15.804,1.536-25.239-0.219
				c-9.435-1.754-9.216-0.658-14.919-0.877C1795.161,1534.625,1790.332,1532.867,1817.105,1529.576z"/>
		</g>
		<g>
			<ellipse opacity="0.3" fill="#286A37" cx="1611.912" cy="1427.851" rx="30.725" ry="4.738"/>
			<path opacity="0.3" fill="#286A37" d="M1657.997,1435.041c0,1.005-5.267,1.816-11.769,1.816c-6.497,0-11.763-0.812-11.763-1.816
				c0-0.999,5.266-1.811,11.763-1.811C1652.73,1433.23,1657.997,1434.042,1657.997,1435.041z"/>
			<path fill="#509A44" d="M1587.066,1427.036c0,0-5.554-13.077-18.957-15.69c0,0,18.303-1.961,25.821,14.71
				c0,0,0.329-17-18.957-29.749c0,0,20.919,1.962,28.764,28.769c0,0,1.306-24.842-12.748-33.996c0,0,20.593,7.189,21.903,33.996
				c0,0-1.307-13.078,14.055-21.903c0,0-8.826,10.462-6.209,21.903c0,0,3.922-11.112,17.65-17.325c0,0-8.5,4.902-9.807,17.65
				c0,0,5.555-9.477,17.65-8.826c0,0-5.557-1.961-11.115,11.113c0,0,1.636,1.145,5.067,0.819c3.433-0.329,2.452,3.433-14.055,1.797
				c-16.509-1.636-5.718,0.82-21.247,1.471c-15.525,0.655-11.768,1.142-18.796-0.165c-7.026-1.306-6.862-0.489-11.113-0.65
				C1570.726,1430.793,1567.128,1429.487,1587.066,1427.036z"/>
		</g>
		<g>
			<path opacity="0.3" fill="#286A37" d="M1465.918,1438.692c0,0.877-4.623,1.591-10.323,1.591c-5.699,0-10.323-0.714-10.323-1.591
				c0-0.882,4.624-1.594,10.323-1.594C1461.295,1437.098,1465.918,1437.81,1465.918,1438.692z"/>
			<path opacity="0.3" fill="#286A37" d="M1471.078,1441.105c0,0.341-1.771,0.613-3.953,0.613c-2.184,0-3.953-0.272-3.953-0.613
				c0-0.333,1.77-0.609,3.953-0.609C1469.308,1440.496,1471.078,1440.772,1471.078,1441.105z"/>
			<path fill="#509A44" d="M1447.248,1438.416c0,0-1.866-4.394-6.367-5.271c0,0,6.148-0.659,8.672,4.941
				c0,0,0.112-5.711-6.365-9.993c0,0,7.025,0.658,9.661,9.664c0,0,0.44-8.347-4.283-11.419c0,0,6.919,2.413,7.357,11.419
				c0,0-0.436-4.394,4.724-7.358c0,0-2.964,3.517-2.087,7.358c0,0,1.317-3.731,5.93-5.818c0,0-2.854,1.647-3.294,5.93
				c0,0,1.865-3.184,5.93-2.965c0,0-1.865-0.659-3.734,3.73c0,0,0.551,0.387,1.704,0.276c1.152-0.111,0.823,1.152-4.724,0.605
				c-5.546-0.553-1.918,0.275-7.137,0.494c-5.217,0.218-3.952,0.383-6.316-0.059c-2.359-0.436-2.307-0.164-3.73-0.218
				C1441.759,1439.681,1440.548,1439.24,1447.248,1438.416z"/>
		</g>
		<g>
			<path opacity="0.3" fill="#286A37" d="M350.692,1559.044c0,0.877-4.621,1.589-10.322,1.589s-10.323-0.712-10.323-1.589
				c0-0.882,4.622-1.594,10.323-1.594S350.692,1558.163,350.692,1559.044z"/>
			<path opacity="0.3" fill="#286A37" d="M355.853,1561.458c0,0.341-1.77,0.612-3.954,0.612c-2.183,0-3.953-0.271-3.953-0.612
				c0-0.333,1.77-0.609,3.953-0.609C354.083,1560.848,355.853,1561.125,355.853,1561.458z"/>
			<path fill="#509A44" d="M332.024,1558.768c0,0-1.867-4.393-6.37-5.271c0,0,6.149-0.658,8.676,4.941c0,0,0.11-5.712-6.369-9.994
				c0,0,7.028,0.659,9.663,9.665c0,0,0.438-8.347-4.282-11.419c0,0,6.918,2.413,7.357,11.419c0,0-0.438-4.395,4.723-7.359
				c0,0-2.965,3.517-2.087,7.359c0,0,1.317-3.731,5.93-5.819c0,0-2.855,1.647-3.294,5.93c0,0,1.866-3.183,5.931-2.965
				c0,0-1.868-0.659-3.735,3.731c0,0,0.55,0.387,1.703,0.275s0.824,1.152-4.722,0.606c-5.546-0.553-1.921,0.275-7.137,0.493
				c-5.216,0.218-3.954,0.384-6.314-0.058c-2.362-0.436-2.307-0.164-3.734-0.219
				C326.533,1560.032,325.324,1559.592,332.024,1558.768z"/>
		</g>
		<linearGradient id="SVGID_14_" gradientUnits="userSpaceOnUse" x1="978.0791" y1="767.248" x2="978.079" y2="-1.6646">
			<stop  offset="0.4039" style="stop-color:#FFFFFF;stop-opacity:0"/>
			<stop  offset="1" style="stop-color:#C1E8FB"/>
		</linearGradient>
		<rect x="-4.121" y="-1.665" fill="url(#SVGID_14_)" width="1964.4" height="768.913"/>
		<g>
			<ellipse opacity="0.3" fill="#286A37" cx="1343.94" cy="1228.672" rx="13.927" ry="2.147"/>
			<ellipse opacity="0.3" fill="#286A37" cx="1359.496" cy="1231.931" rx="5.333" ry="0.823"/>
			<path fill="#509A44" d="M1332.68,1228.302c0,0-2.518-5.927-8.592-7.111c0,0,8.295-0.889,11.703,6.667
				c0,0,0.15-7.705-8.592-13.483c0,0,9.48,0.889,13.037,13.039c0,0,0.592-11.259-5.779-15.409c0,0,9.334,3.259,9.927,15.409
				c0,0-0.593-5.928,6.372-9.928c0,0-4,4.741-2.816,9.928c0,0,1.777-5.037,8-7.853c0,0-3.851,2.222-4.444,8.001c0,0,2.519-4.296,8-4
				c0,0-2.519-0.889-5.036,5.037c0,0,0.741,0.519,2.297,0.372c1.556-0.149,1.111,1.556-6.372,0.814
				c-7.481-0.742-2.592,0.371-9.629,0.667c-7.038,0.297-5.335,0.517-8.519-0.075c-3.187-0.592-3.111-0.222-5.037-0.295
				C1325.271,1230.005,1323.641,1229.414,1332.68,1228.302z"/>
		</g>
	</g>
	<path opacity="0.3" clip-path="url(#SVGID_2_)" fill="#286A37" d="M1241.434,1334.552c0,0-17.679,3.538-1.768,13.263
		c15.912,9.724,13.702,13.263,31.382,14.587c17.681,1.323,36.688-0.887,42.875,1.323s29.172,5.306,34.033,5.306
		c4.864,0,22.985-3.539,22.985-3.539s4.418-0.881,4.863-3.977c0.44-3.096,1.324-7.071,1.324-7.071l-6.631-11.049l-10.165-11.054
		c0,0-6.188-8.395-10.607-9.719C1345.305,1321.294,1286.519,1328.809,1241.434,1334.552z"/>
	<g clip-path="url(#SVGID_2_)">
		<path fill="#A97C50" d="M1472.862,986.545c-15.919,29.392-45.248,44.168-77.51,48.186c-15.332,1.911-30.912,1.488-46.259,0.004
			c-7.471-0.722-14.857-2.094-22.333-2.76c-4.213-0.376-8.844-0.492-13.066,0.583c-0.232-3.438-0.519-6.865-0.88-10.277
			c-2.184-20.666-6.705-41.836-17.982-59.569c-2.551-4.011-16.068-19.226-21.382-12.96c-0.688,0.811-0.431,1.804,0.169,2.375
			c-0.17,0.59-0.007,1.25,0.708,1.631c5.541,2.961,8.264,9.19,10.358,14.813c2.8,7.513,4.412,15.134,5.159,23.118
			c1.366,14.559-0.171,29.219-0.755,43.775c-0.752,18.779-3.732,37.446-7.784,55.882c-7.331-17.101-26.295-26.738-39.808-38.343
			c-19.267-16.548-31.229-44.994-22.291-69.785c0.551-1.529-1.896-2.548-2.618-1.103c-6.137,12.304-10.146,24.927-8.817,38.646
			c-6.14-1.127-11.826-4.418-14.918-10.051c-0.486-0.886-1.925-0.494-1.9,0.514c0.259,10.155,7.966,26.211,19.756,26.422
			c0.291,0.005,0.58-0.127,0.783-0.337c3.487,10.244,8.898,19.785,15.179,28.677c8.185,11.584,18.511,21.098,27.685,31.814
			c8.25,9.637,16.814,21.917,16.373,35.066c-4.157,14.879-8.606,29.675-11.825,44.798c-3.237,15.201-4.542,30.808-5.878,46.268
			c-2.74,31.743-1.727,62.673,4.025,94.026c1.705,9.299,3.102,19.599,8.069,27.809c-0.098,0.087-0.182,0.184-0.235,0.311
			c-0.088,0.209-0.381,0.628-0.229,0.905c0.619,1.145,1.234,1.076,2.509,1.115c3.22,0.101,6.424,0.149,9.642,0.354
			c7.017,0.449,14.023,1.266,21.059,1.349c8.467,0.1,16.946-0.388,25.4-0.814c6.571-0.33,13.65,0.098,20.24-0.76
			c0.594,0.656,1.73,0.82,2.299-0.187c0.033-0.059,0.043-0.119,0.071-0.179c1.019-0.207,1.038-1.87,0.034-2.105
			c-0.283-0.903-0.82-1.788-1.22-2.514c-2.079-3.76-4.734-7.202-7.253-10.671c-6.451-8.888-11.447-18.115-16.163-28.084
			c-13.659-28.889-22.101-60.073-24.093-91.989c-2.004-32.113,2.418-64.079,8.301-95.57c2.574-13.78,5.202-27.548,6.979-41.454
			c0.359,0.067,0.749-0.037,0.966-0.412c3.959-6.892,12.192-10.369,19.179-13.357c9.447-4.042,19.731-5.363,29.909-5.979
			c18.818-1.14,37.698,0.245,56.066-4.861c29.865-8.303,54.109-31.918,57.436-63.465
			C1476.196,985.691,1473.627,985.133,1472.862,986.545z"/>
		<path fill="#5EA744" d="M1355.771,926.671c-10.926-31.685-56.075,5.979-63.518,23.051c-0.215,0.495-0.176,0.926,0.007,1.277
			c0.019,1.216,0.771,2.407,2.348,2.534C1313.33,955.046,1367.936,961.946,1355.771,926.671z"/>
		<path fill="#5EA744" d="M1231.62,890.664c-27.709,18.856,20.481,52.542,38.907,55.245c0.534,0.079,0.94-0.073,1.23-0.341
			c1.17-0.336,2.121-1.374,1.831-2.93C1270.136,924.174,1262.468,869.671,1231.62,890.664z"/>
		<path fill="#5EA744" d="M1120.076,1032.297c8.091,28.625,56.808,3.116,65.634-12.907c0.184-0.336,0.161-0.709,0.031-1.039
			c0.508-1.149,0.234-2.683-1.28-3.29c-13.809-5.54-29.675-10.702-44.729-9.836
			C1124.232,1006.117,1115.709,1016.846,1120.076,1032.297z"/>
		<path fill="#5EA744" d="M1279.728,847.709c-29.743,0.398-17.729,54.06-4.543,66.736c0.276,0.265,0.645,0.34,0.995,0.301
			c0.979,0.786,2.531,0.921,3.51-0.385c8.929-11.902,18.025-25.887,21.091-40.651
			C1303.936,858.508,1295.783,847.496,1279.728,847.709z"/>
		<path fill="#5EA744" d="M1495.564,917.621c-29.12-6.068-29.042,48.922-18.919,64.158c0.213,0.321,0.555,0.472,0.906,0.51
			c0.784,0.979,2.271,1.448,3.508,0.387c11.302-9.681,23.217-21.358,29.414-35.104
			C1516.853,933.417,1511.285,920.896,1495.564,917.621z"/>
		<path fill="#5EA744" d="M1350.949,856.189c-21.8-18.695-44.864,33.428-46.093,48.827c-0.003,0.043,0.015,0.073,0.015,0.114
			c-3.148,1.88-0.177,6.825,3.111,5.017c13.748-7.56,29.126-10.892,41.785-20.682C1361.85,880.122,1362.855,866.4,1350.949,856.189z
			"/>
		<path fill="#5EA744" d="M1550.232,937.304c-15.404-19.583-43.816,20.893-47.455,33.792c-0.01,0.037-0.001,0.064-0.007,0.099
			c-2.995,1.071-1.299,5.78,1.802,4.796c12.977-4.119,26.626-4.365,39.049-10.563C1555.479,959.51,1558.647,948,1550.232,937.304z"
			/>
		<path fill="#5EA744" d="M1434.168,934.778c-21.16,13.155,15.944,45.85,28.364,50.886c0.035,0.014,0.063,0.008,0.098,0.019
			c0.733,3.096,5.602,1.928,4.963-1.264c-2.664-13.35-1.405-26.944-6.2-39.974C1456.816,932.007,1445.726,927.593,1434.168,934.778z
			"/>
		<path fill="#5EA744" d="M1145.655,965.552c-17.493,17.741,26.229,40.848,39.481,42.837c0.038,0.006,0.064-0.007,0.101-0.004
			c1.438,2.838,5.896,0.563,4.53-2.391c-5.715-12.354-7.673-25.867-15.381-37.413
			C1167.026,957.56,1155.211,955.863,1145.655,965.552z"/>
		<path fill="#5EA744" d="M1212.706,938.95c-18.784,2.573-2.856,31.773,5.797,37.783c0.252,0.174,0.496,0.199,0.71,0.137
			c0.677,0.124,1.42-0.162,1.664-1.024C1223.777,965.624,1233.62,936.083,1212.706,938.95z"/>
		<path fill="#5EA744" d="M1520.137,991.589c1.336-18.913-30.511-9.316-38.169-2.08c-0.223,0.209-0.298,0.443-0.278,0.666
			c-0.261,0.637-0.135,1.423,0.659,1.84C1491.757,996.952,1518.649,1012.644,1520.137,991.589z"/>
		<path fill="#5EA744" d="M1332.576,977.772c6.935-15.332-23.438-22.056-33.098-18.343c-0.201,0.078-0.328,0.249-0.392,0.438
			c-0.638,0.312-1.079,1.075-0.646,1.89c3.954,7.43,8.936,15.447,15.764,20.561C1321.234,987.583,1328.833,986.048,1332.576,977.772
			z"/>
		<path fill="#5EA744" d="M1499.223,1029.675c13.855-9.549-8.679-30.993-18.867-32.801c-0.216-0.039-0.411,0.042-0.563,0.171
			c-0.708-0.062-1.479,0.364-1.528,1.285c-0.452,8.405-0.326,17.842,2.879,25.747
			C1484.444,1032.217,1491.742,1034.828,1499.223,1029.675z"/>
		<path fill="#5EA744" d="M1178.206,964.458c-6.78,15.4,23.658,21.819,33.28,18.007c0.2-0.08,0.324-0.252,0.389-0.44
			c0.634-0.319,1.067-1.086,0.626-1.896c-4.03-7.391-9.091-15.356-15.97-20.401C1189.447,954.535,1181.865,956.144,1178.206,964.458
			z"/>
		<path fill="#5EA744" d="M1232.428,963.956c5.637,15.855,32.182-0.365,36.566-9.739c0.091-0.197,0.063-0.406-0.021-0.589
			c0.243-0.667,0.032-1.521-0.846-1.808c-8.002-2.611-17.15-4.932-25.615-3.881C1233.795,949.023,1229.385,955.397,1232.428,963.956
			z"/>
		<path fill="#5EA744" d="M1297.828,910.559c-15.903-5.498-19.811,25.365-15.225,34.642c0.096,0.194,0.277,0.305,0.473,0.351
			c0.369,0.606,1.168,0.975,1.941,0.468c7.035-4.62,14.561-10.316,19.024-17.584C1308.64,920.951,1306.414,913.526,1297.828,910.559
			z"/>
		<path fill="#5EA744" d="M1267.938,978.819c-0.081-11.865-21.517-7.213-26.606-1.985c-0.107,0.109-0.139,0.256-0.123,0.396
			c-0.316,0.39-0.373,1.007,0.145,1.401c4.724,3.593,10.279,7.257,16.161,8.518C1263.568,988.446,1267.981,985.223,1267.938,978.819
			z"/>
		<path fill="#5EA744" d="M1254.773,1001.455c7.561-11.896-19.371-19.464-26.939-18.986c-0.021,0.002-0.033,0.012-0.054,0.015
			c-1.133-1.398-3.327,0.392-2.22,1.862c4.633,6.152,7.324,13.391,12.963,18.858
			C1243.906,1008.419,1250.644,1007.951,1254.773,1001.455z"/>
		<g>
			<path fill="#F7B132" d="M1381.001,1000.178c-0.132-0.493-0.485-0.907-1.031-1.051c-2.475-0.651-4.813-1.456-7.392-1.009
				c-1.066,0.183-1.514,1.832-0.665,2.517c1.361,1.1,2.428,2.459,3.53,3.794c-0.943,0.425-1.852,0.937-2.855,1.33
				c-1.04,0.409-1.637,2.093-0.352,2.682c2.172,0.997,4.39,2.409,6.825,2.552c0.435,0.025,0.696-0.302,0.744-0.665
				c0.196-0.065,0.362-0.21,0.409-0.44c0.419-2.001,0.746-4.045,0.926-6.082C1381.221,1002.9,1381.795,1000.948,1381.001,1000.178z"
				/>
			<path fill="#1D1D1B" d="M1401.894,1036.429c-0.587-1.823-3.07-2.707-4.896-2.541c-0.011-0.074-0.024-0.149-0.062-0.223
				c-1.803-3.632-1.771-7.282-0.054-10.941c0.367-0.784-0.711-1.447-1.175-0.687c-2.321,3.809-2.987,8.637-0.112,12.296
				c-1.547,0.967-1.75,3.258-1.442,4.947c0.136,0.739,1.25,0.531,1.268-0.171c0.023-0.971,0.154-2.342,0.894-3.064
				c0.435,0.911,0.916,1.818,1.285,2.756c0.409,1.042,1.931,0.324,1.372-0.579c-0.525-0.851-0.968-1.762-1.43-2.652
				c1.431-0.039,2.377,1.171,3.677,1.532C1401.609,1037.212,1402.023,1036.833,1401.894,1036.429z"/>
			<path fill="#1D1D1B" d="M1412.14,1031.882c-1.396-1.11-3.608-2.241-5.238-1.092c-0.817-1.293-1.644-2.449-2.056-4.048
				c-0.404-1.574-0.146-3.195-0.463-4.757c-0.102-0.497-0.785-0.521-1.025-0.133c-1.655,2.667-0.34,8.553,2.527,10.327
				c-0.14,0.427-0.199,0.882-0.196,1.323c0.007,1.171,0.685,2.075,1.416,2.91c0.326,0.373,0.946-0.021,0.812-0.472
				c-0.273-0.932-0.602-2.523-0.041-3.407c0.005-0.009,0.014-0.01,0.019-0.018c0.035,1.624,0.804,3.935,2.749,3.602
				c0.467-0.081,0.498-0.664,0.254-0.961c-0.396-0.483-0.977-0.73-1.319-1.274c-0.296-0.469-0.443-1.068-0.522-1.627
				c0.777,0.21,1.658,0.821,1.994,1.043C1411.895,1033.86,1412.945,1032.522,1412.14,1031.882z"/>
			<path fill="#FFC808" d="M1417.732,1000.73c-3.894,3.776-8.249,4.631-13.225,5.738c0.407-9.215-8.235-15.87-17.197-12.796
				c-8.461,2.901-10.109,13.711-6.679,20.966c4.391,9.288,14.705,13.251,24.309,9.915c9.795-3.404,14.957-13.083,14.888-22.954
				C1419.82,1000.518,1418.5,999.984,1417.732,1000.73z"/>
			<path fill="#F7B132" d="M1402.379,1010.667c-1.373-0.125-1.362,2.015,0,2.138c0.944,0.086,3.811,0.609,3.121,2.224
				c-0.786,1.841-3.243-0.161-3.979-0.915c-0.539-0.551-1.672-0.171-1.601,0.664c0.028,0.336,0.269,2.876-0.415,2.741
				c-0.902-0.181-1.518-1.771-1.801-2.482c-0.34-0.855-1.488-0.923-1.806,0c-0.334,0.974-1.31,3.374-2.35,1.656
				c-0.761-1.258-0.344-2.906,0.345-4.075c0.419-0.708-0.631-1.573-1.165-0.898c-1.57,1.98-2.065,4.839-0.188,6.813
				c1.652,1.738,3.256,0.434,4.271-1.153c0.667,1.077,1.586,1.992,2.884,1.986c1.398-0.006,1.902-1.319,2.062-2.636
				c1.841,1.167,4.183,1.578,5.484-0.682C1409.11,1012.811,1404.846,1010.893,1402.379,1010.667z"/>
			<path fill="#1D1D1B" d="M1393.268,1002.145c-0.448-0.976-1.322-1.822-2.381-2.077c-2.93-0.705-3.948,2.909-3.854,5.079
				c0.031,0.708,1.088,0.9,1.268,0.171c0.25-1.024,0.898-3.623,2.355-3.553c0.625,0.029,1.094,0.963,1.291,1.438
				c0.438,1.056,0.222,2.303,0.743,3.286c0.22,0.417,0.913,0.437,1.129,0C1394.438,1005.238,1393.821,1003.352,1393.268,1002.145z"
				/>
		</g>
	</g>
</g>
</svg>
