<?xml version="1.0" encoding="utf-8"?>
<!-- Generator: Adobe Illustrator 16.0.0, SVG Export Plug-In . SVG Version: 6.00 Build 0)  -->
<!DOCTYPE svg PUBLIC "-//W3C//DTD SVG 1.1//EN" "http://www.w3.org/Graphics/SVG/1.1/DTD/svg11.dtd">
<svg version="1.1" id="Calque_1" xmlns="http://www.w3.org/2000/svg" xmlns:xlink="http://www.w3.org/1999/xlink" x="0px" y="0px"
	 width="1250px" height="600px" viewBox="0 0 1250 600" enable-background="new 0 0 1250 600" xml:space="preserve">
<g>
	<g>
		<g>
			<path fill="#8EA400" d="M823.118,198.894c-4.64-0.202-6.688,4.887-4.677,8.564c0.443,0.667,0.814,1.373,1.125,2.113
				c1.111,2.793-2.816,2.681-3.943,2.689c-1.268,0.005-2.376,0.061-3.607,0.354c-2.466,0.581-3.189,3.141-4.283,5.072
				c-0.549,0.958,0.933,1.821,1.475,0.862c1.189-2.097,2.063-3.558,3.852-4.203c0.26,1.42,0.43,3.403-0.513,4.365
				c-0.769,0.793,0.438,2.001,1.208,1.212c1.41-1.45,1.32-3.944,0.979-5.918c0.281-0.022,0.574-0.037,0.889-0.037
				c1.359,0.008,3.422,0.056,4.449-1.032c1.101-1.163,1.367-2.271,1.146-3.818c-0.126-0.861-0.872-1.821-1.296-2.526
				c-1.508-2.473-0.098-6.128,3.196-5.988C824.22,200.653,824.215,198.943,823.118,198.894z"/>
			<g>
				<g>
					<g>
						<path fill="#FFC900" d="M834.896,246.096c6.869-20.218,71.109-72.978-0.213-74.023c5.49,4.136,14.85,7.497,11.896,19.966
							c-3.135,13.248-11.482,16.382-18.92,15.811c1.502,3.627,2.01,8.022,0.602,13.282c-5.379,20.055-15.986,32.555-18.457,39.094
							c-2.404,6.358-10.724,34.124,50.689,33.118c-8.055-0.772-18.718-7.313-25.303-13.094
							C828.895,274.723,829.667,261.5,834.896,246.096z"/>
					</g>
					<g>
						<path fill="#FFA200" d="M849.367,196.392c2.953-12.475-8.538-21.574-11.67-21.948c0,0,2.453,10.985,2.431,15.045
							c-0.03,5.124-0.47,8.063-5.114,10.934c-3.508,2.161-6.248,3.26-10.071,3.322c1.735,1.82,2.698,3.894,3.564,6.61
							C835.942,210.926,846.234,209.635,849.367,196.392z"/>
					</g>
				</g>
				<g>
					<path fill="#8EA400" d="M865.225,259.714c9.059,2.391,12.34-3.379,12.002-10.751c-2.803-0.525-5.721-0.843-8.51-0.677
						C850.806,252.782,859.786,258.281,865.225,259.714z"/>
				</g>
				<g>
					<path fill="#C9D840" d="M884.529,250.725c-1.255-2.726-5.046-11.187-7.326-14.616c-0.942-1.413-6.551-7.148-5.336-4.708
						c1.907,3.851,5.181,13.636,5.359,17.563c0.338,7.371-2.943,13.144-12.002,10.752c-5.438-1.435-13.111-7.222,3.494-11.429
						c0.023-0.005,0.035-0.016,0.051-0.026c0,0-0.059,0.012-0.154,0.037c-13.204,0.443-17.453,7.596-16.932,11.9
						c0.967,7.993,9.475,11.057,13.632,11.661c5.741,0.837,17.933,1.039,21.145-6.614
						C887.82,262.001,887.568,257.342,884.529,250.725z"/>
				</g>
				<g>
					<g>
						<path fill="#BACD09" d="M884.529,250.725c0.176,0.392,0.348,0.779,0.508,1.158c0.799-0.063,1.613-0.127,2.438-0.186
							C886.468,251.329,885.475,251.004,884.529,250.725z"/>
					</g>
					<g>
						<path fill="#C9D840" d="M900.508,284.468c10.607-10.321,0.435-21.804-4.648-21.514c-3.383,0.193-6.686,2.629-8.531,4.242
							c0.107,1.921-2.195,3.273-3.682,4.003c-4.185,2.062-9.33,3.069-13.953,3.299c-7.809,0.392-15.119-2.853-19.828-9.133
							c-3.417-4.558-5.027-11.63-5.273-15.783c-0.908-15.358,11.116-24.141,20.166-35.604c6.539-8.283,14.041-21.102,10.756-30.663
							c-2.596-7.546-14.727-17.214-20.93-21.944c-7.339-5.599-15.723-8.815-25.436-7.986c-6.924,0.592-16.709,6.732-20.848,12.525
							c-0.986,1.38-1.012,4.194-1.672,5.708c-1.748,4.012-1.607,4.34-4.037,7.938c-4.901,7.254-3.08,18.569,5.338,21.926
							c4.848,1.935,10.4,2.238,15.559,2.268c0.495,0.002,0.98,0.001,1.456-0.004c3.823-0.062,7.96-0.844,11.349-3.186
							c4.133-2.857,7.073-8.198,7.102-13.321c0.027-4.056-5.521-15.26-5.521-15.26c61.366,3.78,3.149,52.643-5.086,76.878
							c-5.231,15.404-3.969,29.21,2.325,34.736c6.589,5.78,16.771,9.106,24.823,9.883c0.654,0.063,1.297,0.114,1.922,0.144
							c9.299,0.437,19.424-0.396,28.765-3.409c2.666-0.858,5.401-2.06,7.825-3.677C899.055,285.899,899.734,285.217,900.508,284.468
							z"/>
					</g>
					<g>
						<path fill="#BACD09" d="M904.181,280.69c4.075-6.922,0.255-17.736-4.846-22.351c-3.142-2.839-7.649-5.109-11.859-6.641
							c-0.825,0.058-1.64,0.123-2.438,0.186c2.557,6.005,2.701,10.311,1.422,13.36c0.361,0.411,0.641,0.893,0.793,1.456
							c0.043,0.169,0.064,0.338,0.076,0.497c1.846-1.613,5.148-4.048,8.533-4.242c5.082-0.29,15.254,11.19,4.646,21.514
							c-0.773,0.749-1.453,1.431-2.064,2.065C900.755,284.989,902.781,283.065,904.181,280.69z"/>
					</g>
				</g>
				<path fill="#FFFFFF" d="M810.615,168.809l-4.199-2.008c-2.059,1.563-3.387,4.03-3.387,6.809c0,4.404,3.343,8.032,7.641,8.505
					c-0.271-1.158-0.461-3.754-0.461-6.774C810.208,172.519,810.375,170.063,810.615,168.809z"/>
				<path fill="#FFFFFF" d="M820.219,173.399l-8.798-4.205c0.207,1.335,0.341,3.589,0.341,6.147c0,3.058-0.195,5.685-0.471,6.821
					c0.111,0.004,0.221,0.006,0.332,0.006c4.751,0,8.597-3.832,8.597-8.559C820.222,173.54,820.219,173.471,820.219,173.399z"/>
				<path fill="#FFFFFF" d="M832.877,168.809l4.314-2.008c2.109,1.563,3.479,4.03,3.479,6.809c0,4.404-3.434,8.032-7.848,8.505
					c0.281-1.158,0.477-3.754,0.477-6.774C833.299,172.519,833.123,170.063,832.877,168.809z"/>
				<path fill="#FFFFFF" d="M823.016,173.399l9.036-4.205c-0.214,1.335-0.352,3.589-0.352,6.147c0,3.058,0.198,5.685,0.485,6.821
					c-0.115,0.004-0.229,0.006-0.343,0.006c-4.877,0-8.829-3.832-8.829-8.559C823.012,173.54,823.016,173.471,823.016,173.399z"/>
				<g>
					<path fill="#8EA400" d="M819.848,173.215l-10.176-4.728v0.013l-4.398-2.037l-0.146,0.107c-2.297,1.691-3.613,4.258-3.613,7.04
						c0,4.516,3.506,8.296,8.15,8.792l0.301,0.034v0.003l0.034,0.001l0.09,0.009l-0.005-0.006l0.25,0.008
						c0.117,0.004,0.235,0.006,0.353,0.006c5.06,0,9.174-3.97,9.174-8.849c0-0.057-0.003-0.115-0.007-0.221L819.848,173.215z
						 M802.116,173.612c0-2.54,1.175-4.891,3.231-6.469l3.959,1.832c-0.24,1.366-0.387,3.767-0.387,6.367
						c0,2.646,0.154,5.087,0.398,6.432C805.184,181.136,802.116,177.696,802.116,173.612z M810.014,182.136
						c0.006,0.001,0.018,0.001,0.027,0.003l-0.016,0.048L810.014,182.136z M810.712,181.879c0.258-1.324,0.421-3.812,0.421-6.538
						c0-2.185-0.104-4.239-0.283-5.651l8.406,3.896v0.026C819.256,178.161,815.428,181.866,810.712,181.879z"/>
					<path fill="#8EA400" d="M837.258,166.57l-0.15-0.107l-5.918,2.661l0.005,0.002l-9.058,4.088l-0.01,0.396
						c0,4.88,4.226,8.85,9.422,8.85c0.119,0,0.24-0.003,0.365-0.007l0.253-0.008l-0.003,0.007l0.09-0.01l0.037-0.001v-0.002
						l0.305-0.034c4.773-0.496,8.374-4.276,8.374-8.792C840.97,170.828,839.616,168.261,837.258,166.57z M822.745,173.612v-0.026
						l8.636-3.896c-0.18,1.412-0.289,3.467-0.289,5.651c0,2.726,0.166,5.214,0.432,6.538
						C826.682,181.866,822.745,178.161,822.745,173.612z M832.214,182.14c0.009,0,0.017,0,0.026-0.003l-0.014,0.05L832.214,182.14z
						 M832.951,181.773c0.25-1.345,0.406-3.786,0.406-6.432c0-2.6-0.146-5-0.391-6.367l4.067-1.832
						c2.11,1.579,3.317,3.928,3.317,6.469C840.352,177.696,837.199,181.136,832.951,181.773z"/>
				</g>
				<path fill="#FFA200" d="M831.846,224.361c0,0,7.211,0.724,10.217,0.36C842.063,224.721,837.133,227.486,831.846,224.361z"/>
				<path fill="#FFA200" d="M828.359,235.422c0,0,6.248,0.722,8.533,0.602C836.893,236.024,832.169,237.106,828.359,235.422z"/>
				<path fill="#FFA200" d="M823.188,246.24l8.658,0.722C831.846,246.962,827.637,248.162,823.188,246.24z"/>
				<path fill="#FFA200" d="M816.096,258.024c0,0,12.264,0.719,12.982,0.598C829.078,258.621,823.191,260.065,816.096,258.024z"/>
				<path fill="#FFA200" d="M812.13,273.17c0,0,11.181,1.201,16.229,0.24C828.359,273.41,816.697,275.214,812.13,273.17z"/>
			</g>
		</g>
		<path fill="#8EA400" d="M823.126,201.185c0,0,2.341-3.005,4.149-3.926C827.275,197.26,823.463,198.427,823.126,201.185z"/>
		<path fill="#8EA400" d="M813.44,200.953c0,0-1.701-3.41-3.292-4.667C810.148,196.286,813.656,198.182,813.44,200.953z"/>
	</g>
</g>
<g>
	<g>
		<g>
			<path fill="#8EA400" d="M895.4,498.568c4.641-0.203,6.688,4.887,4.677,8.563c-0.442,0.668-0.815,1.373-1.124,2.115
				c-1.111,2.791,2.816,2.68,3.941,2.688c1.27,0.006,2.376,0.061,3.609,0.355c2.465,0.582,3.189,3.142,4.283,5.07
				c0.547,0.959-0.933,1.821-1.477,0.862c-1.188-2.097-2.061-3.558-3.85-4.202c-0.26,1.42-0.43,3.4,0.512,4.365
				c0.77,0.793-0.437,2.002-1.207,1.212c-1.41-1.451-1.321-3.945-0.979-5.919c-0.281-0.023-0.574-0.035-0.891-0.035
				c-1.357,0.008-3.419,0.054-4.449-1.032c-1.1-1.165-1.365-2.271-1.145-3.817c0.127-0.862,0.871-1.823,1.297-2.529
				c1.508-2.471,0.096-6.128-3.197-5.985C894.299,500.324,894.303,498.617,895.4,498.568z"/>
			<g>
				<g>
					<g>
						<path fill="#FFC900" d="M883.621,545.768c-6.868-20.218-71.109-72.978,0.212-74.022c-5.491,4.133-14.851,7.493-11.897,19.963
							c3.139,13.25,11.485,16.383,18.922,15.813c-1.501,3.627-2.01,8.021-0.602,13.281c5.377,20.056,15.986,32.554,18.458,39.094
							c2.401,6.359,10.722,34.123-50.691,33.119c8.056-0.773,18.718-7.314,25.304-13.096
							C889.625,574.396,888.852,561.174,883.621,545.768z"/>
					</g>
					<g>
						<path fill="#FFA200" d="M869.151,496.066c-2.953-12.475,8.538-21.575,11.669-21.948c0,0-2.453,10.985-2.43,15.044
							c0.029,5.125,0.47,8.064,5.113,10.934c3.506,2.164,6.25,3.264,10.071,3.325c-1.735,1.817-2.696,3.892-3.563,6.608
							C882.575,510.597,872.283,509.309,869.151,496.066z"/>
					</g>
				</g>
				<g>
					<path fill="#8EA400" d="M853.292,559.388c-9.056,2.389-12.339-3.381-12.001-10.752c2.801-0.525,5.722-0.844,8.509-0.678
						C867.712,552.456,858.732,557.955,853.292,559.388z"/>
				</g>
				<g>
					<path fill="#C9D840" d="M833.988,550.396c1.256-2.724,5.048-11.185,7.326-14.615c0.942-1.412,6.553-7.15,5.338-4.709
						c-1.908,3.85-5.181,13.637-5.359,17.564c-0.338,7.369,2.943,13.141,12.002,10.752c5.438-1.434,13.109-7.223-3.495-11.43
						c-0.022-0.005-0.034-0.016-0.051-0.025c0,0,0.058,0.013,0.155,0.035c13.203,0.444,17.453,7.598,16.932,11.9
						c-0.969,7.994-9.475,11.059-13.632,11.662c-5.741,0.836-17.933,1.039-21.145-6.615
						C830.697,561.673,830.949,557.016,833.988,550.396z"/>
				</g>
				<g>
					<g>
						<path fill="#BACD09" d="M833.988,550.396c-0.176,0.393-0.348,0.781-0.506,1.158c-0.799-0.063-1.613-0.126-2.44-0.184
							C832.05,551.003,833.044,550.677,833.988,550.396z"/>
					</g>
					<g>
						<path fill="#C9D840" d="M818.01,584.138c-10.607-10.319-0.436-21.801,4.647-21.512c3.384,0.193,6.687,2.629,8.532,4.241
							c-0.109,1.922,2.195,3.274,3.683,4.003c4.183,2.061,9.329,3.069,13.952,3.3c7.807,0.39,15.119-2.854,19.827-9.132
							c3.419-4.559,5.029-11.633,5.274-15.784c0.908-15.359-11.117-24.14-20.165-35.604c-6.54-8.283-14.042-21.102-10.756-30.665
							c2.595-7.543,14.726-17.212,20.929-21.94c7.339-5.6,15.723-8.816,25.436-7.988c6.924,0.596,16.709,6.733,20.848,12.525
							c0.986,1.381,1.012,4.195,1.672,5.708c1.748,4.012,1.607,4.343,4.037,7.938c4.902,7.255,3.08,18.57-5.339,21.927
							c-4.848,1.934-10.4,2.238-15.559,2.268c-0.495,0.004-0.981,0.004-1.454-0.002c-3.822-0.064-7.961-0.846-11.35-3.188
							c-4.132-2.858-7.073-8.197-7.101-13.321c-0.028-4.056,5.52-15.26,5.52-15.26c-61.364,3.78-3.147,52.644,5.085,76.878
							c5.233,15.404,3.971,29.211-2.323,34.734c-6.588,5.781-16.771,9.108-24.824,9.885c-0.653,0.063-1.294,0.113-1.921,0.145
							c-9.299,0.435-19.424-0.396-28.765-3.41c-2.665-0.857-5.402-2.06-7.825-3.677C819.463,585.571,818.783,584.886,818.01,584.138
							z"/>
					</g>
					<g>
						<path fill="#BACD09" d="M814.337,580.363c-4.073-6.92-0.253-17.734,4.848-22.351c3.14-2.839,7.648-5.108,11.857-6.642
							c0.827,0.059,1.642,0.123,2.438,0.184c-2.556,6.007-2.699,10.313-1.42,13.363c-0.361,0.412-0.641,0.893-0.793,1.455
							c-0.045,0.17-0.064,0.339-0.076,0.496c-1.846-1.613-5.148-4.049-8.532-4.24c-5.083-0.29-15.255,11.19-4.648,21.512
							c0.774,0.748,1.454,1.433,2.063,2.067C817.764,584.66,815.737,582.738,814.337,580.363z"/>
					</g>
				</g>
				<path fill="#FFFFFF" d="M907.902,468.482l4.197-2.008c2.06,1.564,3.389,4.029,3.389,6.809c0,4.406-3.344,8.032-7.641,8.504
					c0.271-1.158,0.461-3.753,0.461-6.773C908.311,472.191,908.143,469.737,907.902,468.482z"/>
				<path fill="#FFFFFF" d="M898.3,473.073l8.798-4.206c-0.209,1.336-0.342,3.59-0.342,6.147c0,3.058,0.193,5.686,0.47,6.821
					c-0.112,0.005-0.22,0.008-0.331,0.008c-4.752,0-8.597-3.831-8.597-8.559C898.297,473.213,898.3,473.144,898.3,473.073z"/>
				<path fill="#FFFFFF" d="M885.641,468.482l-4.313-2.008c-2.111,1.564-3.479,4.029-3.479,6.809c0,4.406,3.434,8.032,7.848,8.504
					c-0.281-1.158-0.478-3.753-0.478-6.773C885.22,472.191,885.395,469.737,885.641,468.482z"/>
				<path fill="#FFFFFF" d="M895.502,473.073l-9.034-4.206c0.214,1.336,0.352,3.59,0.352,6.147c0,3.058-0.199,5.686-0.485,6.821
					c0.114,0.005,0.229,0.008,0.342,0.008c4.878,0,8.828-3.831,8.828-8.559C895.506,473.213,895.502,473.144,895.502,473.073z"/>
				<g>
					<path fill="#8EA400" d="M898.664,473.062c-0.004,0.105-0.006,0.164-0.006,0.221c0,4.881,4.115,8.851,9.173,8.851
						c0.118,0,0.235-0.003,0.353-0.009l0.25-0.008l-0.004,0.008l0.089-0.011l0.034-0.002v-0.001l0.299-0.034
						c4.646-0.495,8.152-4.276,8.152-8.794c0-2.784-1.315-5.348-3.613-7.041l-0.147-0.105l-4.398,2.038v-0.014l-10.175,4.728
						L898.664,473.062z M909.199,481.446c0.244-1.346,0.398-3.786,0.398-6.433c0-2.6-0.146-4.998-0.387-6.367l3.959-1.832
						c2.055,1.58,3.231,3.929,3.231,6.469C916.401,477.368,913.334,480.809,909.199,481.446z M908.494,481.863l-0.016-0.049
						c0.01-0.002,0.021-0.002,0.025-0.002L908.494,481.863z M899.262,473.283v-0.024l8.408-3.897
						c-0.18,1.413-0.283,3.467-0.283,5.65c0,2.728,0.162,5.217,0.42,6.537C903.092,481.539,899.262,477.835,899.262,473.283z"/>
					<path fill="#8EA400" d="M877.549,473.283c0,4.518,3.604,8.297,8.374,8.794l0.306,0.034v0.001l0.037,0.002l0.09,0.011
						l-0.004-0.008l0.254,0.008c0.123,0.006,0.244,0.008,0.363,0.008c5.197,0,9.424-3.969,9.424-8.85l-0.012-0.396l-9.055-4.087
						l0.005-0.003l-5.921-2.663l-0.148,0.107C878.902,467.935,877.549,470.499,877.549,473.283z M886.996,481.551
						c0.264-1.322,0.43-3.809,0.43-6.537c0-2.185-0.109-4.239-0.288-5.651l8.637,3.897v0.025
						C895.772,477.835,891.837,481.539,886.996,481.551z M886.291,481.86l-0.012-0.048c0.01,0,0.016,0,0.025,0.002L886.291,481.86z
						 M878.168,473.283c0-2.54,1.207-4.889,3.318-6.469l4.068,1.832c-0.245,1.367-0.391,3.768-0.391,6.367
						c0,2.646,0.154,5.087,0.404,6.433C881.319,480.809,878.168,477.368,878.168,473.283z"/>
				</g>
				<path fill="#FFA200" d="M886.674,524.035c0,0-7.211,0.722-10.218,0.36C876.456,524.394,881.386,527.158,886.674,524.035z"/>
				<path fill="#FFA200" d="M890.16,535.094c0,0-6.249,0.725-8.535,0.604C881.625,535.697,886.35,536.779,890.16,535.094z"/>
				<path fill="#FFA200" d="M895.33,545.914l-8.656,0.721C886.674,546.635,890.881,547.837,895.33,545.914z"/>
				<path fill="#FFA200" d="M902.422,557.696c0,0-12.262,0.72-12.982,0.6C889.439,558.296,895.326,559.739,902.422,557.696z"/>
				<path fill="#FFA200" d="M906.388,572.844c0,0-11.179,1.199-16.228,0.241C890.16,573.085,901.82,574.886,906.388,572.844z"/>
			</g>
		</g>
		<path fill="#8EA400" d="M895.393,500.859c0,0-2.34-3.006-4.15-3.927C891.242,496.932,895.055,498.101,895.393,500.859z"/>
		<path fill="#8EA400" d="M905.077,500.627c0,0,1.7-3.41,3.292-4.666C908.369,495.961,904.861,497.856,905.077,500.627z"/>
	</g>
</g>
<g>
	<path fill="#6F3634" d="M476.288,156.22c1.411-2.191,6.511-2.321,6.511-2.321c-7.646-3.822-17.266,3.808-18.008,4.41
		c-13.133-0.085-6.841,12.976-4.156,21.731c0.815,2.66,0.905,6.933-0.353,9.569c-2.132,4.462-6.826,3.271-10.864,1.792
		c-5.514-2.021-10.924-5.951-17.01-3.725c-2.639,0.964-1.499,5.205,1.166,4.231c5.839-2.137,12.063,3.232,17.613,4.643
		c5.644,1.432,11.008-2.249,12.652-7.741c1.293-4.301-0.934-9.279-2.213-13.327c-0.892-2.821-1.799-5.695-1.967-8.666
		c-0.229-3.982,3.003-4.274,6.244-4.087c0.584,0.034,1.039-0.132,1.38-0.409c0,0.009,0.004,0.016,0.004,0.024
		c0,1.465,6.13,1.285,11.097,1.6c8.959,0.563,12.747-6.392,12.747-6.392C480.469,151.565,476.587,156.751,476.288,156.22z"/>
	<path fill="#FFB614" d="M401.712,168.603c-33.415-0.777-45.115,10.767-57.42,27.174c-4.103,3.59-28.712-38.452-14.87-96.387
		c10.258-42.933,18.269-50.468,16.519-63.505c5.433,2.141,15.381,3.104,17.319,1.981c3.584-2.077,5.523-7.803,9.41-10.866
		c0.795-0.627-1.272-1.544-1.992-1.129c-0.716,0.415-3.491,1.405-8.514-0.481c-5.022-1.886-13.163,3.334-14.228,3.874
		c-0.563,0.285-2.148,0.868-3.511,1.352c-0.731-1.55-1.725-2.973-2.989-4.281c2.063-2.379,4.449-5.052,6.057-6.626
		c1.333,0.66,2.957,0.427,3.949-0.698c1.198-1.356,1.017-3.474-0.402-4.728c-1.423-1.255-3.545-1.173-4.742,0.184
		c-0.764,0.864-0.962,2.033-0.646,3.095c-1.173,1.097-4.178,3.84-7.227,6.243c-2.516-1.74-5.732-3.229-9.745-4.5
		c0.921-2.903,1.985-6.103,2.792-8.096c1.491,0.074,2.889-0.787,3.35-2.212c0.56-1.722-0.45-3.591-2.252-4.177
		c-1.807-0.585-3.719,0.336-4.277,2.056c-0.354,1.096-0.074,2.249,0.642,3.095c-0.626,1.434-2.215,4.984-3.996,8.321
		c-1.489-0.322-3.016-0.567-4.574-0.723c-0.679-0.786-2.156-2.511-2.523-3.076c-0.476-0.739-3.733-7.1-7.627-7.71
		c-3.892-0.609-5.294-2.266-5.598-2.796c-0.303-0.532-1.957-0.691-1.683,0.006c1.346,3.408,0.47,7.835,1.985,10.493
		c0.453,0.794,2.702,2.066,5.334,3.146c-27.997,2.84-69.498,35.479-48.055,53.304c30.354,25.235,43.479-7.268,49.281-13.07
		c5.126-5.127,11.646-1.073,10.767,3.588c-0.88,4.662-18.457,94.851-14.355,153.298c1.676,23.879,23.206,62.036,27.279,76.393h7.043
		c3.417-24.938,17.188-53.834,49.504-53.834c32.492,0,48.598,29.562,51.996,53.666h6.549
		C450.261,290.971,467.854,170.142,401.712,168.603z"/>
	<g>
		<path fill="#FFFFFF" d="M316.24,28.624c-2.778-0.563-5.629,1.371-7.187,4.563c1.402-1.966,3.422-3.058,5.394-2.655
			c3.02,0.613,4.782,4.5,3.931,8.677c-0.787,3.876-3.546,6.642-6.353,6.529c0.224,0.081,0.456,0.149,0.691,0.198
			c3.52,0.714,7.16-2.581,8.132-7.36C321.823,33.795,319.756,29.34,316.24,28.624z"/>
		<path fill="#6F3634" d="M318.379,39.208c0.852-4.178-0.912-8.063-3.931-8.677c-1.972-0.401-3.991,0.689-5.394,2.655
			c-0.417,0.851-0.739,1.792-0.944,2.798c-0.905,4.456,0.826,8.628,3.917,9.753C314.833,45.849,317.592,43.084,318.379,39.208z"/>
	</g>
	<g>
		<path fill="#FFFFFF" d="M300.087,22.424c-2.777-0.563-5.629,1.371-7.186,4.563c1.402-1.965,3.421-3.055,5.393-2.655
			c3.021,0.614,4.783,4.5,3.933,8.677c-0.788,3.876-3.548,6.643-6.354,6.53c0.224,0.082,0.455,0.147,0.694,0.197
			c3.518,0.715,7.158-2.581,8.131-7.359C305.669,27.595,303.604,23.14,300.087,22.424z"/>
		<path fill="#6F3634" d="M302.228,33.007c0.851-4.178-0.911-8.063-3.933-8.677c-1.971-0.399-3.991,0.69-5.393,2.655
			c-0.416,0.851-0.74,1.792-0.944,2.798c-0.907,4.457,0.826,8.628,3.916,9.753C298.68,39.649,301.438,36.884,302.228,33.007z"/>
	</g>
	<g>
		<path fill="#6F3634" d="M301.162,55.523c0.1-0.035,0.196-0.073,0.292-0.106c1.095-0.375,0.398-2.404-0.691-2.031
			c-1.427,0.488-2.794,1.075-3.934,2.139c-0.86,0.799,0.25,2.613,1.116,1.804c0.492-0.454,1.014-0.802,1.565-1.093
			c1.708,5.729,1.729,12.902-0.888,17.682c1.167-1.057,2.255-2.186,3.269-3.341C302.976,65.833,302.613,60.267,301.162,55.523z"/>
	</g>
	
		<ellipse transform="matrix(-0.6712 -0.7413 0.7413 -0.6712 407.8636 306.2717)" fill="#6F3634" cx="271.862" cy="62.673" rx="1.044" ry="2.534"/>
	
		<ellipse transform="matrix(-0.6714 -0.7411 0.7411 -0.6714 413.3365 316.9542)" fill="#6F3634" cx="276.932" cy="66.847" rx="1.045" ry="2.534"/>
	<polygon fill="#6F3634" points="366.16,193.749 371.354,194.398 372.002,200.67 368.541,204.781 363.349,203.266 	"/>
	<polygon fill="#6F3634" points="410.312,189.277 414.486,190.469 414.784,194.942 410.609,196.731 	"/>
	<polygon fill="#6F3634" points="331.003,216.109 334.682,206.867 347.192,202.396 348.42,207.165 350.382,210.742 345.72,215.811 
		340.817,220.284 333.946,219.39 	"/>
	<polygon fill="#6F3634" points="388.292,198.39 398.033,198.153 400.173,202.192 399.937,206.47 393.52,209.084 388.765,209.322 
		384.487,208.133 383.776,201.717 	"/>
	<polygon fill="#6F3634" points="421.952,196.692 430.984,196.472 432.97,200.219 432.748,204.184 426.8,206.608 422.393,206.828 
		418.424,205.726 417.764,199.778 	"/>
	<g>
		<path fill="#FFB614" d="M322.04,124.877l0.299,4.473l-4.174,1.79l-0.297-7.454L322.04,124.877z M319.796,184.966l-5.254,4.567
			l-4.265-2.318l-0.764-3.312l1.493-6.087l8.189-4.869l4.393,3.575L319.796,184.966z"/>
		<path fill="#6F3634" d="M339.333,49.446l3.419,5.264c1.873-5.502,3.074-9.55,3.344-13.574l-7.358,2.943L339.333,49.446z"/>
		<path fill="#6F3634" d="M322.636,170.792l3.876,5.963l5.16-1.082c-1.281-3.783-2.473-8.04-3.476-12.71l-6.155,2.462
			L322.636,170.792z"/>
		<path fill="#6F3634" d="M336.052,27.383l1.563-4.103c-2.009-1.276-4.423-2.412-7.287-3.42l-2.028,1.56L336.052,27.383z"/>
		<path fill="#6F3634" d="M326.511,72.403l-0.893-8.646l-3.741-0.467c-0.486,2.564-1.397,7.458-2.538,14.077l2.402,0.701
			L326.511,72.403z"/>
		<path fill="#6F3634" d="M312.641,147.817l-2.818-0.396c-0.598,6.264-1.119,12.604-1.533,18.928l5.403-7.175L312.641,147.817z"/>
		<path fill="#6F3634" d="M369.236,187.337l6.618-7.86l-0.815-7.917c-5.42,1.635-9.937,3.891-13.894,6.654l-1.839,6.226
			L369.236,187.337z"/>
		<polygon fill="#6F3634" points="322.339,129.349 322.04,124.877 317.868,123.685 318.165,131.139 		"/>
		<path fill="#6F3634" d="M335.755,66.739l-2.086,6.56l0.595,4.473l0.762,0.464c1.579-5.336,3.045-9.847,4.362-13.744l-0.651-0.435
			L335.755,66.739z"/>
		<path fill="#6F3634" d="M319.953,91.783v-4.174l-2.36,0.236c-0.622,3.846-1.274,8.018-1.936,12.445l3.4-1.054L319.953,91.783z"/>
		<path fill="#6F3634" d="M330.091,77.771l-4.771,0.894l-1.193,6.858l2.385,8.943h4.1c1.126-4.49,2.218-8.566,3.27-12.272
			l-1.107-2.336L330.091,77.771z"/>
		<path fill="#6F3634" d="M385.904,186.413h7.857L398.314,174l-2.56-5.4c-4.562,0.105-8.667,0.477-12.413,1.078l-0.75,4.322
			L385.904,186.413z"/>
		<polygon fill="#6F3634" points="311.007,177.817 309.514,183.904 310.277,187.216 314.542,189.534 319.796,184.966 
			323.589,176.523 319.196,172.948 		"/>
		<path fill="#6F3634" d="M315.479,133.523l-2.682-5.664l-0.79-0.615c-0.6,4.965-1.171,10.058-1.698,15.223h1.891L315.479,133.523z"
			/>
		<path fill="#6F3634" d="M409.555,184.618h7.859l4.06-11.071c-4.315-2.295-9.187-3.865-14.672-4.553l-0.558,3.211L409.555,184.618z
			"/>
		<path fill="#6F3634" d="M322.338,114.74l1.789,6.858l1.667-0.088c0.479-5.427,1.271-11.056,2.449-16.861l-4.415,0.849
			L322.338,114.74z"/>
		<path fill="#6F3634" d="M353.047,195.24l1.158-11.202c-2.668,2.637-5.136,5.535-7.568,8.646l0.744,2.854L353.047,195.24z"/>
		<path fill="#6F3634" d="M318.463,111.163l-0.895-4.473l-2.879,0.229c-0.521,3.644-1.04,7.428-1.551,11.318l5.324-2.903V111.163
			L318.463,111.163z"/>
		<path fill="#6F3634" d="M321.741,140.083l0.298,9.243l4.678,5.482c-0.941-6.32-1.501-13.233-1.493-20.64l-1.991,0.249
			L321.741,140.083z"/>
		<path fill="#6F3634" d="M313.99,207.464l-0.896-3.279l-2.684-10.138l-3.158,0.759c-0.017,6.919,0.172,13.617,0.616,19.941
			c0.255,3.655,0.846,7.647,1.685,11.834l8.61-11.663L313.99,207.464z"/>
		<path fill="#6F3634" d="M443.699,290.971h6.553c0,0,0.2-2.716,0.405-7.312h-8.301
			C442.904,286.109,443.359,288.557,443.699,290.971z"/>
		<path fill="#6F3634" d="M342.201,291.14c0.346-2.521,0.78-5.081,1.288-7.648h-10.365c0.751,2.97,1.443,5.564,2.036,7.648H342.201z
			"/>
	</g>
</g>
<g>
	<g>
		<g>
			<path fill="#F29900" d="M126.178,261.038c2.984-6.064,10.627-5.804,15.089-2.554c-2.307,5.014-4.045,8.32-3.255,9.25
				c1.131,1.334,4.974,4.257,4.46,9.096c-0.287,1.967-8.814,2.227-11.226,2.092c-1.293-0.071-2.933-0.114-4.362-0.446
				C125.933,272.24,126.178,261.038,126.178,261.038z"/>
			<path fill="#FBB03B" d="M86.209,216.011c2.191-8.089,14.317-19.617,24.466-22.55c5.868-1.694,12.131-3.508,18.957-3.686
				c23.396-0.609,42.835,12.354,44.334,29.22c1.423,5.828,1.535,11.694,0.765,16.527c-0.986,6.197-1.358,13.954-5.839,23.685
				c-4.482,9.729-8.477,16.147-7.002,17.688c1.475,1.538,8.805,4.927,7.795,10.258c-0.517,2.168-11.251,2.959-14.566,2.678
				c-3.883-0.33-9.655-1.614-9.892-5.195c-0.237-3.58-0.767-14.071-0.589-20.063c0.072-2.449-1.311-4.587-3.371-6.09
				c-4.462-3.25-12.105-3.511-15.089,2.554c0,0-0.245,11.202,0.706,17.438c0.146,0.962,0.32,1.811,0.531,2.477
				c1.565,4.982,0.233,8.129-3.232,9.516c-5.102,2.041-14.112,0.574-16.58-0.51c-2.467-1.086-2.471-5.125-0.969-8.035
				c1.503-2.907,1.469-4.2,0.846-6.05c-0.401-1.192-3.734-9.698-5.679-18.948c-1.106,2.104-1.73,2.729-2.459,3.951
				c-2,3.353-1.183,6.674-0.859,9.206c0.272,2.134,2.325,3.212,2.325,3.212s2.312,1.653,2.76,5.238
				c0.505,4.043-3.725,5.58-5.056,5.896c-3.918,0.937-9.784,0.682-13.65-0.169c-8.394-1.846-2.762-10.828-2.256-14.199
				c0.661-4.412-0.432-10.748-1.114-15.291C79.975,244.659,84.132,223.683,86.209,216.011z"/>
		</g>
		<g>
			<g>
				<path fill="#FBB03B" d="M48.315,247.262c4.823,2.571,9.162,6.155,16.21,5.445c4.799-0.483,9.306-2.974,13.032-6.545
					c3.381-3.241,4.096-6.608,2.521-9.409c-1.576-2.801-4.768-4.438-6.435-7.188c-0.489-0.805-0.749-1.747-0.381-2.77
					c0.039-0.104,0.09-0.182,0.467-0.527c-0.603,0.555,0.566-0.313-0.211,0.153c0.14-0.084,1.292-0.613,0.607-0.327
					c1.367-0.57,2.312-0.72,3.933-0.958c1.75-0.258,3.486-0.224,5.129-0.154c3.157,0.131,6.214,0.865,8.428,2.362
					c0.201,0.136,0.311,0.248,0.479,0.41c1.657,1.597,8.17-1.557,6.343-3.319c-4.145-3.996-12.251-4.521-19.449-3.459
					c-3.405,0.5-7.2,1.753-10.111,4.197c-2.8,2.354-2.787,4.964-1.885,7.107c1.714,4.081,13.068,8.86,3.073,14.974
					c-5.731,3.508-11.927-1.374-15.331-3.461c-0.279-0.172-0.565-0.337-0.859-0.496C51.783,242.184,45.646,245.836,48.315,247.262
					L48.315,247.262z"/>
			</g>
			<g>
				<path fill="#ED6E31" d="M37.584,232.098c2.124,2.158,4.387,4.19,6.737,6.01c-3.45-2.325-6.496-5.04-9.903-7.193
					c-2.709-1.714-4.871-2.47-4.878-2.457c0.186,3.091,0.602,6.469,2.304,9.021c2.903,4.356,4.699,5.815,10.239,7.551
					c-4.233-1.14-5.625-1.145-9.072-3.833c2.965,4.711,7.453,7.249,8.831,7.406c7.545,0.861,9.844-2.924,9.809-3.032
					c3.234-2.012,3.682-5.604-0.027-8.694C49.344,234.977,43.319,234.228,37.584,232.098z"/>
			</g>
		</g>
		<g>
			<g>
				<path fill="#F14924" d="M203.92,215.852c2.447-5.618,4.957-11.215,7.527-16.792c-21.236-8.612-43.273-15.713-65.97-21.156
					c-0.715,1.471-1.425,2.944-2.13,4.418C164.688,192.104,184.917,203.356,203.92,215.852z"/>
				<path fill="#F18126" d="M198.822,137.255c-5.136-4.379-10.378-8.681-15.726-12.896c-15.173,16.804-29.14,34.292-41.868,52.31
					c1.207,1.141,2.407,2.286,3.601,3.436C161.489,164.839,179.509,150.482,198.822,137.255z"/>
				<path fill="#F14924" d="M206.598,175.499c-1.549-6.08-3.164-12.152-4.842-18.22c-20.235,5.481-39.788,12.241-58.564,20.142
					c0.387,1.577,0.77,3.155,1.151,4.734C164.752,178.555,185.542,176.313,206.598,175.499z"/>
				<path fill="#F18126" d="M199.295,191.557c0.099-6.195,0.187-12.391,0.264-18.587c-18.713,0.62-37.243,2.364-55.511,5.188
					c-0.039,1.617-0.079,3.235-0.116,4.854C162.595,184.739,181.079,187.6,199.295,191.557z"/>
				<path fill="#ED6E31" d="M149.877,116.938c-6.591,0.097-13.179,0.321-19.761,0.67c2.491,20.072,4.821,40.159,6.993,60.258
					c1.555,0.121,3.109,0.25,4.662,0.386C144.163,157.792,146.863,137.35,149.877,116.938z"/>
				<path fill="#F18126" d="M173.051,118.767c-6.818-2.014-13.697-3.892-20.63-5.629c-5.484,21.167-10.408,42.423-14.769,63.742
					c1.58,0.598,3.153,1.203,4.722,1.814C151.574,158.408,161.804,138.399,173.051,118.767z"/>
				<path fill="#ED6E31" d="M187.371,131.072c-5.81-3.656-11.717-7.211-17.719-10.662c-12.205,18.742-23.337,37.927-33.381,57.443
					c1.355,0.971,2.707,1.946,4.047,2.928C154.672,163.473,170.371,146.838,187.371,131.072z"/>
				<path fill="#F14924" d="M202.618,149.438c-3.991-5.187-8.088-10.323-12.291-15.409c-17.908,13.067-34.648,27.1-50.168,41.912
					c0.96,1.338,1.913,2.677,2.86,4.021C161.786,168.57,181.684,158.326,202.618,149.438z"/>
				<path fill="#F18126" d="M210.863,164.347c-2.353-5.901-4.788-11.788-7.307-17.655c-21.794,8.36-42.557,18.18-62.185,29.247
					c0.575,1.524,1.148,3.053,1.716,4.58C164.93,173.521,187.57,168.075,210.863,164.347z"/>
				<path fill="#ED6E31" d="M211.489,186.733c-0.052-6.204-0.124-12.41-0.216-18.617c-22.585,0.747-44.87,3.119-66.719,7.025
					c-0.003,1.622-0.004,3.244-0.006,4.866C166.998,180.625,189.359,182.875,211.489,186.733z"/>
				<path fill="#F18126" d="M205.442,206.624c1.656-5.646,3.348-11.288,5.076-16.918c-21.817-5.663-44.083-9.756-66.655-12.209
					c-0.487,1.48-0.969,2.963-1.448,4.446C164.26,188.682,185.311,196.966,205.442,206.624z"/>
				<path fill="#ED6E31" d="M196.337,224.974c3.214-5.166,6.514-10.295,9.899-15.389c-19.41-11.753-39.963-22.227-61.537-31.203
					c-0.958,1.34-1.91,2.683-2.854,4.027C161.382,195.45,179.577,209.723,196.337,224.974z"/>
				<path fill="#ED6E31" d="M186.681,225.505c3.568-4.91,7.232-9.774,10.99-14.59c-16.687-11.688-34.393-22.432-53.044-32.058
					c-1.065,1.261-2.122,2.523-3.172,3.793C157.695,196.145,172.787,210.489,186.681,225.505z"/>
				<path fill="#F14924" d="M179.762,236.577c4.313-4.119,8.731-8.17,13.25-12.147c-14.667-15.752-30.66-30.76-47.918-44.812
					c-1.316,1.02-2.625,2.042-3.929,3.072C155.311,200.067,168.187,218.085,179.762,236.577z"/>
				<path fill="#F18126" d="M167.618,245.579c4.937-3.086,9.965-6.084,15.086-8.987c-11.146-19.099-23.601-37.761-37.339-55.819
					c-1.527,0.692-3.049,1.393-4.564,2.102C150.776,203.491,159.719,224.427,167.618,245.579z"/>
				<path fill="#F14924" d="M154.31,249.771c5.321-2.094,10.71-4.082,16.167-5.96c-7.593-20.867-16.184-41.53-25.767-61.902
					c-1.64,0.378-3.276,0.766-4.908,1.163C145.196,205.223,150.033,227.464,154.31,249.771z"/>
				<path fill="#ED6E31" d="M144,255.354c5.464-1.333,10.973-2.552,16.521-3.657c-4.839-21.073-10.316-42.063-16.425-62.935
					c-1.657,0.146-3.315,0.3-4.971,0.463C140.876,211.262,142.504,233.305,144,255.354z"/>
				<path fill="#ED6E31" d="M126.077,252.427c5.643,0.237,11.271,0.593,16.881,1.063c0.249-22.521,0.612-45.043,1.09-67.566
					c-1.636-0.339-3.279-0.669-4.92-0.99C134.1,207.359,129.75,229.869,126.077,252.427z"/>
				<path fill="#F18126" d="M101.605,234.788c5.4,2.405,10.717,4.913,15.951,7.521c6.978-19.409,14.903-38.644,23.767-57.613
					c-1.373-0.929-2.753-1.851-4.14-2.767C124.095,199.038,112.229,216.712,101.605,234.788z"/>
				<path fill="#F14924" d="M110.408,242.934c5.597,1.498,11.136,3.111,16.614,4.836c4.272-21.104,9.231-42.141,14.876-63.07
					c-1.515-0.693-3.037-1.38-4.564-2.06C127.238,202.439,118.26,222.576,110.408,242.934z"/>
				<path fill="#ED6E31" d="M92.388,229.631c5.021,3.263,9.946,6.611,14.774,10.047c10.257-18.779,21.783-37.182,34.554-55.041
					c-1.176-1.155-2.36-2.306-3.551-3.451C121.526,196.501,106.25,212.726,92.388,229.631z"/>
				<path fill="#ED6E31" d="M79.627,214.45c4.077,4.545,8.059,9.145,11.951,13.794c14.952-15.354,31.236-29.913,48.796-43.458
					c-0.781-1.435-1.566-2.868-2.359-4.299C117.448,190.501,97.953,201.895,79.627,214.45z"/>
				<path fill="#ED6E31" d="M69.853,197.5c2.895,5.422,5.728,10.87,8.5,16.342c17.402-10.85,35.735-20.649,54.92-29.243
					c-0.404-1.571-0.811-3.143-1.22-4.712C110.833,184.325,90.059,190.225,69.853,197.5z"/>
				<path fill="#ED6E31" d="M76.381,162.247c-0.624,6.217-1.202,12.434-1.736,18.648c21.441-0.556,42.709,0.389,63.685,2.762
					c0.505-1.548,1.014-3.094,1.53-4.64C119.431,172.032,98.23,166.39,76.381,162.247z"/>
				<path fill="#F18126" d="M68.68,177.64c1.016,6.097,2.032,12.192,3.044,18.291c21.715-5.578,43.816-9.571,66.161-11.936
					c0.139-1.618,0.279-3.232,0.419-4.852C115.348,176.916,92.086,176.39,68.68,177.64z"/>
				<path fill="#F14924" d="M77.942,154.747c-1.433,5.899-2.803,11.806-4.112,17.713c21.49,1.978,42.547,5.434,63.049,10.252
					c0.675-1.42,1.355-2.841,2.041-4.259C119.507,169.282,99.145,161.32,77.942,154.747z"/>
				<path fill="#F18126" d="M83.396,137.77c-3.313,5.622-6.521,11.274-9.631,16.958c21.838,7.662,42.689,16.795,62.441,27.188
					c1.076-1.254,2.159-2.505,3.248-3.751C122.055,163.66,103.343,150.122,83.396,137.77z"/>
				<path fill="#F14924" d="M101.503,124.464c-5.195,4.416-10.28,8.911-15.255,13.481c17.722,13.361,34.299,27.654,49.678,42.706
					c1.407-0.904,2.821-1.803,4.241-2.693C128.364,159.645,115.468,141.775,101.503,124.464z"/>
				<path fill="#ED6E31" d="M121.403,114.233c-6.563,2.701-13.045,5.527-19.447,8.474c12.336,18.476,23.699,37.381,34.072,56.629
					c1.624-0.468,3.252-0.927,4.885-1.378C135.008,156.598,128.504,135.347,121.403,114.233z"/>
				<path fill="#F14924" d="M139.5,113.105c-7.099,1.165-14.161,2.475-21.183,3.928c6.769,20.765,12.988,41.658,18.656,62.647
					c1.688-0.113,3.38-0.218,5.07-0.311C141.225,157.282,140.377,135.192,139.5,113.105z"/>
			</g>
			<g>
				<g>
					<path fill="#FBB850" d="M106.745,194.563c0.153-0.488,3.284-39.493,33.146-40.314c29.863-0.82,35.129,37.955,35.31,38.435
						c1.829,4.86,5.47,8.195,5.602,12.975c0.4,14.558-16.948,26.846-38.744,27.444c-21.799,0.6-39.794-10.716-40.194-25.275
						C101.734,203.05,105.187,199.52,106.745,194.563z"/>
					<path fill="#42210B" d="M127.784,209.268c0.106,3.861,11.497,6.681,13.802,6.618c2.303-0.063,13.522-3.505,13.417-7.366
						C154.896,204.657,127.678,205.406,127.784,209.268z"/>
					<g>
						<path fill="#FFFFFF" d="M153.14,178.364c3.34-0.091,6.178,4.625,6.34,10.535c0.021,0.739-0.001,1.46-0.063,2.159
							c-0.001-0.034,0-0.067-0.001-0.101c-0.132-4.773-2.891-8.572-6.162-8.482c-3.274,0.09-5.82,4.033-5.688,8.809
							c0,0.033,0.003,0.066,0.004,0.102c-0.099-0.695-0.162-1.415-0.181-2.152C147.226,183.322,149.801,178.455,153.14,178.364z"/>
						<path d="M153.253,182.476c3.271-0.089,6.03,3.709,6.162,8.482c0,0.033,0,0.066,0.001,0.101
							c-0.429,4.893-2.767,8.628-5.688,8.709c-2.922,0.081-5.461-3.522-6.159-8.383c-0.001-0.035-0.004-0.068-0.004-0.102
							C147.433,186.51,149.979,182.565,153.253,182.476z"/>
						<path fill="#FFFFFF" d="M128.1,183.167c-3.271,0.089-5.818,4.033-5.688,8.811c0.001,0.034,0.004,0.065,0.005,0.1
							c-0.1-0.694-0.161-1.414-0.182-2.151c-0.163-5.911,2.412-10.777,5.752-10.869c3.338-0.092,6.177,4.626,6.34,10.537
							c0.02,0.738-0.002,1.459-0.063,2.157c0-0.032,0-0.065,0-0.099C134.133,186.875,131.374,183.077,128.1,183.167z"/>
						<path d="M122.417,192.076c0-0.033-0.004-0.065-0.005-0.1c-0.131-4.777,2.417-8.721,5.688-8.811
							c3.273-0.089,6.033,3.709,6.164,8.484c0,0.033,0,0.065,0,0.099c-0.429,4.894-2.766,8.628-5.689,8.71
							C125.652,200.54,123.114,196.937,122.417,192.076z"/>
					</g>
					<path fill="#42210B" d="M141.129,215.661c0.35,0.051,0.655,0.082,0.898,0.092c0.004,1.463,0.026,2.989,0.07,4.56
						c0.134,4.916,0.443,9.394,0.84,12.773c-0.063,0.003-0.122,0.006-0.18,0.009c-0.529,0.014-1.054,0.019-1.577,0.02
						c0.209-3.395,0.269-7.873,0.135-12.78C141.272,218.722,141.209,217.157,141.129,215.661z"/>
				</g>
				<g>
					<path fill="#FBB850" d="M113.771,164.379c2.825,0.693,6.84-0.987,8.923-3.735l0.681-0.897c2.082-2.749,2.615-7.069,1.182-9.602
						l-4.69-8.297c-1.433-2.531-4.931-4.063-9.03-1.605c-3.662,2.194-9.188,9.487-10.309,13.604
						c-1.258,4.613,1.161,7.564,3.986,8.26L113.771,164.379z"/>
					<path fill="#FDD18C" d="M114.223,162.202c2.17,0.523,5.268-0.792,6.88-2.923l0.529-0.694c1.614-2.13,2.043-5.467,0.952-7.416
						l-3.575-6.385c-1.092-1.948-3.776-3.114-6.941-1.2c-2.826,1.709-7.109,7.362-7.993,10.545
						c-0.985,3.565,0.862,5.834,3.034,6.359L114.223,162.202z"/>
				</g>
				<g>
					<path fill="#FBB850" d="M166.764,163.064c-2.783,0.849-6.885-0.61-9.115-3.239l-0.729-0.859
						c-2.23-2.63-2.999-6.914-1.708-9.521l4.227-8.543c1.292-2.606,4.7-4.326,8.929-2.098c3.775,1.988,9.696,8.968,11.041,13.018
						c1.51,4.536-0.743,7.617-3.527,8.464L166.764,163.064z"/>
					<path fill="#FDD18C" d="M166.192,160.915c-2.139,0.644-5.303-0.5-7.033-2.539l-0.564-0.665
						c-1.729-2.039-2.342-5.348-1.359-7.353l3.221-6.571c0.982-2.006,3.599-3.317,6.863-1.58c2.917,1.551,7.504,6.962,8.559,10.09
						c1.182,3.505-0.54,5.872-2.678,6.515L166.192,160.915z"/>
				</g>
			</g>
		</g>
	</g>
</g>
<g>
	<g>
		<path fill="#8AB6C7" d="M1149.299,258.298c-0.003,0,5.329,6.924,3.661,12.681c-0.177,0.603-0.371,1.226-0.574,1.854
			c-3.287,2.498-9.58,2.862-13.566,3.465c-5.762,0.879-13.867-1.474-18.567-6.181c-4.562-4.572,1.47-12.076,3.135-15.621
			C1130.366,252.256,1139.658,252.303,1149.299,258.298z"/>
		<path fill="#A1C5D2" d="M1081.571,263.642c1.535-3.504,1.384-18.068,1.161-22.957c-0.262-5.649-2.448-19.363-1.563-36.713
			c4.236-79.227,87.021-62.618,102.395-61.161c34.471,3.968,41.071,49.646,41.838,62.168c3.457,6.461,8.14,12.769,13.936,15.142
			c7.144,2.932-6.352,1.586-7.502,1.371c-2.568-0.463-4.878-1.365-6.934-2.404c-1.341,8.743-3.918,20.057-4.029,22.846
			c-0.148,4.002-1.223,10.728,4.34,20.74c5.576,10.01-2.259,13.308-7.252,15.015c-4.986,1.709-17.089,1.802-24.008-1.552
			c-6.426-3.113-3.229-10.04-1.678-15.607c1.548-5.562-3.647-12.188-3.646-12.188c-1.596-0.972-3.175-1.771-4.735-2.428
			c-0.563,2.819-0.963,5.031-1.015,6.081c-0.196,4.147-1.38,11.108,4.3,21.543c5.697,10.436-2.48,13.773-7.69,15.487
			c-5.203,1.727-17.786,1.693-24.948-1.854c-5.948-2.943-3.854-8.979-2.154-14.337c0.203-0.63,0.397-1.253,0.574-1.854
			c1.668-5.757-3.664-12.68-3.661-12.681c-9.641-5.994-18.933-6.042-25.913-3.801c-5.5,1.771-9.56,4.959-11.156,7.79
			c-3.625,6.422,0.834,8.778,1.41,16.063c0.579,7.285-10.426,7.558-16.426,8.393c-6,0.848-14.404-1.682-19.238-6.616
			C1073.146,275.196,1080.04,267.146,1081.571,263.642z"/>
		<g>
			<path fill="#8AB6C7" d="M1173.998,159.166c-3.126,13.774-8.139,31.566-14.933,43.893c-1.268,2.296-2.401,4.405-3.442,6.39
				c0.154-0.096,0.279-0.185,0.334-0.252c0,0,2.49,4.985,4.586,6.448c4.157,2.902,9.469,8.336-2.539,7.315
				c-2.985-0.256-5.663-1.298-7.669-2.59c-6.295,14.697,5.334,22.028,10.956,27.303c7.318,6.883-3.063,4.396-4.152,6.05
				c-2.084,3.182-5.11,1.114-6.774,0.84c-4.415-0.701-30.628-18.869-36.169-34.196c-0.512-1.396-1.232-2.743-2.093-4.053
				c-0.919,1.581-2.114,3.167-3.608,4.596c-9.741,9.286-9.448,1.341-7.685-3.917c0.713-2.124,1.119-8.188,1.259-10.521
				c-4.863-3.532-10.531-6.726-16.046-9.658c-1.32-0.083-2.59-0.197-3.823-0.333
				C1091.078,154.808,1147.065,156.807,1173.998,159.166z"/>
		</g>
		<g>
			<path fill="#FFFFFF" d="M1172.918,221.293c0,0,2.074,4.948,4,6.48c3.819,3.044,8.581,8.593-2.934,6.881
				c-6.282-0.941-10.899-5.414-10.445-7.766C1163.995,224.53,1172.244,222.021,1172.918,221.293z"/>
			<path fill="#FFFFFF" d="M1121.245,214.525c0,0-0.979,8.441-2.009,10.935c-2.043,4.953-2.848,12.57,7.147,4.231
				c5.449-4.555,7.498-11.241,5.854-13.049C1130.594,214.834,1122.258,214.763,1121.245,214.525z"/>
			<g>
				<path fill="#ADCBD5" d="M1175.917,169.927c-6.134,11.877-19.52,20.839-27.346,20.103c-18.38-1.716-29.352-53.735-24.132-77.224
					c5.196-23.626,14.819-37.248,36.433-35.226c15.7,1.469,31.747,9.435,32.026,25.381
					C1193.202,120.26,1183.809,154.747,1175.917,169.927z"/>
				<path fill="#CADEE6" d="M1054.985,67.756c19.701,2.301,34.183,11.729,39.446,28.902c12.104-8.533,27.158-12.969,43.043-11.481
					c34.488,3.258,65.082,26.356,61.168,69.608c-0.133,1.508-8.929,40.02-22.322,60.796c-18.73,28.973-6.325,35.442,0.302,42.5
					c6.592,7.06-3.252,4.039-4.412,5.565c-2.224,2.932-5.001,0.764-6.588,0.396c-4.208-0.938-29.37-19.463-33.705-34.536
					c-2.783-9.524-14.535-17.513-25.619-24.333c-23.204-2.927-30.984-13.712-37.223-28.731
					c-9.842,11.816-21.794,17.526-31.637,16.368c-23.154-2.717-36.142-61.791-29.188-87.963
					C1015.165,78.513,1027.875,64.566,1054.985,67.756z"/>
				<path fill="#9BC0CC" d="M1177.696,190.458c-0.026-0.003-16.349-10.514-37.558-0.363
					C1140.154,190.115,1165.488,184.894,1177.696,190.458z"/>
				<path fill="#9BC0CC" d="M1172.335,208.18c-0.015-0.001-12.706-7.53-28.521,0.683
					C1143.822,208.873,1162.914,204.278,1172.335,208.18z"/>
				<path fill="#9BC0CC" d="M1167.688,224.11c-0.013-0.001-10.705-6.794-24.103,1.635
					C1143.594,225.753,1159.747,220.687,1167.688,224.11z"/>
				<g>
					<path fill="#FFFFFF" d="M1122.566,145.679c-3.188,0.68-5,4.728-4.034,9.046c0.281,1.269,0.776,2.411,1.408,3.384
						c-1.267-1.42-2.261-3.313-2.75-5.5c-1.176-5.288,1.016-10.238,4.884-11.065c3.868-0.822,7.965,2.777,9.165,8.061
						c0.884,3.894-0.068,7.607-2.188,9.631c1.201-1.737,1.661-4.311,1.057-6.987
						C1129.128,147.934,1125.755,144.994,1122.566,145.679z"/>
					<path fill="#1A1A1A" d="M1119.94,158.109c-0.632-0.974-1.127-2.116-1.408-3.384c-0.966-4.318,0.847-8.366,4.034-9.046
						c3.188-0.686,6.562,2.255,7.54,6.568c0.604,2.677,0.146,5.25-1.057,6.987c-0.754,0.717-1.652,1.228-2.675,1.446
						C1124.095,161.17,1121.739,160.121,1119.94,158.109z"/>
				</g>
				<g>
					<path fill="#FFFFFF" d="M1176.394,141.267c-3.213,0.542-5.204,4.508-4.444,8.862c0.225,1.278,0.666,2.438,1.25,3.442
						c-1.199-1.474-2.101-3.405-2.486-5.613c-0.929-5.333,1.486-10.183,5.379-10.84c3.897-0.657,7.82,3.124,8.773,8.453
						c0.699,3.929-0.423,7.601-2.63,9.525c1.275-1.684,1.855-4.232,1.377-6.934C1182.834,143.81,1179.604,140.726,1176.394,141.267z
						"/>
					<path fill="#1A1A1A" d="M1173.198,153.572c-0.584-1.004-1.025-2.164-1.25-3.442c-0.76-4.354,1.231-8.319,4.444-8.862
						c3.214-0.542,6.44,2.542,7.219,6.896c0.479,2.701-0.102,5.25-1.377,6.934c-0.788,0.684-1.709,1.154-2.738,1.328
						C1177.198,156.811,1174.897,155.662,1173.198,153.572z"/>
				</g>
			</g>
		</g>
	</g>
</g>
<g>
	<path fill="#42210B" d="M623.218,235.016c-0.979-1.366-3.539-2.12-5.188-1.074c-9.538,6.032-22.58,10.088-34.622,8.701
		c-4.183-0.482-8.4-1.837-10.74-4.92c-2.063-2.718-1.942-6.159-1.111-9.2c0.979-3.579,3.41-6.689,4.345-10.293
		c0.91-3.521,0.927-7.321-0.387-10.766c-3.111-8.167-15.283-11.228-23.693-6.605c-3.834,2.104-6.767,5.744-7.005,9.639
		c-0.219,3.537,1.86,7.11,5.773,8.638c3.021,1.18,6.858,1.184,9.681-0.425c3.402-1.939,3.813-5.522,1.582-8.284
		c-2.704-3.348-9.11-0.16-6.539,3.202c-0.733,0.072-1.455-0.105-2.03-0.528c-3.23-2.371,1.407-6.71,4.215-7.642
		c3.308-1.095,7.84-0.094,9.572,1.893c1.938,2.218,2.204,5.431,1.751,8.15c-0.626,3.73-2.78,6.49-4.149,10.109
		c-1.421,3.76-1.665,7.894-0.42,11.7c2.998,9.169,14.756,12.068,24.859,11.896c11.571-0.196,23.604-3.999,32.818-9.83
		C623.575,238.336,624.362,236.612,623.218,235.016z"/>
	<path fill="#42210B" d="M688.692,275.148c-0.416-0.718-2.739-3.633-4.252-5.773c0.327-0.268,0.398-1.354,0.398-1.861
		c0-0.819-1.313-2.92-1.343-2.918c-0.474-5.488-1.749-22.497-2.183-25.068c-0.524-3.096-8-32.029-9.547-36.22
		c-4.258-11.545-21.582-18.519-34.641-20.096c-3.421-1.249-7.12-1.932-10.979-1.932c-3.901,0-7.637,0.699-11.09,1.975
		c-13.586,1.698-27.126,8.508-33.679,20.053c-2.205,3.886-9.021,33.124-9.545,36.22c-0.435,2.571-1.71,19.58-2.182,25.068
		c-0.03-0.002-1.345,2.099-1.345,2.918c0,0.508,0.072,1.595,0.399,1.861c-1.514,2.142-3.783,5.057-4.2,5.773
		c-0.438,0.754-3.053,1.466-2.265,4.609c0.248,0.653-0.084,2.123,0.617,2.396c0.182,0.07,2.485,1.316,4.984,0.404
		c1.48,0.865,4.4,0.245,5.013,0.184c0.358,0.265,3.176,0.35,3.922,0.227c0.955-0.154,3.308-0.122,3.471-0.729
		c0.979-0.313-0.556-7.054-0.556-8.475c0-1.418-1.089-7.472-1.229-8.755c-0.417-3.783,0.588-21.702,2.354-26.512
		c2.477-6.74,9.927-18.466,13.598-24.762c0.246,7.822,3.369,14.924,8.361,20.3c-3.907,2.732-17.68,13.916-9.866,31.307
		c0,0-7.403,5.161-9.213,7.824c-1.812,2.664-2.195,5.577,0.848,5.68c3.077,0,14.631,1.096,16.275-0.569
		c1.646-1.664,0.584-2.849,4.729-3.348c4.169,0.066,0.961-4.385-0.793-5.188c-1.258-1.942-0.607-25.035,21.387-25.54
		c0.374,0,0.744-0.014,1.116-0.027l0.01,0.027c21.995,0.505,22.645,23.598,21.388,25.54c-1.754,0.804-4.962,5.255-0.794,5.188
		c4.147,0.499,3.084,1.684,4.73,3.348c1.646,1.665,13.198,0.569,16.275,0.569c3.042-0.103,2.656-3.016,0.847-5.68
		c-1.81-2.663-9.213-7.824-9.213-7.824c8.4-18.697-8.148-30.222-10.565-31.777c4.95-5.548,7.959-12.836,7.959-20.823
		c0-0.155-0.005-0.31-0.008-0.464c3.229,5.761,11.753,18.919,14.437,26.221c1.767,4.81,2.771,22.729,2.354,26.513
		c-0.141,1.282-1.229,7.336-1.229,8.754c0,1.421-1.538,8.16-0.559,8.475c0.164,0.605,2.519,0.573,3.474,0.729
		c0.746,0.122,3.562,0.037,3.921-0.228c0.612,0.063,3.531,0.683,5.013-0.184c2.499,0.912,4.805-0.334,4.985-0.404
		c0.701-0.271,0.37-1.741,0.618-2.395C691.693,276.614,689.129,275.902,688.692,275.148z"/>
	<ellipse fill="#754C24" cx="626.764" cy="212.258" rx="28.642" ry="29.649"/>
	<path fill="#42210B" d="M671.651,179.111c0,5.013-1.766,9.146-8.686,9.146c-6.919,0-8.687-4.133-8.687-9.146
		c0-5.016,1.768-9.147,8.687-9.147C669.887,169.964,671.651,174.096,671.651,179.111z"/>
	<path fill="#42210B" d="M584.345,179.111c0,5.013,1.768,9.146,8.687,9.146c6.918,0,8.687-4.133,8.687-9.146
		c0-5.016-1.769-9.147-8.687-9.147C586.111,169.964,584.345,174.096,584.345,179.111z"/>
	<path fill="#D1B08A" d="M669.523,179.111c0,4.361-1.46,7.957-7.174,7.957s-7.174-3.596-7.174-7.957c0-4.363,1.46-7.96,7.174-7.96
		S669.523,174.748,669.523,179.111z"/>
	<path fill="#D1B08A" d="M586.473,179.111c0,4.361,1.461,7.957,7.175,7.957s7.174-3.596,7.174-7.957c0-4.363-1.46-7.96-7.174-7.96
		S586.473,174.748,586.473,179.111z"/>
	<path fill="#D1B08A" d="M658.204,177.309c0-16.835-6.316-30.484-29.868-30.484c-23.553,0-29.869,13.649-29.869,30.484
		c0,3.484,0.234,6.831,0.819,9.948c-1.594,2.646-2.165,5.69-2.165,8.937c0,10.12,13.623,18.325,30.43,18.325
		c16.806,0,30.429-8.205,30.429-18.325c0-2.367-0.112-6.159-0.896-8.236C658.032,184.227,658.204,181.638,658.204,177.309z"/>
	<path fill="#42210B" d="M658.361,177.309c0-16.835-6.336-30.484-29.966-30.484c-0.004,0-0.007,0-0.011,0c-0.002,0-0.004,0-0.006,0
		c-0.015,0-0.024,0-0.039,0c-23.582,0.022-29.909,13.661-29.909,30.484c0,3.484,0.234,6.831,0.823,9.948
		c-0.722,1.193-1.232,2.471-1.579,3.811c1.005-1.687,1.854-2.604,3.42-3.439c-0.549-3.076-0.769-6.377-0.769-9.813
		c0-5.915,0.752-11.431,2.719-16.082c-0.043,0.115-0.089,0.229-0.132,0.346c2.773-4.245,7.702-7.071,13.322-7.071
		c4.835,0,9.158,2.093,12.038,5.379c2.88-3.286,7.204-5.379,12.038-5.379c5.943,0,11.117,3.16,13.784,7.819
		c1.643,4.413,2.281,9.53,2.281,14.988c0,4.271-0.161,6.823-1.052,10.503c1.198,0.5,1.977,2.053,2.652,3.642
		c-0.125-1.5-0.352-2.964-0.742-4.001C658.19,184.227,658.361,181.638,658.361,177.309z"/>
	<ellipse cx="617.694" cy="169.801" rx="2.186" ry="2.801"/>
	<ellipse cx="639.268" cy="169.801" rx="2.187" ry="2.801"/>
	<path fill="none" stroke="#000000" stroke-width="0.75" stroke-linecap="round" stroke-linejoin="round" d="M627.942,187.844
		c0,0,2.688,10.424,0,25.681"/>
	<path d="M627.271,183.361c0,0-1.44-1.184-3.25-1.121c-3.25,0.112-3.925,2.466-1.904,2.129
		C624.004,184.055,623.683,182.352,627.271,183.361z"/>
	<path d="M628.817,183.361c0,0,1.441-1.184,3.252-1.121c3.248,0.112,3.922,2.466,1.904,2.129
		C632.085,184.055,632.404,182.352,628.817,183.361z"/>
</g>
<rect x="-436.467" y="-504.119" fill="none" width="1354.291" height="1015.716"/>
<g>
	<path fill="#6F3634" d="M271.111,456.22c-1.411-2.19-6.511-2.321-6.511-2.321c7.646-3.822,17.266,3.809,18.008,4.41
		c13.133-0.085,6.841,12.977,4.156,21.731c-0.815,2.66-0.905,6.933,0.353,9.568c2.132,4.463,6.826,3.271,10.864,1.793
		c5.514-2.021,10.924-5.951,17.01-3.726c2.638,0.964,1.499,5.206-1.166,4.231c-5.839-2.137-12.063,3.232-17.614,4.643
		c-5.643,1.432-11.007-2.248-12.652-7.741c-1.293-4.301,0.934-9.279,2.213-13.327c0.892-2.82,1.799-5.695,1.967-8.666
		c0.228-3.982-3.003-4.273-6.244-4.088c-0.584,0.035-1.039-0.132-1.38-0.408c0,0.009-0.004,0.017-0.004,0.023
		c0,1.465-6.13,1.286-11.097,1.6c-8.959,0.563-12.747-6.392-12.747-6.392C266.931,451.565,270.813,456.753,271.111,456.22z"/>
	<path fill="#FFB614" d="M345.688,468.604c33.414-0.777,45.114,10.767,57.42,27.174c4.103,3.59,28.712-38.453,14.869-96.388
		c-10.259-42.933-18.269-50.468-16.518-63.505c-5.433,2.141-15.382,3.104-17.321,1.98c-3.584-2.077-5.522-7.804-9.41-10.866
		c-0.793-0.627,1.275-1.544,1.993-1.129c0.717,0.415,3.491,1.405,8.516-0.481c5.021-1.886,13.162,3.334,14.227,3.873
		c0.563,0.286,2.148,0.868,3.511,1.352c0.731-1.55,1.727-2.973,2.99-4.281c-2.063-2.379-4.45-5.052-6.057-6.626
		c-1.333,0.66-2.956,0.427-3.948-0.698c-1.199-1.355-1.018-3.473,0.401-4.728c1.423-1.255,3.545-1.173,4.74,0.184
		c0.766,0.864,0.964,2.033,0.646,3.096c1.174,1.096,4.178,3.84,7.227,6.242c2.517-1.74,5.732-3.229,9.744-4.5
		c-0.92-2.903-1.983-6.104-2.792-8.097c-1.491,0.074-2.888-0.786-3.349-2.212c-0.562-1.722,0.45-3.591,2.252-4.177
		c1.807-0.586,3.719,0.336,4.277,2.056c0.354,1.095,0.073,2.249-0.644,3.095c0.627,1.435,2.216,4.984,3.998,8.321
		c1.488-0.323,3.014-0.566,4.574-0.723c0.678-0.786,2.155-2.511,2.521-3.075c0.477-0.739,3.734-7.101,7.627-7.711
		c3.893-0.608,5.294-2.266,5.599-2.796c0.302-0.532,1.956-0.691,1.683,0.006c-1.346,3.407-0.469,7.835-1.984,10.493
		c-0.453,0.793-2.702,2.065-5.336,3.146c27.997,2.84,69.498,35.479,48.056,53.305c-30.354,25.234-43.479-7.269-49.281-13.07
		c-5.125-5.127-11.646-1.073-10.766,3.588c0.88,4.662,18.457,94.852,14.354,153.299c-1.675,23.88-23.206,62.035-27.278,76.393
		h-7.044c-3.418-24.938-17.188-53.834-49.504-53.834c-32.491,0-48.598,29.562-51.996,53.665h-6.548
		C297.139,590.971,279.546,470.142,345.688,468.604z"/>
	<g>
		<path fill="#FFFFFF" d="M431.159,328.624c2.777-0.563,5.63,1.371,7.186,4.563c-1.4-1.966-3.422-3.058-5.394-2.655
			c-3.021,0.613-4.781,4.499-3.932,8.677c0.787,3.877,3.547,6.643,6.354,6.529c-0.225,0.082-0.455,0.149-0.692,0.198
			c-3.519,0.714-7.16-2.581-8.132-7.36C425.576,333.795,427.643,329.34,431.159,328.624z"/>
		<path fill="#6F3634" d="M429.021,339.207c-0.851-4.178,0.911-8.063,3.932-8.677c1.972-0.401,3.992,0.689,5.394,2.655
			c0.417,0.851,0.74,1.792,0.944,2.798c0.906,4.456-0.826,8.628-3.916,9.753C432.566,345.849,429.808,343.084,429.021,339.207z"/>
	</g>
	<g>
		<path fill="#FFFFFF" d="M447.313,322.424c2.776-0.563,5.629,1.371,7.186,4.563c-1.402-1.966-3.422-3.056-5.393-2.655
			c-3.021,0.614-4.783,4.5-3.935,8.679c0.789,3.876,3.548,6.641,6.354,6.528c-0.224,0.082-0.454,0.147-0.693,0.197
			c-3.518,0.715-7.158-2.581-8.131-7.359C441.73,327.595,443.795,323.14,447.313,322.424z"/>
		<path fill="#6F3634" d="M445.172,333.008c-0.85-4.178,0.912-8.063,3.935-8.678c1.971-0.399,3.989,0.689,5.393,2.655
			c0.415,0.851,0.74,1.792,0.943,2.798c0.906,4.457-0.826,8.629-3.916,9.754C448.72,339.648,445.961,336.884,445.172,333.008z"/>
	</g>
	<g>
		<path fill="#6F3634" d="M446.237,355.523c-0.102-0.035-0.196-0.073-0.292-0.106c-1.097-0.374-0.399-2.404,0.69-2.031
			c1.428,0.488,2.794,1.075,3.935,2.14c0.858,0.8-0.25,2.612-1.115,1.804c-0.492-0.453-1.015-0.803-1.565-1.093
			c-1.708,5.729-1.729,12.901,0.889,17.682c-1.166-1.058-2.254-2.187-3.27-3.341C444.424,365.834,444.786,360.267,446.237,355.523z"
			/>
	</g>
	
		<ellipse transform="matrix(-0.6712 0.7413 -0.7413 -0.6712 1063.5883 253.5479)" fill="#6F3634" cx="475.558" cy="362.674" rx="1.044" ry="2.534"/>
	
		<ellipse transform="matrix(-0.6712 0.7412 -0.7412 -0.6712 1058.2212 264.3375)" fill="#6F3634" cx="470.489" cy="366.847" rx="1.046" ry="2.534"/>
	<polygon fill="#6F3634" points="381.238,493.748 376.045,494.398 375.396,500.671 378.857,504.781 384.051,503.266 	"/>
	<polygon fill="#6F3634" points="337.088,489.277 332.913,490.469 332.615,494.941 336.79,496.73 	"/>
	<polygon fill="#6F3634" points="416.396,516.109 412.718,506.867 400.207,502.396 398.979,507.165 397.018,510.742 401.68,515.811 
		406.582,520.284 413.453,519.39 	"/>
	<polygon fill="#6F3634" points="359.107,498.39 349.366,498.152 347.227,502.191 347.463,506.47 353.88,509.085 358.635,509.322 
		362.912,508.134 363.623,501.718 	"/>
	<polygon fill="#6F3634" points="325.447,496.691 316.415,496.472 314.43,500.219 314.651,504.184 320.6,506.608 325.007,506.828 
		328.976,505.726 329.636,499.777 	"/>
	<g>
		<path fill="#FFB614" d="M429.531,423.686l-0.297,7.453l-4.175-1.789l0.3-4.473L429.531,423.686z M423.811,476.523l4.394-3.576
			l8.188,4.869l1.492,6.088l-0.762,3.313l-4.266,2.316l-5.255-4.565L423.811,476.523z"/>
		<path fill="#6F3634" d="M408.066,349.446l-3.421,5.264c-1.872-5.502-3.072-9.55-3.344-13.574l7.359,2.943L408.066,349.446z"/>
		<path fill="#6F3634" d="M424.764,470.791l-3.877,5.964l-5.159-1.081c1.28-3.784,2.474-8.04,3.477-12.71l6.156,2.463
			L424.764,470.791z"/>
		<path fill="#6F3634" d="M411.348,327.383l-1.563-4.102c2.009-1.276,4.423-2.412,7.286-3.421l2.027,1.56L411.348,327.383z"/>
		<path fill="#6F3634" d="M420.889,372.403l0.894-8.646l3.741-0.468c0.485,2.564,1.396,7.458,2.537,14.077l-2.401,0.701
			L420.889,372.403z"/>
		<path fill="#6F3634" d="M434.759,447.817l2.819-0.395c0.597,6.263,1.118,12.604,1.533,18.927l-5.403-7.174L434.759,447.817z"/>
		<path fill="#6F3634" d="M378.164,487.339l-6.621-7.861l0.817-7.916c5.421,1.635,9.937,3.891,13.893,6.654l1.839,6.225
			L378.164,487.339z"/>
		<polygon fill="#6F3634" points="425.061,429.35 425.359,424.878 429.531,423.686 429.234,431.139 		"/>
		<path fill="#6F3634" d="M411.645,366.738l2.087,6.561l-0.596,4.473l-0.761,0.464c-1.579-5.336-3.046-9.846-4.363-13.744
			l0.652-0.435L411.645,366.738z"/>
		<path fill="#6F3634" d="M427.446,391.783v-4.174l2.359,0.236c0.622,3.846,1.275,8.018,1.937,12.444l-3.4-1.054L427.446,391.783z"
			/>
		<path fill="#6F3634" d="M417.309,377.771l4.771,0.894l1.193,6.857l-2.386,8.944h-4.1c-1.126-4.491-2.219-8.567-3.271-12.272
			l1.107-2.336L417.309,377.771z"/>
		<path fill="#6F3634" d="M361.495,486.412h-7.858L349.085,474l2.559-5.399c4.563,0.104,8.667,0.477,12.413,1.077l0.751,4.322
			L361.495,486.412z"/>
		<polygon fill="#6F3634" points="436.393,477.816 437.885,483.904 437.123,487.217 432.857,489.533 427.604,484.968 
			423.811,476.523 428.203,472.947 		"/>
		<path fill="#6F3634" d="M431.92,433.523l2.682-5.664l0.79-0.615c0.602,4.966,1.172,10.058,1.698,15.224h-1.89L431.92,433.523z"/>
		<path fill="#6F3634" d="M337.845,484.618h-7.858l-4.061-11.07c4.316-2.295,9.188-3.865,14.672-4.554l0.559,3.211L337.845,484.618z
			"/>
		<path fill="#6F3634" d="M425.062,414.74l-1.787,6.857l-1.668-0.089c-0.479-5.426-1.271-11.055-2.449-16.86l4.415,0.85
			L425.062,414.74z"/>
		<path fill="#6F3634" d="M394.352,495.24l-1.157-11.201c2.668,2.638,5.137,5.534,7.567,8.646l-0.744,2.854L394.352,495.24z"/>
		<path fill="#6F3634" d="M428.937,411.163l0.896-4.473l2.88,0.229c0.521,3.644,1.039,7.428,1.549,11.318l-5.322-2.903v-4.172
			H428.937z"/>
		<path fill="#6F3634" d="M425.658,440.084l-0.299,9.242l-4.679,5.482c0.941-6.32,1.502-13.234,1.492-20.639l1.992,0.248
			L425.658,440.084z"/>
		<path fill="#6F3634" d="M433.41,507.465l0.895-3.28l2.685-10.137l3.156,0.758c0.018,6.92-0.172,13.618-0.615,19.942
			c-0.255,3.654-0.847,7.646-1.686,11.834l-8.609-11.664L433.41,507.465z"/>
		<path fill="#6F3634" d="M303.7,590.971h-6.553c0,0-0.2-2.715-0.405-7.312h8.301C304.495,586.109,304.04,588.557,303.7,590.971z"/>
		<path fill="#6F3634" d="M405.199,591.14c-0.348-2.521-0.781-5.081-1.288-7.647h10.364c-0.751,2.97-1.443,5.563-2.035,7.647
			H405.199z"/>
	</g>
</g>
<rect x="599.351" y="99.988" fill="none" width="1040.124" height="780.088"/>
<g>
	<g>
		<path fill="#8AB6C7" d="M1098.49,557.295c0.003,0.001-5.329,6.923-3.661,12.68c0.177,0.603,0.371,1.226,0.574,1.854
			c3.287,2.498,9.58,2.862,13.566,3.466c5.762,0.878,13.867-1.475,18.567-6.182c4.561-4.572-1.47-12.076-3.135-15.621
			C1117.423,551.253,1108.131,551.3,1098.49,557.295z"/>
		<path fill="#A1C5D2" d="M1166.218,562.638c-1.535-3.504-1.384-18.067-1.161-22.957c0.262-5.649,2.448-19.362,1.563-36.714
			c-4.236-79.226-87.021-62.617-102.395-61.16c-34.471,3.968-41.071,49.646-41.838,62.168c-3.457,6.461-8.14,12.77-13.936,15.143
			c-7.144,2.932,6.352,1.586,7.502,1.371c2.568-0.463,4.878-1.364,6.934-2.403c1.342,8.742,3.918,20.056,4.029,22.846
			c0.149,4.002,1.223,10.727-4.34,20.74c-5.576,10.009,2.259,13.307,7.252,15.014c4.987,1.709,17.089,1.802,24.008-1.552
			c6.426-3.113,3.229-10.04,1.678-15.607c-1.548-5.562,3.647-12.188,3.646-12.188c1.596-0.973,3.175-1.771,4.735-2.429
			c0.563,2.819,0.964,5.031,1.015,6.081c0.197,4.147,1.38,11.108-4.3,21.543c-5.697,10.436,2.48,13.773,7.69,15.487
			c5.203,1.727,17.786,1.693,24.948-1.854c5.948-2.944,3.854-8.98,2.154-14.338c-0.203-0.63-0.397-1.253-0.574-1.854
			c-1.668-5.757,3.664-12.679,3.661-12.68c9.641-5.995,18.933-6.042,25.913-3.803c5.5,1.771,9.56,4.959,11.156,7.79
			c3.625,6.422-0.834,8.778-1.41,16.063c-0.579,7.285,10.426,7.558,16.426,8.393c6,0.849,14.404-1.682,19.238-6.616
			C1174.644,574.192,1167.749,566.143,1166.218,562.638z"/>
		<g>
			<path fill="#8AB6C7" d="M1073.791,458.162c3.126,13.774,8.139,31.566,14.933,43.893c1.268,2.296,2.401,4.406,3.442,6.39
				c-0.154-0.096-0.279-0.185-0.334-0.252c0,0-2.49,4.984-4.586,6.448c-4.157,2.903-9.469,8.337,2.539,7.314
				c2.985-0.256,5.663-1.297,7.669-2.59c6.295,14.697-5.334,22.028-10.956,27.303c-7.318,6.884,3.063,4.396,4.152,6.05
				c2.084,3.183,5.11,1.114,6.774,0.84c4.415-0.7,30.628-18.868,36.169-34.195c0.512-1.396,1.232-2.742,2.093-4.053
				c0.919,1.581,2.114,3.168,3.608,4.596c9.741,9.286,9.448,1.342,7.685-3.916c-0.713-2.124-1.119-8.188-1.259-10.521
				c4.863-3.531,10.531-6.726,16.046-9.658c1.32-0.082,2.59-0.197,3.823-0.334C1156.711,453.805,1100.724,455.803,1073.791,458.162z
				"/>
		</g>
		<g>
			<path fill="#FFFFFF" d="M1074.871,520.289c0,0-2.074,4.949-4,6.48c-3.819,3.045-8.581,8.594,2.934,6.881
				c6.282-0.939,10.899-5.414,10.445-7.766C1083.794,523.525,1075.545,521.017,1074.871,520.289z"/>
			<path fill="#FFFFFF" d="M1126.544,513.521c0,0,0.979,8.441,2.009,10.936c2.043,4.952,2.848,12.57-7.147,4.23
				c-5.449-4.555-7.498-11.241-5.854-13.049C1117.195,513.83,1125.531,513.76,1126.544,513.521z"/>
			<g>
				<path fill="#ADCBD5" d="M1071.872,468.925c6.134,11.877,19.519,20.839,27.346,20.103c18.38-1.716,29.352-53.734,24.132-77.224
					c-5.196-23.628-14.819-37.248-36.433-35.226c-15.7,1.469-31.747,9.435-32.026,25.381
					C1054.587,419.256,1063.979,453.743,1071.872,468.925z"/>
				<path fill="#CADEE6" d="M1192.804,366.752c-19.702,2.301-34.183,11.729-39.447,28.902
					c-12.104-8.533-27.157-12.969-43.043-11.482c-34.487,3.259-65.082,26.357-61.168,69.609c0.134,1.508,8.93,40.021,22.323,60.797
					c18.73,28.974,6.325,35.441-0.302,42.5c-6.592,7.061,3.252,4.039,4.412,5.566c2.224,2.932,5.001,0.764,6.588,0.396
					c4.208-0.938,29.37-19.464,33.705-34.537c2.783-9.524,14.535-17.513,25.619-24.332c23.204-2.929,30.984-13.713,37.223-28.732
					c9.842,11.817,21.794,17.527,31.637,16.368c23.154-2.717,36.142-61.79,29.188-87.964
					C1232.624,377.509,1219.914,363.563,1192.804,366.752z"/>
				<path fill="#9BC0CC" d="M1070.093,489.455c0.026-0.004,16.349-10.514,37.558-0.363
					C1107.635,489.111,1082.301,483.891,1070.093,489.455z"/>
				<path fill="#9BC0CC" d="M1075.454,507.177c0.015,0,12.706-7.529,28.521,0.684
					C1103.967,507.869,1084.875,503.274,1075.454,507.177z"/>
				<path fill="#9BC0CC" d="M1080.101,523.106c0.013-0.001,10.705-6.794,24.103,1.635
					C1104.195,524.75,1088.042,519.683,1080.101,523.106z"/>
				<g>
					<path fill="#FFFFFF" d="M1125.223,444.676c3.188,0.681,5,4.728,4.034,9.046c-0.281,1.269-0.776,2.41-1.408,3.385
						c1.267-1.42,2.261-3.313,2.75-5.5c1.176-5.287-1.016-10.238-4.884-11.065c-3.868-0.822-7.965,2.777-9.165,8.061
						c-0.884,3.895,0.068,7.609,2.188,9.631c-1.201-1.736-1.661-4.31-1.057-6.986C1118.661,446.93,1122.034,443.99,1125.223,444.676
						z"/>
					<path fill="#1A1A1A" d="M1127.849,457.105c0.631-0.975,1.127-2.116,1.408-3.385c0.966-4.318-0.847-8.365-4.034-9.046
						c-3.188-0.686-6.562,2.255-7.54,6.568c-0.604,2.678-0.146,5.25,1.057,6.986c0.754,0.718,1.652,1.229,2.675,1.446
						C1123.694,460.166,1126.05,459.117,1127.849,457.105z"/>
				</g>
				<g>
					<path fill="#FFFFFF" d="M1071.396,440.264c3.214,0.542,5.205,4.508,4.445,8.862c-0.225,1.277-0.666,2.438-1.25,3.441
						c1.199-1.474,2.1-3.405,2.486-5.613c0.929-5.333-1.486-10.184-5.379-10.84c-3.897-0.656-7.82,3.124-8.773,8.453
						c-0.699,3.929,0.423,7.602,2.63,9.524c-1.275-1.684-1.855-4.232-1.377-6.934
						C1064.955,442.806,1068.184,439.723,1071.396,440.264z"/>
					<path fill="#1A1A1A" d="M1074.591,452.568c0.584-1.004,1.025-2.164,1.25-3.441c0.76-4.354-1.232-8.32-4.445-8.862
						s-6.439,2.542-7.218,6.896c-0.479,2.7,0.102,5.25,1.377,6.934c0.788,0.685,1.709,1.154,2.738,1.329
						C1070.591,455.807,1072.892,454.658,1074.591,452.568z"/>
				</g>
			</g>
		</g>
	</g>
</g>
<rect x="785.119" y="124.153" fill="none" width="1040.124" height="780.089"/>
<g>
	<path fill="#42210B" d="M621.278,535.016c0.979-1.366,3.539-2.12,5.188-1.074c9.538,6.032,22.58,10.088,34.622,8.701
		c4.183-0.482,8.4-1.837,10.74-4.92c2.063-2.717,1.942-6.159,1.111-9.2c-0.979-3.579-3.41-6.689-4.345-10.293
		c-0.911-3.52-0.927-7.321,0.387-10.765c3.111-8.167,15.283-11.229,23.693-6.606c3.834,2.105,6.767,5.744,7.005,9.639
		c0.219,3.537-1.86,7.11-5.773,8.638c-3.021,1.18-6.858,1.184-9.681-0.424c-3.402-1.94-3.813-5.523-1.582-8.285
		c2.704-3.348,9.11-0.16,6.539,3.203c0.733,0.071,1.455-0.106,2.03-0.529c3.23-2.371-1.407-6.71-4.215-7.642
		c-3.308-1.095-7.84-0.094-9.572,1.893c-1.938,2.218-2.204,5.431-1.751,8.15c0.626,3.73,2.78,6.49,4.149,10.109
		c1.421,3.76,1.665,7.895,0.42,11.7c-2.998,9.169-14.756,12.069-24.859,11.896c-11.571-0.196-23.604-3.999-32.818-9.83
		C620.921,538.337,620.134,536.612,621.278,535.016z"/>
	<path fill="#42210B" d="M555.804,575.148c0.416-0.718,2.739-3.633,4.252-5.773c-0.328-0.268-0.398-1.354-0.398-1.861
		c0-0.819,1.313-2.92,1.343-2.918c0.474-5.488,1.749-22.497,2.183-25.068c0.524-3.096,8-32.029,9.547-36.22
		c4.258-11.545,21.582-18.519,34.641-20.095c3.421-1.249,7.12-1.933,10.979-1.933c3.901,0,7.637,0.699,11.09,1.976
		c13.586,1.697,27.126,8.507,33.679,20.052c2.205,3.886,9.021,33.124,9.545,36.22c0.435,2.571,1.71,19.58,2.182,25.068
		c0.03-0.002,1.345,2.099,1.345,2.918c0,0.508-0.072,1.595-0.399,1.861c1.514,2.142,3.783,5.057,4.2,5.773
		c0.438,0.754,3.053,1.466,2.265,4.61c-0.248,0.652,0.084,2.123-0.617,2.395c-0.182,0.07-2.485,1.316-4.984,0.404
		c-1.48,0.866-4.4,0.245-5.014,0.184c-0.357,0.266-3.175,0.351-3.921,0.228c-0.955-0.155-3.308-0.123-3.471-0.729
		c-0.98-0.313,0.556-7.054,0.556-8.475c0-1.418,1.089-7.471,1.229-8.754c0.417-3.784-0.588-21.703-2.354-26.513
		c-2.477-6.739-9.927-18.466-13.598-24.762c-0.246,7.822-3.369,14.924-8.361,20.3c3.907,2.732,17.68,13.916,9.866,31.308
		c0,0,7.403,5.161,9.213,7.823c1.812,2.664,2.195,5.577-0.848,5.68c-3.077,0-14.631,1.096-16.275-0.569
		c-1.646-1.664-0.584-2.849-4.729-3.348c-4.169,0.066-0.961-4.384,0.793-5.188c1.258-1.941,0.607-25.035-21.388-25.54
		c-0.373,0-0.743-0.014-1.115-0.026l-0.011,0.026c-21.994,0.505-22.644,23.599-21.387,25.54c1.754,0.805,4.962,5.255,0.794,5.188
		c-4.147,0.499-3.084,1.684-4.73,3.348c-1.646,1.665-13.198,0.569-16.275,0.569c-3.042-0.103-2.656-3.016-0.847-5.68
		c1.81-2.663,9.213-7.823,9.213-7.823c-8.4-18.698,8.148-30.223,10.565-31.778c-4.95-5.548-7.959-12.836-7.959-20.823
		c0-0.154,0.004-0.31,0.008-0.464c-3.229,5.761-11.754,18.919-14.437,26.221c-1.767,4.81-2.771,22.729-2.354,26.513
		c0.141,1.283,1.229,7.336,1.229,8.754c0,1.421,1.538,8.161,0.558,8.475c-0.163,0.605-2.518,0.573-3.473,0.729
		c-0.746,0.123-3.562,0.038-3.921-0.228c-0.612,0.063-3.531,0.684-5.013-0.184c-2.499,0.912-4.805-0.334-4.985-0.404
		c-0.701-0.271-0.37-1.741-0.618-2.395C552.803,576.614,555.367,575.902,555.804,575.148z"/>
	<ellipse fill="#754C24" cx="617.732" cy="512.258" rx="28.641" ry="29.649"/>
	<path fill="#42210B" d="M572.845,479.111c0,5.013,1.766,9.146,8.686,9.146c6.919,0,8.687-4.134,8.687-9.146
		c0-5.016-1.768-9.146-8.687-9.146C574.609,469.965,572.845,474.096,572.845,479.111z"/>
	<path fill="#42210B" d="M660.151,479.111c0,5.013-1.768,9.146-8.687,9.146c-6.918,0-8.687-4.134-8.687-9.146
		c0-5.016,1.769-9.146,8.687-9.146C658.385,469.965,660.151,474.096,660.151,479.111z"/>
	<path fill="#D1B08A" d="M574.973,479.111c0,4.361,1.46,7.957,7.173,7.957c5.715,0,7.175-3.596,7.175-7.957
		c0-4.363-1.46-7.96-7.175-7.96C576.433,471.151,574.973,474.748,574.973,479.111z"/>
	<path fill="#D1B08A" d="M658.023,479.111c0,4.361-1.462,7.957-7.175,7.957c-5.714,0-7.174-3.596-7.174-7.957
		c0-4.363,1.46-7.96,7.174-7.96C656.563,471.151,658.023,474.748,658.023,479.111z"/>
	<path fill="#D1B08A" d="M586.292,477.309c0-16.835,6.316-30.484,29.868-30.484c23.553,0,29.869,13.649,29.869,30.484
		c0,3.485-0.234,6.831-0.819,9.949c1.594,2.646,2.165,5.689,2.165,8.936c0,10.12-13.623,18.325-30.43,18.325
		c-16.806,0-30.43-8.205-30.43-18.325c0-2.367,0.113-6.159,0.896-8.236C586.464,484.227,586.292,481.638,586.292,477.309z"/>
	<path fill="#42210B" d="M586.135,477.309c0-16.835,6.336-30.484,29.966-30.484c0.004,0,0.007,0,0.011,0c0.002,0,0.004,0,0.006,0
		c0.015,0,0.024,0,0.039,0c23.582,0.022,29.909,13.661,29.909,30.484c0,3.485-0.234,6.831-0.823,9.949
		c0.722,1.192,1.232,2.47,1.579,3.81c-1.005-1.686-1.854-2.604-3.42-3.438c0.549-3.077,0.769-6.377,0.769-9.814
		c0-5.915-0.752-11.431-2.719-16.082c0.043,0.115,0.089,0.229,0.132,0.346c-2.774-4.244-7.702-7.07-13.322-7.07
		c-4.835,0-9.159,2.092-12.038,5.378c-2.88-3.286-7.204-5.378-12.038-5.378c-5.943,0-11.117,3.16-13.784,7.818
		c-1.643,4.413-2.281,9.53-2.281,14.988c0,4.271,0.161,6.823,1.052,10.503c-1.198,0.5-1.977,2.053-2.652,3.643
		c0.125-1.5,0.352-2.965,0.742-4.002C586.306,484.227,586.135,481.638,586.135,477.309z"/>
	<ellipse cx="626.802" cy="469.801" rx="2.187" ry="2.801"/>
	<ellipse cx="605.228" cy="469.801" rx="2.187" ry="2.801"/>
	<path fill="none" stroke="#000000" stroke-width="0.75" stroke-linecap="round" stroke-linejoin="round" d="M616.554,487.844
		c0,0-2.688,10.424,0,25.681"/>
	<path d="M617.227,483.361c0,0,1.44-1.184,3.25-1.121c3.25,0.112,3.925,2.466,1.904,2.129
		C620.492,484.055,620.813,482.352,617.227,483.361z"/>
	<path d="M615.679,483.361c0,0-1.441-1.184-3.252-1.121c-3.248,0.112-3.922,2.466-1.904,2.129
		C612.411,484.055,612.092,482.352,615.679,483.361z"/>
</g>
<rect x="883.511" y="378.235" fill="none" width="1147.474" height="860.604"/>
<g>
	<g>
		<g>
			<path fill="#F29900" d="M121.53,564.63c-2.984-6.066-10.627-5.806-15.09-2.556c2.308,5.015,4.045,8.32,3.256,9.25
				c-1.132,1.334-4.975,4.258-4.461,9.097c0.287,1.967,8.814,2.227,11.227,2.092c1.293-0.072,2.934-0.115,4.361-0.447
				C121.774,575.83,121.53,564.63,121.53,564.63z"/>
			<path fill="#FBB03B" d="M161.499,519.602c-2.191-8.088-14.318-19.617-24.467-22.549c-5.867-1.695-12.131-3.508-18.957-3.687
				c-23.395-0.608-42.835,12.354-44.334,29.222c-1.423,5.827-1.535,11.692-0.765,16.524c0.985,6.197,1.358,13.955,5.839,23.687
				c4.482,9.729,8.478,16.146,7.002,17.688c-1.475,1.539-8.805,4.928-7.795,10.26c0.518,2.168,11.252,2.959,14.566,2.679
				c3.883-0.33,9.654-1.615,9.893-5.197c0.236-3.58,0.766-14.07,0.589-20.063c-0.072-2.448,1.312-4.588,3.37-6.09
				c4.463-3.25,12.105-3.512,15.09,2.556c0,0,0.244,11.2-0.707,17.436c-0.146,0.963-0.32,1.811-0.53,2.477
				c-1.565,4.982-0.233,8.129,3.232,9.517c5.102,2.041,14.112,0.573,16.58-0.511s2.471-5.125,0.969-8.032
				c-1.503-2.908-1.469-4.201-0.847-6.052c0.401-1.19,3.734-9.696,5.68-18.946c1.106,2.104,1.73,2.729,2.459,3.95
				c2,3.353,1.184,6.675,0.859,9.205c-0.271,2.136-2.324,3.214-2.324,3.214s-2.313,1.653-2.761,5.237
				c-0.505,4.043,3.725,5.58,5.056,5.896c3.918,0.936,9.785,0.682,13.65-0.168c8.394-1.847,2.762-10.83,2.256-14.201
				c-0.66-4.412,0.432-10.748,1.114-15.289C167.733,548.25,163.575,527.273,161.499,519.602z"/>
		</g>
		<g>
			<g>
				<path fill="#FBB03B" d="M199.393,550.852c-4.823,2.572-9.162,6.156-16.211,5.447c-4.799-0.484-9.307-2.976-13.032-6.545
					c-3.382-3.242-4.096-6.609-2.521-9.41c1.576-2.801,4.768-4.439,6.435-7.188c0.489-0.805,0.749-1.748,0.382-2.77
					c-0.039-0.104-0.091-0.183-0.467-0.527c0.603,0.555-0.566-0.313,0.211,0.154c-0.141-0.084-1.293-0.613-0.607-0.328
					c-1.367-0.568-2.312-0.719-3.934-0.957c-1.75-0.258-3.486-0.223-5.129-0.154c-3.156,0.131-6.213,0.865-8.428,2.361
					c-0.2,0.137-0.311,0.248-0.479,0.412c-1.656,1.596-8.17-1.559-6.342-3.32c4.145-3.996,12.251-4.52,19.449-3.459
					c3.404,0.5,7.199,1.752,10.111,4.197c2.8,2.354,2.787,4.963,1.885,7.107c-1.714,4.08-13.068,8.858-3.072,14.975
					c5.73,3.506,11.927-1.375,15.33-3.463c0.279-0.172,0.565-0.336,0.859-0.496C195.924,545.775,202.062,549.427,199.393,550.852
					L199.393,550.852z"/>
			</g>
			<g>
				<path fill="#ED6E31" d="M210.124,535.689c-2.123,2.158-4.387,4.189-6.736,6.01c3.449-2.326,6.495-5.039,9.902-7.192
					c2.709-1.716,4.871-2.472,4.878-2.457c-0.187,3.092-0.603,6.469-2.304,9.021c-2.902,4.357-4.699,5.816-10.238,7.551
					c4.232-1.139,5.625-1.145,9.071-3.831c-2.966,4.711-7.452,7.247-8.831,7.405c-7.545,0.861-9.844-2.926-9.809-3.033
					c-3.234-2.012-3.682-5.604,0.027-8.692C198.364,538.568,204.389,537.818,210.124,535.689z"/>
			</g>
		</g>
		<g>
			<g>
				<path fill="#F14924" d="M43.788,519.443c-2.447-5.619-4.957-11.216-7.527-16.793c21.235-8.611,43.272-15.713,65.97-21.156
					c0.715,1.473,1.425,2.945,2.13,4.418C83.019,495.694,62.792,506.947,43.788,519.443z"/>
				<path fill="#F18126" d="M48.885,440.846c5.137-4.379,10.379-8.681,15.727-12.896c15.174,16.804,29.14,34.292,41.867,52.311
					c-1.207,1.14-2.406,2.286-3.601,3.435C86.219,468.43,68.198,454.073,48.885,440.846z"/>
				<path fill="#F14924" d="M41.11,479.091c1.549-6.08,3.164-12.154,4.842-18.222c20.234,5.481,39.788,12.24,58.564,20.143
					c-0.387,1.577-0.77,3.154-1.15,4.732C82.956,482.146,62.166,479.903,41.11,479.091z"/>
				<path fill="#F18126" d="M48.413,495.147c-0.1-6.195-0.188-12.39-0.264-18.587c18.713,0.621,37.242,2.365,55.51,5.188
					c0.039,1.617,0.08,3.235,0.117,4.854C85.112,488.33,66.629,491.19,48.413,495.147z"/>
				<path fill="#ED6E31" d="M97.831,420.529c6.59,0.097,13.179,0.32,19.761,0.67c-2.491,20.072-4.821,40.158-6.993,60.258
					c-1.555,0.121-3.109,0.25-4.662,0.387C103.545,461.384,100.844,440.94,97.831,420.529z"/>
				<path fill="#F18126" d="M74.657,422.357c6.818-2.013,13.697-3.892,20.631-5.629c5.483,21.167,10.408,42.424,14.769,63.743
					c-1.58,0.597-3.153,1.202-4.722,1.813C96.133,461.999,85.904,441.99,74.657,422.357z"/>
				<path fill="#ED6E31" d="M60.336,434.663c5.811-3.654,11.717-7.211,17.72-10.661c12.205,18.741,23.337,37.927,33.382,57.442
					c-1.355,0.972-2.707,1.946-4.048,2.928C93.036,467.064,77.336,450.429,60.336,434.663z"/>
				<path fill="#F14924" d="M45.09,453.028c3.99-5.187,8.088-10.323,12.291-15.409c17.907,13.067,34.648,27.101,50.168,41.912
					c-0.961,1.338-1.914,2.679-2.86,4.021C85.921,472.161,66.024,461.918,45.09,453.028z"/>
				<path fill="#F18126" d="M36.844,467.938c2.354-5.9,4.789-11.787,7.308-17.654c21.794,8.36,42.557,18.181,62.185,29.246
					c-0.574,1.525-1.148,3.054-1.715,4.58C82.778,477.112,60.137,471.666,36.844,467.938z"/>
				<path fill="#ED6E31" d="M36.218,490.324c0.052-6.204,0.124-12.41,0.216-18.617c22.586,0.747,44.871,3.119,66.719,7.025
					c0.004,1.621,0.005,3.244,0.007,4.866C80.709,484.218,58.348,486.466,36.218,490.324z"/>
				<path fill="#F18126" d="M42.266,510.216c-1.656-5.647-3.349-11.287-5.076-16.918c21.816-5.663,44.083-9.757,66.655-12.209
					c0.487,1.479,0.969,2.963,1.448,4.444C83.448,492.273,62.397,500.557,42.266,510.216z"/>
				<path fill="#ED6E31" d="M51.37,528.564c-3.213-5.166-6.514-10.295-9.898-15.389c19.41-11.752,39.963-22.228,61.537-31.201
					c0.959,1.338,1.91,2.682,2.854,4.027C86.325,499.041,68.13,513.314,51.37,528.564z"/>
				<path fill="#ED6E31" d="M61.027,529.096c-3.568-4.91-7.231-9.775-10.99-14.59c16.687-11.689,34.393-22.433,53.044-32.058
					c1.064,1.262,2.121,2.523,3.172,3.793C90.012,499.736,74.92,514.08,61.027,529.096z"/>
				<path fill="#F14924" d="M67.946,540.169c-4.313-4.119-8.731-8.171-13.25-12.148c14.666-15.752,30.659-30.759,47.918-44.811
					c1.316,1.019,2.625,2.042,3.929,3.071C92.397,503.658,79.52,521.677,67.946,540.169z"/>
				<path fill="#F18126" d="M80.09,549.171c-4.938-3.087-9.966-6.084-15.086-8.988c11.145-19.099,23.6-37.76,37.338-55.819
					c1.527,0.693,3.05,1.395,4.564,2.103C96.931,507.082,87.989,528.016,80.09,549.171z"/>
				<path fill="#F14924" d="M93.398,553.361c-5.321-2.094-10.71-4.082-16.167-5.961c7.594-20.867,16.184-41.529,25.768-61.9
					c1.64,0.378,3.275,0.767,4.908,1.162C102.511,508.814,97.674,531.055,93.398,553.361z"/>
				<path fill="#ED6E31" d="M103.708,558.945c-5.465-1.332-10.973-2.553-16.521-3.656c4.839-21.073,10.316-42.063,16.425-62.936
					c1.658,0.146,3.316,0.3,4.972,0.463C106.831,514.852,105.204,536.895,103.708,558.945z"/>
				<path fill="#ED6E31" d="M121.631,556.018c-5.644,0.238-11.271,0.594-16.882,1.063c-0.249-22.521-0.612-45.043-1.091-67.565
					c1.637-0.34,3.279-0.67,4.921-0.991C113.608,510.949,117.958,533.459,121.631,556.018z"/>
				<path fill="#F18126" d="M146.102,538.38c-5.4,2.403-10.717,4.911-15.951,7.52c-6.979-19.408-14.902-38.643-23.768-57.613
					c1.373-0.929,2.754-1.85,4.141-2.767C123.612,502.63,135.479,520.303,146.102,538.38z"/>
				<path fill="#F14924" d="M137.299,546.525c-5.598,1.498-11.137,3.111-16.613,4.836c-4.273-21.104-9.231-42.141-14.877-63.07
					c1.516-0.692,3.037-1.38,4.564-2.06C120.469,506.029,129.448,526.166,137.299,546.525z"/>
				<path fill="#ED6E31" d="M155.319,533.223c-5.021,3.262-9.945,6.611-14.773,10.045c-10.258-18.777-21.783-37.18-34.555-55.04
					c1.177-1.155,2.361-2.306,3.552-3.451C126.181,500.093,141.458,516.316,155.319,533.223z"/>
				<path fill="#ED6E31" d="M168.081,518.041c-4.078,4.546-8.06,9.144-11.951,13.794c-14.951-15.354-31.236-29.912-48.796-43.457
					c0.781-1.436,1.566-2.867,2.358-4.3C130.26,494.093,149.754,505.485,168.081,518.041z"/>
				<path fill="#ED6E31" d="M177.855,501.092c-2.895,5.423-5.728,10.87-8.5,16.341c-17.402-10.849-35.735-20.648-54.921-29.242
					c0.404-1.571,0.812-3.143,1.221-4.713C136.875,487.916,157.649,493.815,177.855,501.092z"/>
				<path fill="#ED6E31" d="M171.327,465.839c0.623,6.217,1.201,12.432,1.736,18.646c-21.441-0.556-42.71,0.39-63.686,2.763
					c-0.505-1.549-1.014-3.095-1.529-4.641C128.277,475.623,149.477,469.98,171.327,465.839z"/>
				<path fill="#F18126" d="M179.028,481.23c-1.016,6.097-2.032,12.193-3.045,18.291c-21.715-5.578-43.815-9.571-66.16-11.936
					c-0.139-1.617-0.279-3.233-0.42-4.853C132.36,480.507,155.622,479.98,179.028,481.23z"/>
				<path fill="#F14924" d="M169.766,458.339c1.433,5.898,2.803,11.805,4.111,17.713c-21.49,1.977-42.547,5.434-63.049,10.253
					c-0.675-1.421-1.355-2.841-2.041-4.259C128.201,472.873,148.563,464.91,169.766,458.339z"/>
				<path fill="#F18126" d="M164.311,441.36c3.313,5.622,6.521,11.275,9.632,16.958c-21.839,7.662-42.688,16.796-62.44,27.189
					c-1.076-1.254-2.159-2.506-3.248-3.752C125.653,467.25,144.364,453.714,164.311,441.36z"/>
				<path fill="#F14924" d="M146.205,428.055c5.194,4.416,10.28,8.912,15.255,13.481c-17.722,13.361-34.299,27.654-49.678,42.705
					c-1.407-0.903-2.821-1.803-4.241-2.692C119.344,463.236,132.24,445.365,146.205,428.055z"/>
				<path fill="#ED6E31" d="M126.304,417.824c6.563,2.701,13.045,5.527,19.447,8.476c-12.336,18.475-23.698,37.381-34.072,56.629
					c-1.624-0.469-3.252-0.929-4.885-1.378C112.7,460.189,119.204,438.938,126.304,417.824z"/>
				<path fill="#F14924" d="M108.208,416.695c7.1,1.165,14.161,2.475,21.184,3.929c-6.77,20.766-12.988,41.658-18.656,62.647
					c-1.688-0.113-3.38-0.217-5.07-0.31C106.483,460.873,107.331,438.783,108.208,416.695z"/>
			</g>
			<g>
				<g>
					<path fill="#FBB850" d="M140.962,498.153c-0.153-0.487-3.284-39.493-33.146-40.313c-29.862-0.821-35.13,37.954-35.31,38.435
						c-1.828,4.861-5.47,8.195-5.602,12.976c-0.4,14.557,16.947,26.846,38.744,27.442c21.799,0.601,39.793-10.715,40.193-25.274
						C145.973,506.641,142.52,503.111,140.962,498.153z"/>
					<path fill="#42210B" d="M119.924,512.859c-0.106,3.861-11.498,6.68-13.803,6.617c-2.303-0.064-13.521-3.504-13.416-7.367
						C92.812,508.248,120.03,508.996,119.924,512.859z"/>
					<g>
						<path fill="#FFFFFF" d="M94.568,481.955c-3.34-0.092-6.178,4.625-6.34,10.535c-0.021,0.738,0.001,1.46,0.063,2.159
							c0-0.034,0-0.067,0-0.1c0.133-4.774,2.892-8.573,6.162-8.483c3.274,0.09,5.82,4.034,5.689,8.809
							c-0.001,0.033-0.004,0.066-0.005,0.102c0.099-0.695,0.161-1.415,0.181-2.152C100.482,486.913,97.907,482.047,94.568,481.955z"
							/>
						<path d="M94.454,486.066c-3.271-0.09-6.029,3.709-6.162,8.483c0,0.031,0,0.064,0,0.1c0.429,4.895,2.766,8.628,5.688,8.709
							c2.923,0.081,5.462-3.521,6.159-8.383c0.001-0.034,0.004-0.067,0.005-0.101C100.274,490.101,97.728,486.156,94.454,486.066z"
							/>
						<path fill="#FFFFFF" d="M119.608,486.759c3.271,0.089,5.818,4.031,5.688,8.809c-0.002,0.034-0.005,0.066-0.006,0.101
							c0.1-0.693,0.162-1.413,0.182-2.151c0.164-5.911-2.411-10.776-5.752-10.869c-3.338-0.091-6.176,4.626-6.34,10.536
							c-0.02,0.739,0.002,1.459,0.064,2.158c0-0.032-0.001-0.065,0-0.1C113.575,490.468,116.334,486.669,119.608,486.759z"/>
						<path d="M125.29,495.666c0.001-0.032,0.004-0.064,0.006-0.1c0.131-4.776-2.417-8.72-5.688-8.809
							c-3.273-0.09-6.033,3.709-6.164,8.482c-0.001,0.033,0,0.066,0,0.1c0.429,4.893,2.766,8.629,5.688,8.711
							C122.055,504.132,124.593,500.527,125.29,495.666z"/>
					</g>
					<path fill="#42210B" d="M106.579,519.253c-0.35,0.051-0.656,0.081-0.898,0.092c-0.004,1.463-0.026,2.987-0.07,4.559
						c-0.134,4.916-0.443,9.396-0.84,12.775c0.063,0.002,0.122,0.006,0.18,0.008c0.529,0.014,1.054,0.018,1.576,0.021
						c-0.209-3.396-0.269-7.873-0.135-12.781C106.436,522.313,106.499,520.748,106.579,519.253z"/>
				</g>
				<g>
					<path fill="#FBB850" d="M133.937,467.971c-2.825,0.692-6.84-0.988-8.923-3.736l-0.682-0.896
						c-2.082-2.749-2.615-7.069-1.182-9.604l4.69-8.297c1.433-2.531,4.931-4.063,9.03-1.604c3.662,2.193,9.188,9.486,10.309,13.604
						c1.259,4.614-1.16,7.565-3.985,8.26L133.937,467.971z"/>
					<path fill="#FDD18C" d="M133.485,465.794c-2.171,0.522-5.268-0.792-6.881-2.925l-0.529-0.692
						c-1.613-2.131-2.043-5.468-0.951-7.416l3.574-6.386c1.092-1.948,3.777-3.114,6.941-1.2c2.826,1.71,7.109,7.361,7.994,10.545
						c0.984,3.564-0.863,5.834-3.034,6.358L133.485,465.794z"/>
				</g>
				<g>
					<path fill="#FBB850" d="M80.944,466.654c2.783,0.851,6.885-0.608,9.115-3.238l0.729-0.858c2.23-2.63,2.999-6.914,1.708-9.521
						l-4.227-8.543c-1.293-2.606-4.701-4.325-8.93-2.099c-3.774,1.989-9.695,8.968-11.041,13.018
						c-1.51,4.536,0.744,7.617,3.527,8.465L80.944,466.654z"/>
					<path fill="#FDD18C" d="M81.515,464.507c2.139,0.643,5.304-0.5,7.032-2.539l0.564-0.665c1.729-2.038,2.342-5.349,1.359-7.354
						l-3.221-6.57c-0.982-2.007-3.599-3.317-6.863-1.58c-2.916,1.552-7.504,6.962-8.559,10.091
						c-1.182,3.504,0.539,5.871,2.678,6.514L81.515,464.507z"/>
				</g>
			</g>
		</g>
	</g>
</g>
<rect x="-580.883" y="369.723" fill="none" width="800.001" height="600"/>
</svg>
